<svg viewBox="0 0 1830 1824.09" xmlns="http://www.w3.org/2000/svg"
    xmlns:xlink="http://www.w3.org/1999/xlink">
    <linearGradient id="a" gradientUnits="userSpaceOnUse" x1="328.86" x2="339.27" y1="1736.92"
        y2="1812.34">
        <stop offset="0" stop-color="#fff" />
        <stop offset="1" stop-color="#efeff4" />
    </linearGradient>
    <linearGradient id="b" x1="457.73" x2="468.13" xlink:href="#a" y1="1719.14" y2="1794.56" />
    <linearGradient id="c"
        gradientTransform="matrix(.99370942 -.11198925 .11198925 .99370942 -4360.05 -86.72)"
        x1="4738.57" x2="4831.89" xlink:href="#a" y1="1623.28" y2="1623.28" />
    <linearGradient id="d"
        gradientTransform="matrix(.99370942 -.11198925 .11198925 .99370942 -4360.05 -86.72)"
        x1="4949.9" x2="4748.24" xlink:href="#a" y1="1643.62" y2="1894.51" />
    <linearGradient id="e"
        gradientTransform="matrix(.99370942 -.11198925 .11198925 .99370942 -4360.05 -86.72)"
        x1="4988.13" x2="4786.47" xlink:href="#a" y1="1674.35" y2="1925.24" />
    <linearGradient id="f"
        gradientTransform="matrix(.99370942 -.11198925 .11198925 .99370942 -4360.05 -86.72)"
        x1="4723.03" x2="4527.72" xlink:href="#a" y1="1492.02" y2="1850.87" />
    <linearGradient id="g" gradientUnits="userSpaceOnUse" x1="497.95" x2="422.08" y1="919.94"
        y2="1007.32">
        <stop offset="0" stop-color="#efeff4" />
        <stop offset="1" stop-color="#fff" />
    </linearGradient>
    <linearGradient id="h" x1="480.42" x2="404.54" xlink:href="#g" y1="904.71" y2="992.1" />
    <linearGradient id="i" gradientTransform="matrix(-.99 -.12 -.12 .99 6274.27 590.84)"
        x1="5310.37" x2="5109.19" xlink:href="#a" y1="954.08" y2="1201.41" />
    <linearGradient id="j"
        gradientTransform="matrix(.96019624 .27932629 -.27932629 .96019624 8602.06 1022.78)"
        x1="-7231.04" x2="-7220.29" xlink:href="#a" y1="2105.73" y2="2029.42" />
    <linearGradient id="k"
        gradientTransform="matrix(.96019624 .27932629 -.27932629 .96019624 8602.06 1022.78)"
        x1="-7280.31" x2="-7179.81" xlink:href="#a" y1="1942.22" y2="2057.76" />
    <linearGradient id="l"
        gradientTransform="matrix(.96019624 .27932629 -.27932629 .96019624 8602.06 1022.78)"
        x1="-7255.2" x2="-7154.71" xlink:href="#a" y1="1920.38" y2="2035.92" />
    <linearGradient id="m" x1="1230.39" x2="864.89" xlink:href="#a" y1="1657.4" y2="1533.61" />
    <linearGradient id="n" x1="1095.85" x2="1296.28" xlink:href="#a" y1="1606.59" y2="1331" />
    <linearGradient id="o" gradientTransform="matrix(-.99 -.12 -.12 .99 6274.27 590.84)"
        x1="4928.12" x2="5325.86" xlink:href="#a" y1="1276.63" y2="821.67" />
    <path
        d="m1744.32 1218.86c-169.87 400-622.38 624.05-1014.79 563.61-63.85-9.83-238.91-39.13-393.89-177.35-298.37-266.12-362.17-792.94-121.49-1164.24 175.17-270.24 489.18-423.43 787.56-415.76 64.27 1.65 310.58 11.82 527 190.31 31.79 26.22 101.92 88.51 165.12 187.35 148.44 232.07 161.17 555.4 50.49 816.08z"
        fill="#efeff4" />
    <path
        d="m504.06 1093.76s5.64-237.26-103.64-300.76-317.05-103.2-324.84-443.88c-4.58-199.45-9.49-286.65-12.8-324.67a22.45 22.45 0 0 1 26.52-24.05c103.5 19.49 439.7 99.74 510.2 329.22 83.56 272.06-95.44 764.14-95.44 764.14z"
        fill="#d7d9e0" />
    <path
        d="m169.34 95.18c113.61 101.33 245 280.64 315 460 9 29.56 35.28 92.4 46.7 204.07 10.19 93.12 5.13 191.53-7.24 256.67a7.59 7.59 0 0 1 -8.87 6c-7.08-1.35-6.14-9-6.08-8.72 14.12-111.3 8.26-249.83-24.09-374.82-41.35-153.46-133.55-302.26-228.92-428.47l-9.84-12.42c-73.89-94.89-89.44-95.59-82.53-102.2a4.32 4.32 0 0 1 5.87-.11z"
        fill="#fff" />
    <path
        d="m679.67 1549.92c14.79 7.25-140-187.36-188.44-493-22.85-144-23.14-324.47-105.19-394-68.28-57.92-300.63-21.35-376.66-7.46a11.39 11.39 0 0 0 -5.3 19.94c36.46 30.6 114.45 102.84 134.77 175.6 26.78 95.94 118 157 199.65 173.48s127.09 32.54 166.87 163.13 132.29 341.71 174.3 362.31z"
        fill="#c6c9d3" />
    <path
        d="m116.31 696c97 4.06 201.11 48.31 254 131.31l5 7.92c11.52 18.57 76.8 150.59 113.05 260a2.61 2.61 0 0 1 -1.65 3.29 2.65 2.65 0 0 1 -3.26-1.56c-25.26-61.82-61.54-140.2-90.43-198.81-31-64-52.67-107.28-123.35-148.77-78.67-44.68-153.83-49.28-153.6-49.24a2.09 2.09 0 0 1 .3-4.16z"
        fill="#fff" />
    <path
        d="m632.17 445.82a5.52 5.52 0 0 1 -5.52-5.36c0-.94-2.6-95.26 24.79-192.94 16.17-57.63 39.45-105.22 69.21-141.45 37.48-45.62 85.29-73.21 142.09-82 49.92-7.73 94.29 4.08 131.9 35.07 51.62 42.54 90 119.68 114.08 229.26 17.83 81.19 20.71 151 20.73 151.68a5.52 5.52 0 0 1 -5.3 5.74 5.6 5.6 0 0 1 -5.74-5.31c-.11-2.74-12-275-130.81-372.85-35.07-28.89-76.51-39.88-123.16-32.66-54.05 8.37-99.55 34.64-135.25 78.1-28.78 35-51.36 81.27-67.11 137.42-26.94 96.06-24.41 188.69-24.38 189.61a5.54 5.54 0 0 1 -5.35 5.7z"
        fill="#74767b" />
    <path
        d="m175.36 1618.28 186.35-1263.28 700-11.57 225.63 1345.1h-1051.34a61.27 61.27 0 0 1 -60.64-70.25z"
        fill="#b9bcc5" />
    <path d="m1197.69 355-136-11.57 225.63 1345.1h135a43.15 43.15 0 0 0 42.24-51.94z"
        fill="#888b8f" />
    <path
        d="m481.75 442.93a5.52 5.52 0 0 1 -5.52-5.36c0-.94-2.6-95.27 24.79-192.94 16.16-57.63 39.45-105.23 69.21-141.45 37.48-45.62 85.29-73.21 142.09-82 49.92-7.73 94.29 4.07 131.9 35.07 51.62 42.54 90 119.68 114.08 229.26 17.83 81.18 20.71 151 20.73 151.68a5.52 5.52 0 1 1 -11 .42c-.11-2.73-12-275-130.81-372.84-35.11-28.9-76.55-39.88-123.22-32.67-54 8.36-99.55 34.64-135.25 78.09-28.78 35-51.36 81.27-67.11 137.42-26.94 96.07-24.41 188.69-24.38 189.62a5.54 5.54 0 0 1 -5.36 5.7z"
        fill="#74767b" />
    <path
        d="m1534.71 687.84a5.54 5.54 0 0 1 -5.52-5.31c-.09-2.37-10.38-237.37-112.82-321.78-30.14-24.84-65.76-34.29-105.88-28.08-46.49 7.19-85.65 29.79-116.38 67.15-24.81 30.17-44.29 70-57.88 118.39-23.31 82.94-21.15 163.13-21.12 163.93a5.54 5.54 0 0 1 -5.36 5.7h-.17a5.52 5.52 0 0 1 -5.52-5.36c0-.81-2.25-82.47 21.46-167 14-49.93 34.18-91.16 60-122.56 32.53-39.59 74-63.52 123.31-71.15 43.37-6.71 81.93 3.54 114.61 30.48 44.76 36.88 78 103.71 98.88 198.61a840.11 840.11 0 0 1 17.94 131.26 5.52 5.52 0 0 1 -5.3 5.74z"
        fill="#5c5e61" />
    <path d="m714.67 1700.69 161.09-1092.15 605.19-10 195 1162.85h-908.88a53 53 0 0 1 -52.4-60.7z"
        fill="#4eb77c" />
    <path d="m1598.48 608.54-117.53-10 195 1162.85h116.69a37.29 37.29 0 0 0 36.51-44.9z"
        fill="#079b61" />
    <path
        d="m1480.73 763.08a3.31 3.31 0 0 1 -2.55-1.2c-10.84-13-26.7-27.28-42-41-26-23.37-48.48-43.55-47.06-57.46.41-4 2.67-7.29 6.71-9.65a3.32 3.32 0 1 1 3.35 5.73c-2.85 1.66-3.34 3.42-3.46 4.59-1.08 10.56 22.29 31.55 44.9 51.85 15.51 13.94 31.55 28.35 42.7 41.75a3.32 3.32 0 0 1 -.43 4.67 3.28 3.28 0 0 1 -2.16.72z"
        fill="#5c5e61" />
    <path
        d="m1765.28 1103.22a16 16 0 0 0 -1.1-12.51c-30.59-57.31-140.26-262.51-144-264.8-4.3-2.67-140.62-106.58-140.62-106.58-25.12-19.13-31.38 1.35-31.38 1.35l-36.12 208.13 144.73 263.45a16 16 0 0 0 21 6.71l179.21-86.3a16 16 0 0 0 8.28-9.45zm-296.54-308.83a22.75 22.75 0 1 1 31.32-7.34 22.75 22.75 0 0 1 -31.32 7.34z"
        fill="#a8abb2" />
    <g fill="#5c5e61">
        <path
            d="m1548.2 972.28c19.38 29.16 16.6 52.17 2.65 61.44-14.26 9.48-35.76 2.29-53.59-24.21-17.39-26.17-17.72-50.8-2-61.21 16.09-10.73 36.4-.91 52.94 23.98zm41.57 119.32-35.94-182.25 11-7.3 35.93 182.26zm-78.35-92.73c10.45 16.07 22.46 25 30.14 19.85s4.09-18.66-7.08-35.47c-10.18-15.32-21.52-25.58-29.83-20.06-7.83 5.2-3.55 20.15 6.77 35.68zm145.18-15.79c19.23 28.94 16.74 52.06 2.64 61.43s-35.76 2.29-53.58-24.52c-17.25-26-17.72-50.8-2.2-61.11 16.14-10.73 36.59-.7 53.14 24.2zm-36.78 26.59c10.3 15.85 22.45 24.95 30.13 19.85 7.84-5.21 4.09-18.67-7.08-35.48-10.32-15.53-21.52-25.58-29.82-20.06-7.84 5.21-3.56 20.15 6.77 35.69z" />
        <path
            d="m1480.73 763.08a3.32 3.32 0 0 1 -2.73-5.21c5-7.22-.63-27-13.71-48-16.08-25.86-42.54-52.33-62.8-49.31a3.32 3.32 0 0 1 -1-6.56c23.28-3.52 51.65 23.8 69.41 52.37 11.85 19.08 21.64 43.62 13.53 55.3a3.29 3.29 0 0 1 -2.7 1.41z" />
        <path
            d="m979.54 685.34a5.52 5.52 0 0 1 -5.54-5.34c0-.81-2.25-82.47 21.46-167 14-49.93 34.18-91.16 60-122.56 32.52-39.59 74-63.53 123.3-71.16 43.38-6.71 81.93 3.55 114.62 30.49 44.75 36.88 78 103.71 98.87 198.61a842.32 842.32 0 0 1 18 131.26 5.54 5.54 0 0 1 -5.31 5.74 5.6 5.6 0 0 1 -5.74-5.31c-.09-2.37-10.38-237.38-112.81-321.78-30.15-24.84-65.77-34.29-105.89-28.08-46.53 7.2-85.71 29.82-116.45 67.24-24.82 30.21-44.29 70.09-57.88 118.53-23.26 82.94-21.08 162.9-21 163.7a5.54 5.54 0 0 1 -5.35 5.7z" />
    </g>
    <path
        d="m323.5 1777.23s-5.65 11.61-4 42.15a5 5 0 0 0 5.5 4.68l53.77-6.06a3.19 3.19 0 0 0 2.54-4.51c-4.2-9-16.29-30.63-39-41.23z"
        fill="#48494b" />
    <path
        d="m318.85 1756.94 5.91 25.15a4.85 4.85 0 0 0 4.67 3.75 43.11 43.11 0 0 0 11.35-1.39 7.93 7.93 0 0 0 5.62-8.55l-2.78-24.62z"
        fill="url(#a)" />
    <path
        d="m456.06 1761.09a75.46 75.46 0 0 0 -9.18 38.43 9.56 9.56 0 0 0 9.84 9.11l84-2.1a4 4 0 0 0 2.13-7.37c-16.17-10.77-47.94-30.84-70.74-38.47z"
        fill="#48494b" />
    <path
        d="m448.85 1736.89 7.86 31.39a6.54 6.54 0 0 0 7.94 4.81 23.45 23.45 0 0 0 7.25-3.4 7.5 7.5 0 0 0 3-7.79l-8.37-38.08z"
        fill="url(#b)" />
    <path
        d="m280.29 1307.93s-20.31 22.43-21.86 46.83 58.57 411.41 58.57 411.41 23 1.21 33.81-7.15c0 0-14.66-253.91-10.75-313.4 0 0 84.44 255.2 105 300.72 0 0 22 .19 28.57-4.73 0 0-52.6-337.23-77.49-395.44z"
        fill="#333435" />
    <path
        d="m477.53 1058.16c-95.83 2.82-118.43 25.26-118.43 25.26l53.75 66.89s93.08-12.31 154.15-71.42a164.08 164.08 0 0 1 -31.31-36.89 126.46 126.46 0 0 1 -58.16 16.16z"
        fill="#079b61" />
    <path
        d="m610.5 902a2.93 2.93 0 0 0 -5.67-.49l-9.2 27.22a27.21 27.21 0 0 0 -.34 16.27l6 14.57a26.12 26.12 0 0 1 -3 21.27c-9.56 15.17-30.41 43.26-62.58 61.09a164.08 164.08 0 0 0 31.29 36.96c22.4-21.67 40.49-49.62 48.07-85.56a12.78 12.78 0 0 0 7.54-13.64z"
        fill="url(#c)" />
    <path
        d="m513.49 1096.39c-37.48-32.24-103-41.34-140.6-43.87a34 34 0 0 0 -35.37 25.71c-11.56 46.46-43.6 167.56-50.09 188.48-5.33 17.17-11 34-14.66 44.51a12.07 12.07 0 0 0 7.4 15.35c32.7 11.45 90.41 22.07 113.78 26.12a7.82 7.82 0 0 0 9.09-8.59 24.34 24.34 0 0 1 2-12.87l69.58-152.44c60.08 53.19 107.46 53.33 141.93 36.32a271.9 271.9 0 0 1 -18.22-54.77c-54.05-3.11-84.84-63.95-84.84-63.95z"
        fill="#4fbb7d" />
    <path
        d="m685 1140.51-11-11.69c-28.61 24.79-54 32.76-75.59 31.52a271.9 271.9 0 0 0 18.22 54.77c45.37-22.41 68.37-74.6 68.37-74.6z"
        fill="url(#d)" />
    <path
        d="m678.26 1141.5 54.2-4 46.54-33.33c-7.64-3.67-46.94 10-46.94 10s-42.88-1.63-54.29-.35c-9.48 1.05-6.59 14.53-5.34 19.06.26.93.44 1.48.44 1.48z"
        fill="url(#e)" />
    <path d="m416.13 980.66-20.63 72.69s35.26 19 61.34 13.83l7.17-64.07z" fill="url(#f)" />
    <path
        d="m463.33 915.41s24.85 39.74 29.42 61.87 11.54 35.88-13.58 44.22-48.78-1.26-63.87-21.72c0 0-23.56-31.49-21.51-46.14s69.54-38.23 69.54-38.23z"
        fill="url(#g)" />
    <path
        d="m421.73 982.48 1.37-.86a3.59 3.59 0 0 0 1-5.13c-4.69-6.48-14.19-21.53-5.59-26.65 11.09-6.61 56.43-23.13 64-41.23 7.32-17.4-4.35-36.7-18.13-40.63a1.8 1.8 0 0 0 -2.22 1.11l-.77 2.19a1.77 1.77 0 0 1 -3.28.15 1.77 1.77 0 0 0 -3.23 0c-2.36 5.43-9.53 14.73-31.3 22.21-30.95 10.62-50.07 26.64-47.31 48.71a1.78 1.78 0 0 1 -2.5 1.85c-2.51-1.06-6.37-1.2-10.77 3.8-7.64 8.65-1.22 27.18 20.29 40a1.76 1.76 0 0 1 .33 2.82c-3.13 2.78-7.51 8.93 7 14.1 15 5.35 25.26 3.19 29.15 1.94a1.77 1.77 0 0 0 1.1-2.32l-7.15-18.69a1.78 1.78 0 0 1 1.4-2.39z"
        fill="#333435" />
    <path d="m423.14 986.44s-11.14-26.1-22.14-16.67 10.86 29.48 20.8 29z" fill="url(#h)" />
    <path
        d="m822.61 810.89a5.51 5.51 0 0 1 -5.51-5.31c0-.65-2.91-66-30.77-88.92-7.8-6.43-16.66-8.78-27.09-7.15-54.38 8.41-52.43 94.82-52.4 95.69a5.53 5.53 0 0 1 -5.36 5.69 5.46 5.46 0 0 1 -5.69-5.35 180.41 180.41 0 0 1 6.27-48.85c9.5-33.86 28.69-54 55.49-58.11 13.54-2.09 25.59 1.12 35.82 9.55 31.67 26.1 34.66 94.14 34.77 97a5.53 5.53 0 0 1 -5.31 5.74z"
        fill="#48494b" />
    <path
        d="m588.63 1095.94 46-311.62 172.68-2.86 55.65 331.8h-259.38a15.12 15.12 0 0 1 -14.95-17.32z"
        fill="#888b8f" />
    <path d="m840.81 784.32-33.53-2.86 55.65 331.8h33.3a10.63 10.63 0 0 0 10.41-12.81z"
        fill="#74767b" />
    <path
        d="m664.21 810.18a5.52 5.52 0 0 1 -5.52-5.36 179.67 179.67 0 0 1 6.31-48.82c9.5-33.87 28.69-54 55.5-58.11 13.53-2.1 25.58 1.12 35.82 9.55 31.67 26.1 34.65 94.14 34.76 97a5.52 5.52 0 0 1 -5.3 5.74 5.58 5.58 0 0 1 -5.74-5.31c0-.66-2.91-66-30.76-88.92-7.8-6.43-16.67-8.76-27.09-7.16-54.48 8.43-52.43 94.82-52.41 95.69a5.53 5.53 0 0 1 -5.35 5.7z"
        fill="#48494b" />
    <path
        d="m881.78 907.28a3.12 3.12 0 0 1 5.77.61c2.8 10.08 9.58 27.67 23.8 33.91.72.32 1.4.64 2 1a7.2 7.2 0 0 0 -.89-6.54c-4.42-6.76 3.56-16 3.56-16s.53 8.13 6.71 13.25c5.32 4.4 7.87 14.21 4.24 22.26-7.7 29.89-19.22 69.43 25.67 98.31s108.11-54.51 108.11-54.51l-31.33 99.43s-48.42 35.75-104.77-14.5-19-123.39-19-123.39-42.96-17.33-23.87-53.83z"
        fill="url(#i)" />
    <path
        d="m1068.66 853.39s-13-58.34 53.82-42.9c0 0 32.44-5.3 34.09 25.32 0 0 20.91 13.78 5.6 40.27 0 0 62.14-24 89.21 30.47s2.19 84.44-23.9 92.24c0 0 21.14 10.62 11.13 34.58s-60.67 40.86-90.6 11.72c0 0-85.17 11.25-83.47-48.91 0 0-39.61-25.58 2-75.3s2.12-67.49 2.12-67.49z"
        fill="#333435" />
    <path
        d="m1065 988.62c13.43-4 52.53-11.46 89.72 22.86a23 23 0 0 1 6.63 23c-10 36.77-36.34 145.42-13.23 192.43 0 0-40.73 44.89-85.15 8.71 0 0-19.94-86.88-46.05-125-18-26.34 28.75-98.88 40.58-116.41a13.8 13.8 0 0 1 7.5-5.59z"
        fill="#5c5e61" />
    <path
        d="m1102.07 915.55s19.86 56.18 21.35 81a42.47 42.47 0 0 1 -42.63-6.87s-2.17-56.1-5.31-66.15z"
        fill="url(#j)" />
    <path
        d="m1074.48 839s-51.94 72.69-20.89 93.81 68-30.55 68-30.55 12.05-39.79-.55-53.28-46.56-9.98-46.56-9.98z"
        fill="url(#k)" />
    <path
        d="m1098.52 821.59s-23.86 5.65-27.2 16.45 33.84 20.81 44.26 21.3l8.39 43.57s24.82-41 15-64.66-40.45-16.66-40.45-16.66z"
        fill="#333435" />
    <path d="m1111.55 896.87s20.21-23.41 28.26-8.15-18.2 26.73-27.29 19.23z" fill="url(#l)" />
    <path
        d="m1011.09 1418c.16 3.94-6.77 35.23-10.54 51.91a27.47 27.47 0 0 0 3 19.72l130.45 219.64a30 30 0 0 1 3.43 8.55c2.39 10.31 7.35 35.57 4.76 58.55l-6.75 14 29.2-6.63 6.36-78.41-8.27-5a39.39 39.39 0 0 1 -15.89-18.6c-11.8-28.67-41.11-101.64-48.66-137.2-8.59-40.42-53.47-73.25-53.47-73.25l7.89-18.64z"
        fill="url(#m)" />
    <path
        d="m1197.11 1756.78s-15.76-25-17.62-34.73-7-26.92-16.74-21.74c0 0-4.58 47.27-3 65.74s-20.88 17.88-20.88 17.88a21 21 0 0 0 -10.73 5.4c-3.13 3.13-.89 8.56 3.53 8.84a126 126 0 0 0 31.28-1.77 9.56 9.56 0 0 0 7.72-8.83l3.24-54.4 19.89 25.11z"
        fill="#333435" />
    <path
        d="m1089.06 1453s4.6 196.49 5.23 224.39-4.41 89.75-32.39 108.24l12.18 9s15.21-12.93 30.07-37.82c16.7-28 21.75-33.06 21.75-33.06l-5.54-11.34a24.91 24.91 0 0 1 -2-16c6-29.26 26.2-126.58 31.7-147.54 6.5-24.74 7-57.78-15.63-85.43s-45.37-10.44-45.37-10.44z"
        fill="url(#n)" />
    <path
        d="m1114.89 1803.46a1.71 1.71 0 0 0 1.73-1.47c.93-6.55 4.81-32.81 8-39.61 3.63-7.79 15.5-40.57 0-43.35 0 0-38.55 56.32-45.95 63.91s-16.74 2.66-16.74 2.66a27.85 27.85 0 0 0 -12.64 9.07 5.11 5.11 0 0 0 4 8.21l26 .24a18.25 18.25 0 0 0 17.13-11.51c4.57-11.41 12.42-28.16 21.57-35.58l-4.75 45.52a1.72 1.72 0 0 0 1.7 1.91z"
        fill="#333435" />
    <path
        d="m1056.81 1214.39s5.85 18.65-3.14 49.36l-55.76 194.73a6 6 0 0 0 3.77 7.33c16.68 6 71.51 22.91 146.36 17.75a8.5 8.5 0 0 0 7.75-6.61c4.93-22.2 21.76-98 25.22-113.51 13.2-59.3 27.94-123.25-36.9-161.92-29.89 12.8-57.76 20.35-87.3 12.87z"
        fill="#5c5e61" />
    <path
        d="m1160 1018.82s63.44 52.72 79.19 124.77-92.71 79.7-92.71 79.7-14.72-16.44-32.2-10.57-1.36-28.7 19.1-28.61 11 16.27 39.9 3.16c28.19-12.76 45.6-52.25-26.3-112.09a32.5 32.5 0 0 1 -9.5-12.94c-13.94-35.16-2.86-58.24 22.52-43.42z"
        fill="url(#o)" />
    <circle cx="513.35" cy="416.3" fill="#04995f" r="98.36"
        transform="matrix(.70710678 -.70710678 .70710678 .70710678 -144.01 484.93)" />
    <circle cx="513.35" cy="416.3" fill="#4fbb7d" r="95.09"
        transform="matrix(.88957588 -.45678743 .45678743 .88957588 -133.47 280.43)" />
    <path
        d="m434 382.92a3.88 3.88 0 0 1 -1.81-.38 4 4 0 0 1 -1.91-5.31 91.39 91.39 0 0 1 80.59-52.67 92.59 92.59 0 0 1 16.58 1 4 4 0 0 1 -1.22 7.9 85 85 0 0 0 -15.15-1 83.43 83.43 0 0 0 -73.57 48.09 4 4 0 0 1 -3.51 2.37z"
        fill="#fff" opacity=".68" />
    <circle cx="515.48" cy="418.32" fill="#fff" opacity=".68" r="80.48"
        transform="matrix(.92600242 -.37751757 .37751757 .92600242 -119.76 225.51)" />
    <path
        d="m509.2 478.34-.24-8.75a71.52 71.52 0 0 1 -24.7-4.66 5.07 5.07 0 0 1 -3-5.91l2-8.21a5.11 5.11 0 0 1 6.84-3.53 59.34 59.34 0 0 0 22.9 4.16c8.79-.24 15.26-3.39 15.09-9.5-.14-5.51-5.3-8.65-17.6-11.6-17.56-4.29-30.28-11.55-30.69-26.9-.38-13.85 9.47-24.7 27-28l-.24-8.75a5.11 5.11 0 0 1 5-5.24l5.14-.14a5.12 5.12 0 0 1 5.24 5l.21 7.86a64.84 64.84 0 0 1 19.56 3 5.08 5.08 0 0 1 3.34 6l-1.84 7.59a5.1 5.1 0 0 1 -6.63 3.62 52.85 52.85 0 0 0 -19.18-3c-10.43.28-13.29 4.68-13.19 8.55.13 4.77 6.48 7.88 20.14 11.68 19.53 5.29 27.79 13.12 28.18 27.57.36 13.25-9.15 25.44-28.14 28.93l.26 9.8a5.09 5.09 0 0 1 -5 5.23l-5.14.14a5.1 5.1 0 0 1 -5.31-4.94z"
        fill="#079b61" />
    <circle cx="462.79" cy="726.85" fill="#04995f" r="109.36"
        transform="matrix(.3033679 -.9528735 .9528735 .3033679 -370.19 947.35)" />
    <circle cx="462.79" cy="726.85" fill="#4fbb7d" r="105.72"
        transform="matrix(.70710678 -.70710678 .70710678 .70710678 -378.41 540.13)" />
    <path
        d="m374.52 687.85a2.61 2.61 0 0 1 -1.15-.24 2.55 2.55 0 0 1 -1.22-3.4 100.29 100.29 0 0 1 106-56.33 2.55 2.55 0 0 1 -.78 5 95.69 95.69 0 0 0 -17.19-1.08 94.63 94.63 0 0 0 -83.46 54.55 2.55 2.55 0 0 1 -2.2 1.5z"
        fill="#fff" opacity=".68" />
    <circle cx="465.15" cy="729.09" fill="#fff" opacity=".68" r="89.48"
        transform="matrix(.96987202 -.24361501 .24361501 .96987202 -163.56 135.24)" />
    <path
        d="m458.17 795.82-.26-9.73a79.28 79.28 0 0 1 -27.47-5.18 5.64 5.64 0 0 1 -3.29-6.57l2.23-9.13a5.67 5.67 0 0 1 7.6-3.92 66 66 0 0 0 25.36 4.63c9.77-.27 17-3.78 16.78-10.57-.16-6.12-5.89-9.61-19.57-12.89-19.52-4.78-33.66-12.85-34.12-29.91-.42-15.4 10.53-27.46 30-31.14l-.26-9.73a5.67 5.67 0 0 1 5.52-5.82l5.72-.16a5.68 5.68 0 0 1 5.82 5.52l.24 8.74a72.25 72.25 0 0 1 21.74 3.3 5.63 5.63 0 0 1 3.69 6.74l-2 8.44a5.66 5.66 0 0 1 -7.37 4 59 59 0 0 0 -21.33-3.28c-11.59.31-14.77 5.21-14.66 9.51.15 5.3 7.2 8.76 22.4 13 21.7 5.88 30.89 14.58 31.32 30.64.4 14.74-10.17 28.29-31.28 32.17l.29 10.89a5.68 5.68 0 0 1 -5.52 5.83l-5.71.15a5.67 5.67 0 0 1 -5.87-5.53z"
        fill="#079b61" />
    <circle cx="323.12" cy="532.94" fill="#04995f" r="98.43"
        transform="matrix(.99984154 -.01780142 .01780142 .99984154 -9.4 5.82)" />
    <circle cx="323.12" cy="532.94" fill="#4fbb7d" r="95.15"
        transform="matrix(.48190661 -.87622258 .87622258 .48190661 -299.57 559.29)" />
    <path
        d="m243.7 498.59a3.09 3.09 0 0 1 -1.38-.29 3 3 0 0 1 -1.45-4.05 90.49 90.49 0 0 1 79.8-52.16 92 92 0 0 1 16.43 1 3 3 0 0 1 -.94 6 85 85 0 0 0 -89.79 47.71 3 3 0 0 1 -2.67 1.79z"
        fill="#fff" opacity=".68" />
    <path d="m405.76 532.78a80.54 80.54 0 1 1 -82.68-78.33 80.55 80.55 0 0 1 82.68 78.33z"
        fill="#fff" opacity=".68" />
    <path
        d="m319 595-.24-8.76a71.59 71.59 0 0 1 -24.76-4.64 5.07 5.07 0 0 1 -3-5.91l2-8.22a5.11 5.11 0 0 1 6.84-3.53 59.44 59.44 0 0 0 22.83 4.17c8.79-.24 15.27-3.4 15.1-9.51-.15-5.52-5.3-8.66-17.61-11.61-17.57-4.3-30.3-11.56-30.71-26.91-.38-13.87 9.47-24.72 27-28l-.23-8.76a5.09 5.09 0 0 1 5-5.24l5.15-.14a5.1 5.1 0 0 1 5.24 5l.21 7.87a65.31 65.31 0 0 1 19.58 3 5.09 5.09 0 0 1 3.34 6.05l-1.85 7.6a5.09 5.09 0 0 1 -6.62 3.62 53.16 53.16 0 0 0 -19.2-3c-10.44.28-13.3 4.69-13.2 8.56.13 4.77 6.48 7.88 20.16 11.69 19.53 5.29 27.8 13.12 28.19 27.58.36 13.27-9.16 25.46-28.15 28.95l.26 9.81a5.11 5.11 0 0 1 -5 5.24l-5.14.14a5.11 5.11 0 0 1 -5.19-5.05z"
        fill="#079b61" />
</svg>