<svg viewBox="0 0 500 500" xmlns="http://www.w3.org/2000/svg">
    <path d="m10.46 323.88a3.73 3.73 0 0 0 -.43.3.88.88 0 0 1 .17-.12z" fill="#4eb77c" />
    <path
        d="m493.8 310.92a9 9 0 0 1 -2.87 4l-.38.29a8.7 8.7 0 0 1 -.89.53l-.34.17-.54.24c4.19 3.74 4.17 11.31-.95 13.51h-475.06c-2.5-1.56-3.16-3.63-1.95-6a11.57 11.57 0 0 1 -1.34-.3l-.64-.2a6.56 6.56 0 0 1 -1.5-.75l-.07-.05-.27-.16-.25-.2-.08-.07-.28-.27-.09-.1a4.8 4.8 0 0 1 -.55-.75l-.12-.21c-.06-.11-.11-.22-.16-.33a4.44 4.44 0 0 1 -.22-.61 1.82 1.82 0 0 1 -.07-.25 6.94 6.94 0 0 1 -.18-1.32c0-.12 0-.24 0-.37s0-.39 0-.58a6.3 6.3 0 0 1 0-.75 5 5 0 0 1 .08-.54 2.7 2.7 0 0 1 .08-.39 5.12 5.12 0 0 1 .15-.56c.07-.23.15-.46.24-.68.09-.21.19-.42.3-.62a3.57 3.57 0 0 1 .35-.6 2.73 2.73 0 0 1 .21-.3c.13-.19.28-.38.43-.56s.3-.32.46-.47.23-.21.35-.31l.27-.21 1.36-.83.4-.17.42-.16c.21-.08.42-.14.64-.2a3.88 3.88 0 0 1 -.45-.24 6.87 6.87 0 0 1 -1.29-.83l-.39-.35a7.24 7.24 0 0 1 -1.44-1.88 6.53 6.53 0 0 1 -.39-.85c-.05-.14-.1-.27-.14-.4s-.12-.39-.17-.59 0-.24-.07-.36a.64.64 0 0 0 0-.07l-.06-.43c0-.14 0-.28 0-.42s0-.36 0-.54a6.45 6.45 0 0 1 0-.76.25.25 0 0 1 0-.08 5.93 5.93 0 0 1 .1-.72s0 0 0-.07c0-.19.08-.39.13-.58l.06-.21a0 0 0 0 0 0 0s0-.05 0-.07c.07-.23.15-.45.24-.68s.2-.47.31-.69.19-.35.28-.51a7.81 7.81 0 0 1 .5-.73c.11-.14.21-.27.33-.4a3.59 3.59 0 0 1 .39-.39 4.17 4.17 0 0 1 .38-.34l.07-.05a4.91 4.91 0 0 1 .44-.31 2.65 2.65 0 0 1 .43-.24l.51-.26.32-.13a1.75 1.75 0 0 1 .32-.12l1.44-.36a3.89 3.89 0 0 1 -.22-.79 4.19 4.19 0 0 1 0-1.58c0-.13.06-.26.1-.39a3 3 0 0 1 .13-.39 1.73 1.73 0 0 1 .16-.37c0-.1.1-.2.16-.3a2.39 2.39 0 0 1 .21-.34 2.94 2.94 0 0 1 .31-.41.7.7 0 0 1 .14-.16 1.93 1.93 0 0 1 .27-.3l.16-.16a5.49 5.49 0 0 1 .52-.44 5 5 0 0 1 .47-.33 5.3 5.3 0 0 1 .57-.33 5.38 5.38 0 0 1 .6-.28 6.79 6.79 0 0 1 .67-.24l.38-.12.29-.07.72-.15a7.57 7.57 0 0 1 .94-.07h.06a6.44 6.44 0 0 1 1.72.23h.07a6.82 6.82 0 0 1 1.54.68 2.61 2.61 0 0 1 .28.17 2.26 2.26 0 0 1 .26.16l-.34-.28-.11-.09a3.65 3.65 0 0 1 -.3-.27.93.93 0 0 1 -.14-.14l-.26-.26-.17-.18-.11-.13a3.88 3.88 0 0 1 -.26-.31 2.35 2.35 0 0 1 -.19-.25l-.18-.25-.16-.24c-.06-.09-.12-.18-.17-.27l-.15-.27c-.06-.12-.12-.23-.17-.35a.54.54 0 0 1 0-.11c0-.09-.07-.19-.11-.28l-.09-.26a2.68 2.68 0 0 0 -.07-.27 2.21 2.21 0 0 1 0-.25 2.35 2.35 0 0 1 -.05-.37c0-.06 0-.12 0-.17s0-.16 0-.24a1 1 0 0 0 0-.17.58.58 0 0 1 0-.19 1.36 1.36 0 0 1 .06-.29.84.84 0 0 1 .05-.17.51.51 0 0 1 .07-.17 2.07 2.07 0 0 1 .15-.34 2.1 2.1 0 0 1 .22-.33l.11-.15a3.57 3.57 0 0 1 .42-.46c-2.54.12-5.33-.29-7-2.15-.12-.13-.23-.27-.34-.41a5.5 5.5 0 0 1 -.58-.94 4.47 4.47 0 0 1 -.46-2 4.07 4.07 0 0 1 0-.5 3.43 3.43 0 0 1 .08-.48 5.61 5.61 0 0 1 .41-1.2 2.36 2.36 0 0 1 -.46-.17 2.91 2.91 0 0 1 -.42-.23l-.23-.16a4 4 0 0 1 -.67-.58 6.07 6.07 0 0 1 -.8-1c-.12-.18-.23-.38-.34-.58s-.19-.39-.28-.6v-.05a6.31 6.31 0 0 1 -.42-1.85 10.94 10.94 0 0 1 0-1.81 9.38 9.38 0 0 1 .31-1.92 5.58 5.58 0 0 1 .18-.58c.06-.17.12-.34.19-.51v-.08q.11-.25.24-.51c.08-.16.17-.32.26-.47v-.07c.08-.14.18-.28.27-.41l.08-.1a4.94 4.94 0 0 1 .36-.44 3 3 0 0 1 .3-.32 3.07 3.07 0 0 1 .26-.25c.11-.1.22-.2.34-.29l.4-.28.12-.08c.15-.1.31-.19.47-.28l.84-.41c-.31-.27-.6-.55-.88-.84l-.39-.43-.33-.39c-.13-.17-.26-.33-.37-.5a7.33 7.33 0 0 1 -.58-.95 4.44 4.44 0 0 1 -.24-.49l-.15-.36a6.19 6.19 0 0 1 -.32-1.06c-.06-.26-.1-.53-.14-.8s0-.27 0-.41 0-.32 0-.48a9.07 9.07 0 0 1 .11-1.44 7.09 7.09 0 0 1 .28-1.19c0-.16.1-.31.16-.46s.17-.43.27-.65v-.06l.19-.39a11.47 11.47 0 0 1 .91-1.43l.34-.44.36-.42a10.33 10.33 0 0 1 .74-.74v-.05l1-.77a7.47 7.47 0 0 1 1.26-.75 5 5 0 0 1 .48-.21l.37-.14q.3-.1.6-.18a5.58 5.58 0 0 1 -1.09-1.6c0-.11-.09-.22-.13-.34a3.62 3.62 0 0 1 -.13-.35v-.12a3.17 3.17 0 0 1 -.12-.44 2.88 2.88 0 0 1 -.09-.4s0 0 0 0c0-.19-.07-.37-.09-.55 0 0 0-.06 0-.08a4.93 4.93 0 0 1 -.05-.54c0-.21 0-.41 0-.61s0-.58 0-.87c0-.23 0-.45.07-.67v-.21a.5.5 0 0 1 0-.12 13.08 13.08 0 0 1 .3-1.49q.09-.37.21-.72c.07-.21.14-.42.21-.61a8.51 8.51 0 0 1 .55-1.16c2.22-3.73 5.53-6.09 9.85-5.72a8.16 8.16 0 0 1 -.6-1.59c0-.13-.07-.25-.1-.38l-.09-.44v-.19a7.3 7.3 0 0 1 -.1-.94c0-.23 0-.45 0-.67s0-.4 0-.6 0-.34 0-.52 0-.2 0-.3a9.43 9.43 0 0 1 .36-1.64 9.17 9.17 0 0 1 1.93-3.47 5.9 5.9 0 0 1 .49-.51c.2-.19.41-.37.62-.55s.44-.36.67-.52h.05a11.89 11.89 0 0 1 9-2.32c-.82-5.54 4-9.48 6.07-10.68 2.62-1.49 7.51-3.45 12.83-.18 1-3.47 4-6.37 12.78-6.35s10.85 6.34 10.85 6.5c2.7-.89 6.18-1.93 8.73-.07 2.33 1.71 2.63 5 2.71 7.91a6 6 0 0 1 10.78 1.2 6.76 6.76 0 0 1 10-6.83 7.25 7.25 0 0 1 11.6-7.85c-.07-.05 0-.27 0-.32a1.93 1.93 0 0 0 .13-.47 5.76 5.76 0 0 1 .33-1.07 6 6 0 0 1 1.12-2 5.19 5.19 0 0 1 2.84-1.51 9.58 9.58 0 0 1 1.85-.17h.92.46a12.08 12.08 0 0 1 1.29.29 6.48 6.48 0 0 1 11.5-.93 23.72 23.72 0 0 1 2.25-2.55 8.73 8.73 0 0 1 9.94-.83l.33.21a9.73 9.73 0 0 1 3.55 4.2 10.62 10.62 0 0 1 .81 2.68 7.5 7.5 0 0 1 .13 1.42 1.48 1.48 0 0 1 -.13.5c-.11.27-.15.89-.37 1a12 12 0 0 1 6.59-2.1c2.34.12 4.74 1.76 5 4.09.31-1.61.95-3.33 2.38-4.12a4.52 4.52 0 0 1 3.69-.1 12.8 12.8 0 0 1 3.24 2 10.57 10.57 0 0 1 1.18-4.68 5.07 5.07 0 0 1 3.23-2.26 8.89 8.89 0 0 1 1.42-.42 8 8 0 0 1 3.11.31 6.38 6.38 0 0 1 2.07 1 4.66 4.66 0 0 1 .84.76 3.48 3.48 0 0 1 .54.72 6.47 6.47 0 0 1 6.89-2.51c3.52 1.07 4.44 4.05 3.63 7.26.08-.32.78-.77 1-1a5.64 5.64 0 0 1 1.33-.7 5.37 5.37 0 0 1 3.05-.13c.47.11.82.36 1.28.21a5.12 5.12 0 0 1 .56-.15 6.25 6.25 0 0 1 2.2-.05 7 7 0 0 1 3.91 2 6 6 0 0 1 1.59 2.82 5.83 5.83 0 0 1 5.84-4.43 7.58 7.58 0 0 1 6.3 4.25 3.09 3.09 0 0 1 5.44-1.84 13.09 13.09 0 0 1 4.08-10.78 12.46 12.46 0 0 1 11.18-2.91 11.91 11.91 0 0 1 8.42 7.74c.33-1.58 1.75-2.66 3.13-3.48a6 6 0 0 1 3.56-1.1c2.33.25 3.67 2.76 4.34 5a3.47 3.47 0 0 1 3.58-2.3 5 5 0 0 1 3.7 2.47 10 10 0 0 1 11.84-7.16 5.15 5.15 0 0 1 2.47 1.79 8.78 8.78 0 0 1 1.43 3.85 3.19 3.19 0 0 1 4.28-2c1.41.44 1.8 1.27 2.29 2.62.86-2.14 3.85-3.59 5.94-3.38 1.59.15 2.63 1.82 3.08 3.3s-.05 2.64-.21 4a4.92 4.92 0 0 1 6.08-1c2.09-7.61 13.15-6.8 14.88-.62a4.53 4.53 0 0 1 6.56.75c.89-3.77 6.71-2.52 8.61-.24-2.52-4-3.14-8.9 1.47-11.67 3.32-2 7.38-2.26 9.45 1.49-.62-7.19 8.69-8.48 11.3-2.35 5.6-5.3 16.14 2.46 10.94 9.13 5.5-.35 9.67 8.51 3.72 10.93a3.47 3.47 0 0 1 2.9 4.52 6.46 6.46 0 0 1 8.81-1.92 4.47 4.47 0 0 1 3.33-8c-2.52-11.73 16.28-17 21.76-8 3.1-7.66 17.41-1.9 14.35 5.32a6.6 6.6 0 0 1 3.62-.19l.35.08.35.09a8.8 8.8 0 0 1 1.45.55 4.8 4.8 0 0 1 .6.3 8.18 8.18 0 0 1 .92.57 9.52 9.52 0 0 1 .88.69l.28.24a10.73 10.73 0 0 1 1.23 1.4 2.51 2.51 0 0 1 .2.29c.07.09.13.2.2.31a8.41 8.41 0 0 1 .6 1.29 2 2 0 0 1 .09.26c0 .08.05.15.07.23l.09.39a6.21 6.21 0 0 1 -.94 4.66c6.09-.08 8.82 8.74 3.72 12.6 3.75.92 5 7.77.59 11.19 2.53 0 6.48 4.89 6.36 7.51 2.17-4.78 11.8-4.39 12.06 2.41 6-2.31 12 2.16 9.82 8.61 6.76 1.33 7.8 8.54 5.69 13.8 8.62.8 10.41 13.62 4.47 19.58.23.07.45.15.67.24l.41.17.3.15.4.2a8 8 0 0 1 1.63 1.16 4.27 4.27 0 0 1 .38.36 5.76 5.76 0 0 1 .41.44 10.65 10.65 0 0 1 1 1.47 10.25 10.25 0 0 1 .76 1.65 11.29 11.29 0 0 1 .35 1.17c1.16 4.63-.47 10.18-4.47 13 2.98 1.54 4.18 6.34 2.73 10.36z"
        fill="#e6e6e6" />
    <g opacity=".1">
        <path
            d="m427.82 209a6.9 6.9 0 0 0 -9.74-.58 7 7 0 0 0 -1.27 1.53 6.89 6.89 0 0 0 -11.17 4 8.21 8.21 0 0 1 13.65 1.63 5.87 5.87 0 0 0 0-1.18 7 7 0 0 0 -.93-2.66 6.25 6.25 0 0 1 .71-.75 8.2 8.2 0 0 1 9.49-1 5.66 5.66 0 0 0 -.74-.99z" />
        <path
            d="m356.06 197.08a5.32 5.32 0 0 1 7.51-.45 5 5 0 0 1 1 1.19 5.32 5.32 0 0 1 8.62 3.05 6.4 6.4 0 0 0 -4-2.22 6.32 6.32 0 0 0 -6.49 3.47 4.67 4.67 0 0 1 0-.91 5.28 5.28 0 0 1 .72-2.05 7.44 7.44 0 0 0 -.55-.58 6.33 6.33 0 0 0 -7.32-.77 4.58 4.58 0 0 1 .51-.73z" />
        <path
            d="m437.45 235.74c2.25-1 5.92-1.22 8 2.34a5.72 5.72 0 0 1 .33 4.58 10.81 10.81 0 0 1 -.78 1.56 1.51 1.51 0 0 0 -.18.44c0 .63.92.72 1.38 1a7 7 0 0 1 3.19 9.33 8.34 8.34 0 0 1 13.61 7.64c2.62-2.89 7.33-3.14 10.8-1.35a7.75 7.75 0 0 1 3.5 3.29 6.06 6.06 0 0 1 -4.09 8.26 10.55 10.55 0 0 1 8.21 5.63 7.89 7.89 0 0 1 -2 9.39c-2.93 2.23-7.08 1.72-10.63.74a4 4 0 0 1 -.45 5 6.7 6.7 0 0 1 -4.95 1.84c2.51-.36 5.21-.34 7.41.91s3.11 3.59 3.1 6.08a3.47 3.47 0 0 1 -1.4 2.46c-1.06 1-2.23 1.94-3.21 3.05 2.82 1.86 5.64 3.09 6.61 6.81 1.19 4.57-2.55 6.65-5.45 9.15 6.28.44 9.41 7.48 7.85 12.92h6.94a6.43 6.43 0 0 0 .19-6.52c7.41-.64 8.08-9.84 3.31-14.09l.55-.24.34-.17a9.77 9.77 0 0 0 .88-.53l.38-.29a8.58 8.58 0 0 0 2.87-4c1.46-4 .25-8.82-2.64-10.2 4-2.85 5.63-8.4 4.49-13a7.09 7.09 0 0 0 -.36-1.19 9.86 9.86 0 0 0 -.76-1.65 7.89 7.89 0 0 0 -1-1.47 5.86 5.86 0 0 0 -.42-.44 3.24 3.24 0 0 0 -.38-.36 8.22 8.22 0 0 0 -1.62-1.16c-.14-.07-.26-.14-.41-.2a1.4 1.4 0 0 0 -.3-.15 3.89 3.89 0 0 0 -.41-.17 6.61 6.61 0 0 0 -.67-.24c6-6 4.15-18.78-4.47-19.58 2.12-5.26 1.08-12.47-5.69-13.8 2.14-6.45-3.82-10.92-9.81-8.61-.26-6.8-9.9-7.19-12.06-2.41.11-2.62-3.84-7.5-6.37-7.51 4.38-3.42 3.16-10.27-.59-11.19 5.1-3.86 2.37-12.68-3.71-12.6a6.21 6.21 0 0 0 .93-4.66l-.09-.39c0-.08-.05-.15-.07-.23a2 2 0 0 0 -.08-.26 8.46 8.46 0 0 0 -.61-1.29 1.65 1.65 0 0 0 -.2-.31l-.19-.29a10.11 10.11 0 0 0 -1.24-1.4l-.28-.24a7.43 7.43 0 0 0 -.88-.69 10 10 0 0 0 -.92-.57c-.19-.11-.4-.21-.6-.3a8.48 8.48 0 0 0 -1.45-.55 2.25 2.25 0 0 0 -.35-.09l-.35-.08c1.76 2 3.36 4.56 2.08 7.25-1.14 2.41-4.24 2.83-6.3 3.84 4.88 1.65 7.13 6.55 3.49 10.84 5 .63 5.62 7.24 3.63 9.93-1.23-1.07-3.76-1.31-5.62-.95-2.5.48-3.84 1.73-6.08 4.25 4.37-3.5 8.86 3.04 6.05 6.89z" />
        <path
            d="m61.37 259c-5.64 2.54-7.63 4.49-7.5 11-2.11-3.2-9.87-1.47-11.87 1s-1.9 7.93.46 10.15c-7.35.7-8.59 7.23-6.44 12.89-3.36-.23-7.16 1.93-8.14 5.1-.72 2.33-.94 7.31 2.82 6.58-3.81 2.27-6.86 4.84-6.35 9.83.79 7.71 7 6.84 12.53 5.68.18 4.48 4 7.26 8.32 8.49h-32.43c-2.5-1.56-3.16-3.63-1.95-6a11.57 11.57 0 0 1 -1.34-.3c-.23-.06-.44-.13-.64-.2a6.56 6.56 0 0 1 -1.5-.75l-.07-.05-.27-.22-.25-.2-.08-.07-.28-.27-.06-.06a4.8 4.8 0 0 1 -.55-.75l-.06-.09-.06-.12c-.06-.11-.11-.22-.16-.33a4.44 4.44 0 0 1 -.22-.61 1.82 1.82 0 0 1 -.07-.25 6.94 6.94 0 0 1 -.21-1.36c0-.12 0-.24 0-.37s0-.39 0-.58a6.3 6.3 0 0 1 0-.75 5 5 0 0 1 .08-.54 2.7 2.7 0 0 1 .08-.39 5.12 5.12 0 0 1 .15-.56c.07-.23.15-.46.24-.68.09-.21.19-.42.3-.62a3.57 3.57 0 0 1 .35-.6 2.73 2.73 0 0 1 .21-.3c.13-.19.28-.38.43-.56s.3-.32.46-.47.23-.21.35-.31l.27-.21 1.36-.83.4-.17.42-.16c.21-.08.42-.14.64-.2a3.88 3.88 0 0 1 -.45-.24c-.15-.08-.29-.17-.43-.26a8.13 8.13 0 0 1 -.82-.59l-.39-.35a7.9 7.9 0 0 1 -1.44-1.88 6.53 6.53 0 0 1 -.39-.85c-.05-.14-.1-.27-.14-.4s-.12-.39-.17-.59 0-.24-.07-.36a.64.64 0 0 0 0-.07l-.06-.43c0-.14 0-.28 0-.42s0-.36 0-.54a6.45 6.45 0 0 1 0-.76.25.25 0 0 1 0-.08 5.93 5.93 0 0 1 .1-.72s0 0 0-.07c0-.19.08-.39.13-.58l.06-.21a0 0 0 0 0 0 0s0-.05 0-.07c.07-.23.15-.45.24-.68s.2-.47.31-.69.19-.35.28-.51a7.81 7.81 0 0 1 .5-.73c.11-.14.21-.27.33-.4a3.59 3.59 0 0 1 .39-.39c.12-.12.25-.23.38-.34l.07-.05a4.91 4.91 0 0 1 .44-.31 2.65 2.65 0 0 1 .39-.22l.51-.26.32-.13a1.75 1.75 0 0 1 .32-.12l1.44-.36a3.89 3.89 0 0 1 -.22-.79 3.82 3.82 0 0 1 0-1.58c0-.13.06-.26.1-.39a2.29 2.29 0 0 1 .08-.28.54.54 0 0 1 .05-.11 1.73 1.73 0 0 1 .16-.37c0-.1.1-.2.16-.3a2.39 2.39 0 0 1 .21-.34 2.94 2.94 0 0 1 .31-.41.7.7 0 0 1 .14-.16 1.93 1.93 0 0 1 .27-.3l.16-.16a5.49 5.49 0 0 1 .52-.44 5 5 0 0 1 .47-.33 5.3 5.3 0 0 1 .57-.33 5.38 5.38 0 0 1 .6-.28l.29-.1.38-.14.38-.12.29-.07.72-.15h.28a5.31 5.31 0 0 1 .68-.05h.26c.23 0 .45 0 .66.05l.25.05a4.26 4.26 0 0 1 .62.13l.26.09a5.37 5.37 0 0 1 .56.21l.27.13a5 5 0 0 1 .51.27 2.61 2.61 0 0 1 .28.17c.2.13.4.26.59.41l-.33-.25-.34-.28-.11-.09a3.65 3.65 0 0 1 -.3-.27.93.93 0 0 1 -.14-.14l-.26-.26-.17-.18-.11-.13-.11-.12-.15-.19a2.35 2.35 0 0 1 -.19-.25l-.18-.25-.16-.24c-.06-.09-.12-.18-.17-.27l-.12-.2v-.07l-.11-.21-.06-.14a.54.54 0 0 1 0-.11c0-.09-.07-.19-.11-.28l-.09-.26a2.68 2.68 0 0 0 -.07-.27 2.21 2.21 0 0 1 0-.25 1.15 1.15 0 0 1 0-.26.43.43 0 0 0 0-.11c0-.06 0-.12 0-.17s0-.16 0-.24a1 1 0 0 0 0-.17s0-.09 0-.13a.14.14 0 0 1 0-.06.58.58 0 0 1 0-.14v-.15a.84.84 0 0 1 .05-.17.51.51 0 0 1 .07-.17 2.07 2.07 0 0 1 .15-.34.83.83 0 0 1 .08-.12l.14-.21.11-.15a3.57 3.57 0 0 1 .42-.46c-2.54.12-5.33-.29-7-2.15-.12-.13-.23-.27-.34-.41a5.5 5.5 0 0 1 -.58-.94 4.47 4.47 0 0 1 -.46-2 4.07 4.07 0 0 1 0-.5 3.43 3.43 0 0 1 .08-.48 5.61 5.61 0 0 1 .41-1.2 2.36 2.36 0 0 1 -.46-.17 2.91 2.91 0 0 1 -.42-.23l-.23-.16a5.77 5.77 0 0 1 -.67-.58 7.34 7.34 0 0 1 -.8-1c-.12-.18-.23-.38-.34-.58s-.19-.39-.28-.6v-.05a6.31 6.31 0 0 1 -.42-1.85 10.94 10.94 0 0 1 0-1.81 10.12 10.12 0 0 1 .31-1.92 5.58 5.58 0 0 1 .18-.58c.06-.17.12-.34.19-.51v-.08q.11-.25.24-.51c.08-.16.17-.32.26-.47v-.07c.08-.14.18-.28.27-.41l.08-.1a4.94 4.94 0 0 1 .36-.44 3 3 0 0 1 .3-.32 3.07 3.07 0 0 1 .26-.25c.11-.1.22-.2.34-.29l.4-.28.12-.08c.15-.1.31-.19.47-.28l.84-.41c-.31-.27-.6-.55-.88-.84l-.39-.43-.33-.39c-.13-.17-.26-.33-.37-.5a7.79 7.79 0 0 1 -.58-.95 4.44 4.44 0 0 1 -.24-.49l-.15-.36a8.06 8.06 0 0 1 -.32-1.06c-.06-.26-.1-.53-.14-.8s0-.27 0-.41 0-.32 0-.48a9.07 9.07 0 0 1 .11-1.44 7.09 7.09 0 0 1 .28-1.19c0-.16.1-.31.16-.46s.17-.43.27-.65v-.06l.19-.39a11.47 11.47 0 0 1 .91-1.43l.34-.44.36-.42a10.33 10.33 0 0 1 .74-.74v-.05l1-.77a8.54 8.54 0 0 1 1.26-.75 5 5 0 0 1 .48-.21l.37-.14q.3-.1.6-.18a5.58 5.58 0 0 1 -1.09-1.6c0-.11-.09-.22-.13-.34a3.62 3.62 0 0 1 -.13-.35v-.12a3.17 3.17 0 0 1 -.12-.44 2.88 2.88 0 0 1 -.09-.4s0 0 0 0c0-.19-.07-.37-.09-.55 0 0 0-.06 0-.08a4.93 4.93 0 0 1 -.05-.54c0-.21 0-.41 0-.61s0-.58 0-.87c0-.23 0-.45.07-.67v-.21a.5.5 0 0 1 0-.12 13.08 13.08 0 0 1 .3-1.49c.07-.25.13-.49.21-.72s.14-.42.21-.61a8.51 8.51 0 0 1 .55-1.16c2.22-3.73 5.53-6.09 9.85-5.72a8.16 8.16 0 0 1 -.6-1.59c0-.13-.07-.25-.1-.38l-.09-.44v-.19a7.3 7.3 0 0 1 -.1-.94c0-.23 0-.45 0-.67s0-.4 0-.6 0-.34 0-.52 0-.2 0-.3a11.72 11.72 0 0 1 .36-1.64 10.77 10.77 0 0 1 .74-1.76 9.37 9.37 0 0 1 1.19-1.71c.16-.17.32-.34.5-.51s.41-.37.62-.55.44-.36.67-.52h.05a13.3 13.3 0 0 1 1.4-.89c-2.54 4.6.66 8.47 6.13 11.3a9.58 9.58 0 0 0 -7.17 6.07c-1.17 3.93 1.37 6.11 4.55 7.95-6.86-.39-13.11 10.75-4.33 10.54-4.59 6.37 4.25 10.26 9 5-.29 2.19 1.32 3.43 3.25 3.94 4 1 6.7-2.18 8.7-4.88-.3 4.2 5.77 5.16 9.14 4.95z" />
        <path d="m55.18 329.67h.1z" />
        <path
            d="m132.71 228.06a6.9 6.9 0 0 0 -9.58-1.84 6.78 6.78 0 0 0 -1.46 1.36 6.89 6.89 0 0 0 -11.59 2.47 8.21 8.21 0 0 1 13.32 3.39 5.69 5.69 0 0 0 .11-1.18 6.88 6.88 0 0 0 -.57-2.76 7.31 7.31 0 0 1 .8-.65 8.2 8.2 0 0 1 9.54.24 5.24 5.24 0 0 0 -.57-1.03z" />
        <path
            d="m138.57 203.81a5.54 5.54 0 0 1 7.23-3 5.42 5.42 0 0 1 1.37.84 5.53 5.53 0 0 1 9.51.07 6.6 6.6 0 0 0 -9.93 4.81 4.47 4.47 0 0 1 -.27-.9 5.42 5.42 0 0 1 0-2.27 6.45 6.45 0 0 0 -.74-.38 6.57 6.57 0 0 0 -7.46 1.73 4.53 4.53 0 0 1 .29-.9z" />
        <path
            d="m192.89 204a4.23 4.23 0 0 1 6-.29 4.12 4.12 0 0 1 .77.95 4.23 4.23 0 0 1 6.83 2.51 5 5 0 0 0 -8.39.9 3.5 3.5 0 0 1 0-.72 4.09 4.09 0 0 1 .59-1.63 4.69 4.69 0 0 0 -.43-.47 5 5 0 0 0 -5.82-.67 2.64 2.64 0 0 1 .45-.58z" />
    </g>
    <ellipse cx="250" cy="348.17" fill="#f5f5f5" rx="240.88" ry="139.07" />
    <path d="m92.18 332.3c4.83 16.52 2.47 38.32 2.47 38.32l3.43-2.42c.38-23.85-5.9-35.9-5.9-35.9z"
        fill="#4eb77c" />
    <path d="m92.18 332.3c4.83 16.52 2.47 38.32 2.47 38.32l3.43-2.42c.38-23.85-5.9-35.9-5.9-35.9z"
        opacity=".15" />
    <path d="m96.4 369.2v.19l1.69-1.19c.38-23.85-5.9-35.9-5.9-35.9 3.57 7.89 5.2 27.56 4.21 36.9z"
        opacity=".15" />
    <path
        d="m94.65 370.62s-2.9-15.12-9.85-27.74-14.74-17.83-14.74-17.83 9.22 3.22 17.76 16.69a90.8 90.8 0 0 1 11.32 25.7z"
        fill="#4eb77c" />
    <path
        d="m94.65 370.62s-2.9-15.12-9.85-27.74-14.74-17.83-14.74-17.83 9.22 3.22 17.76 16.69a90.8 90.8 0 0 1 11.32 25.7z"
        opacity=".2" />
    <path
        d="m97 369 2.13-1.51a90.8 90.8 0 0 0 -11.32-25.7c-8.54-13.47-17.76-16.69-17.76-16.69 9.15 4.71 22.32 21.9 26.95 43.9z"
        opacity=".1" />
    <path d="m94.65 370.62s-3.65-12.31-20.22-21.33c0 0 15.25 4.32 23.65 18.91z" fill="#4eb77c" />
    <path
        d="m96.4 369.2.07.13 1.61-1.13c-8.4-14.59-23.65-18.91-23.65-18.91 7.63 3.52 17.1 9.82 21.97 19.91z"
        opacity=".1" />
    <path
        d="m418.87 51.08c-7.67-2.94-16.13 3.35-21.68 11.93-4.93-6.18-17.08-13.37-23.6-7.38 8.78-2.79 17.62 2.59 22.69 9.56.35.44 1.43 1 1.9.12 5.31-9.57 13.55-14.53 20.69-14.23z"
        fill="#455a64" />
    <path
        d="m446.77 72.16c-6.19-1.54-12 6-13.59 12.08-4.38-4.29-11.43-8.95-17.26-5.08 7.16-1.74 12.2 2 16.77 6.85.31.31 1.3.65 1.48-.09 1.68-7.01 7.06-13.32 12.6-13.76z"
        fill="#455a64" />
    <path
        d="m252.2 268.07 163.14 94.19a6.63 6.63 0 0 0 6 0l50.38-29.08c1.66-1 1.66-2.51 0-3.47l-163.15-94.2a6.69 6.69 0 0 0 -6 0l-50.37 29.09c-1.66.96-1.66 2.51 0 3.47z"
        fill="#ebebeb" />
    <ellipse cx="158.44" cy="401.51" fill="#ebebeb" rx="86.86" ry="50.15" />
    <path
        d="m343.38 273a3.49 3.49 0 0 0 1.76-.47l37.91-21.89a13.46 13.46 0 0 0 6.72-11.64v-43.8a3.52 3.52 0 0 0 -7 0v43.8a6.42 6.42 0 0 1 -3.2 5.55l-37.91 21.89a3.51 3.51 0 0 0 1.76 6.56z"
        fill="#e0e0e0" />
    <path
        d="m420.78 316.68a3.53 3.53 0 0 0 1.76-.48l37.91-21.89a13.48 13.48 0 0 0 6.72-11.63v-43.78a3.52 3.52 0 0 0 -7 0v43.78a6.42 6.42 0 0 1 -3.2 5.54l-37.97 21.89a3.52 3.52 0 0 0 1.76 6.57z"
        fill="#e0e0e0" />
    <path
        d="m268.65 229a3.4 3.4 0 0 0 1.75-.48l37.91-21.88a13.48 13.48 0 0 0 6.69-11.64v-43.82a3.52 3.52 0 1 0 -7 0v43.82a6.4 6.4 0 0 1 -3.2 5.54l-37.91 21.89a3.52 3.52 0 0 0 1.77 6.57z"
        fill="#e0e0e0" />
    <path
        d="m414.22 312.32v40.51a2 2 0 0 0 1.17 1.63 6.25 6.25 0 0 0 5.65 0 2 2 0 0 0 1.17-1.63v-40.51z"
        fill="#e0e0e0" />
    <path
        d="m447.66 293.27v40.51a2 2 0 0 0 1.17 1.63 6.19 6.19 0 0 0 5.65 0 2 2 0 0 0 1.17-1.63v-40.51z"
        fill="#e0e0e0" />
    <path
        d="m262.22 224.55v40.52a2 2 0 0 0 1.17 1.63 6.25 6.25 0 0 0 5.65 0 2 2 0 0 0 1.17-1.63v-40.52z"
        fill="#e0e0e0" />
    <path
        d="m295.65 205.5v40.5a2 2 0 0 0 1.18 1.63 6.25 6.25 0 0 0 5.65 0 2 2 0 0 0 1.17-1.63v-40.5z"
        fill="#e0e0e0" />
    <path
        d="m475 248.83.71-.4a4.51 4.51 0 0 0 2-3.52v-6.31a4.49 4.49 0 0 0 -2-3.52l-167.11-96.48a4.47 4.47 0 0 0 -4.06 0l-.7.41a4.45 4.45 0 0 0 -2 3.51v6.31a4.45 4.45 0 0 0 2 3.52l167.1 96.48a4.47 4.47 0 0 0 4.06 0z"
        fill="#fafafa" />
    <path
        d="m468.21 241.75 8.93-5.15a4.1 4.1 0 0 1 .6 2v6.31a4.51 4.51 0 0 1 -2 3.52l-.71.4a4.47 4.47 0 0 1 -4.06 0l-2.73-1.58z"
        fill="#e0e0e0" />
    <path
        d="m470.94 237.83-167.1-96.48c-1.13-.65-2-.12-2 1.17v6.31a4.45 4.45 0 0 0 2 3.52l167.1 96.48c1.12.65 2 .12 2-1.17v-6.31a4.49 4.49 0 0 0 -2-3.52z"
        fill="#f0f0f0" />
    <path
        d="m475 268.12.71-.4a4.49 4.49 0 0 0 2-3.52v-6.31a4.51 4.51 0 0 0 -2-3.52l-167.11-96.47a4.47 4.47 0 0 0 -4.06 0l-.7.4a4.47 4.47 0 0 0 -2 3.52v6.31a4.48 4.48 0 0 0 2 3.52l167.1 96.47a4.47 4.47 0 0 0 4.06 0z"
        fill="#fafafa" />
    <path
        d="m468.21 261.05 8.93-5.16a4.13 4.13 0 0 1 .6 2v6.31a4.49 4.49 0 0 1 -2 3.52l-.71.4a4.47 4.47 0 0 1 -4.06 0l-2.73-1.57z"
        fill="#e0e0e0" />
    <path
        d="m470.94 257.12-167.1-96.47c-1.13-.65-2-.13-2 1.17v6.31a4.48 4.48 0 0 0 2 3.52l167.1 96.47c1.12.65 2 .13 2-1.17v-6.31a4.51 4.51 0 0 0 -2-3.52z"
        fill="#f0f0f0" />
    <path
        d="m475 287.42.71-.41a4.47 4.47 0 0 0 2-3.51v-6.31a4.48 4.48 0 0 0 -2-3.52l-167.11-96.48a4.47 4.47 0 0 0 -4.06 0l-.7.4a4.48 4.48 0 0 0 -2 3.52v6.31a4.47 4.47 0 0 0 2 3.52l167.1 96.48a4.47 4.47 0 0 0 4.06 0z"
        fill="#fafafa" />
    <path
        d="m468.21 280.34 8.93-5.16a4.17 4.17 0 0 1 .6 2v6.31a4.47 4.47 0 0 1 -2 3.51l-.71.41a4.47 4.47 0 0 1 -4.06 0l-2.73-1.58z"
        fill="#e0e0e0" />
    <path
        d="m470.94 276.42-167.1-96.48c-1.13-.65-2-.12-2 1.17v6.31a4.47 4.47 0 0 0 2 3.52l167.1 96.48c1.12.65 2 .12 2-1.17v-6.31a4.48 4.48 0 0 0 -2-3.52z"
        fill="#f0f0f0" />
    <path
        d="m468.21 299.1v.81a4.51 4.51 0 0 1 -2 3.52l-5.47 3.15a4.47 4.47 0 0 1 -4.06 0l-167.1-96.47a4.49 4.49 0 0 1 -2-3.52v-.81a4.48 4.48 0 0 1 2-3.52l5.42-3.16a4.53 4.53 0 0 1 4.06 0l167.11 96.48a4.49 4.49 0 0 1 2.04 3.52z"
        fill="#f0f0f0" />
    <path
        d="m458.68 296.75v10.32a4.07 4.07 0 0 0 2-.49l5.47-3.15a4.51 4.51 0 0 0 2-3.52v-.81a4.49 4.49 0 0 0 -2-3.52l-2.7-1.58z"
        fill="#e0e0e0" />
    <path
        d="m456.65 301.08-167.1-96.48a1.23 1.23 0 0 1 0-2.34l5.45-3.16a4.53 4.53 0 0 1 4.06 0l167.11 96.48a1.24 1.24 0 0 1 0 2.35l-5.47 3.15a4.47 4.47 0 0 1 -4.05 0z"
        fill="#fafafa" />
    <path
        d="m451.54 308.73v.81a4.47 4.47 0 0 1 -2 3.51l-5.54 3.16a4.47 4.47 0 0 1 -4.06 0l-167.07-96.48a4.49 4.49 0 0 1 -2-3.52v-.81a4.47 4.47 0 0 1 2-3.51l5.47-3.16a4.47 4.47 0 0 1 4.06 0l167.11 96.48a4.49 4.49 0 0 1 2.03 3.52z"
        fill="#f0f0f0" />
    <path
        d="m442 306.38v10.31a4.2 4.2 0 0 0 2-.48l5.47-3.16a4.47 4.47 0 0 0 2-3.51v-.81a4.49 4.49 0 0 0 -2-3.52l-2.74-1.58z"
        fill="#e0e0e0" />
    <path
        d="m440 310.71-167.13-96.48a1.23 1.23 0 0 1 0-2.34l5.47-3.16a4.47 4.47 0 0 1 4.06 0l167.11 96.48a1.23 1.23 0 0 1 0 2.34l-5.51 3.16a4.47 4.47 0 0 1 -4 0z"
        fill="#fafafa" />
    <path
        d="m434.86 318.35v.81a4.49 4.49 0 0 1 -2 3.52l-5.46 3.16a4.53 4.53 0 0 1 -4.06 0l-167.14-96.48a4.51 4.51 0 0 1 -2-3.52v-.84a4.49 4.49 0 0 1 2-3.52l5.46-3.15a4.49 4.49 0 0 1 4.07 0l167.1 96.47a4.51 4.51 0 0 1 2.03 3.55z"
        fill="#f0f0f0" />
    <path
        d="m425.34 316v10.31a4.09 4.09 0 0 0 2-.49l5.46-3.15a4.49 4.49 0 0 0 2-3.52v-.81a4.51 4.51 0 0 0 -2-3.52l-2.73-1.57z"
        fill="#e0e0e0" />
    <path
        d="m423.31 320.33-167.11-96.47a1.24 1.24 0 0 1 0-2.35l5.46-3.15a4.49 4.49 0 0 1 4.07 0l167.1 96.47a1.24 1.24 0 0 1 0 2.35l-5.46 3.15a4.47 4.47 0 0 1 -4.06 0z"
        fill="#fafafa" />
    <g fill="#e0e0e0">
        <path
            d="m463.65 237.39a2.89 2.89 0 0 1 1.31 2.26c0 .84-.59 1.17-1.31.76a2.9 2.9 0 0 1 -1.31-2.27c0-.83.59-1.14 1.31-.75z" />
        <path
            d="m463.65 256.64a2.9 2.9 0 0 1 1.31 2.27c0 .83-.59 1.17-1.31.75a2.9 2.9 0 0 1 -1.31-2.26c0-.84.59-1.18 1.31-.76z" />
        <path
            d="m463.65 275.89a2.9 2.9 0 0 1 1.31 2.27c0 .83-.59 1.17-1.31.75a2.89 2.89 0 0 1 -1.31-2.26c0-.84.59-1.17 1.31-.76z" />
        <path
            d="m311.51 149.72a2.86 2.86 0 0 1 1.31 2.26c0 .84-.58 1.17-1.31.76a2.89 2.89 0 0 1 -1.3-2.27c0-.83.58-1.17 1.3-.75z" />
        <path
            d="m311.51 169a2.87 2.87 0 0 1 1.31 2.26c0 .84-.58 1.18-1.31.76a2.89 2.89 0 0 1 -1.3-2.27c0-.86.58-1.2 1.3-.75z" />
        <path
            d="m311.51 188.22a2.88 2.88 0 0 1 1.31 2.27c0 .83-.58 1.17-1.31.75a2.87 2.87 0 0 1 -1.3-2.26c0-.84.58-1.17 1.3-.76z" />
        <path
            d="m452.8 291.78a.69.69 0 0 1 0 1.32 2.5 2.5 0 0 1 -2.29 0 .7.7 0 0 1 0-1.32 2.52 2.52 0 0 1 2.29 0z" />
        <path
            d="m436.08 301.48a.7.7 0 0 1 0 1.33 2.56 2.56 0 0 1 -2.29 0 .7.7 0 0 1 0-1.33 2.58 2.58 0 0 1 2.29 0z" />
        <path
            d="m419.36 311.19a.69.69 0 0 1 0 1.32 2.5 2.5 0 0 1 -2.29 0 .69.69 0 0 1 0-1.32 2.5 2.5 0 0 1 2.29 0z" />
        <path
            d="m300.8 204.07a.7.7 0 0 1 0 1.32 2.52 2.52 0 0 1 -2.3 0 .7.7 0 0 1 0-1.32 2.52 2.52 0 0 1 2.3 0z" />
        <path
            d="m284.08 213.77a.7.7 0 0 1 0 1.33 2.52 2.52 0 0 1 -2.3 0 .7.7 0 0 1 0-1.33 2.58 2.58 0 0 1 2.3 0z" />
        <path
            d="m267.36 223.48a.7.7 0 0 1 0 1.32 2.52 2.52 0 0 1 -2.3 0 .7.7 0 0 1 0-1.32 2.52 2.52 0 0 1 2.3 0z" />
        <path
            d="m386.25 193.74a2.88 2.88 0 0 1 1.31 2.27c0 .83-.58 1.17-1.31.75a2.89 2.89 0 0 1 -1.3-2.26c.05-.84.58-1.18 1.3-.76z" />
        <path
            d="m386.25 213a2.89 2.89 0 0 1 1.31 2.27c0 .83-.58 1.17-1.31.75a2.87 2.87 0 0 1 -1.3-2.26c.05-.84.58-1.18 1.3-.76z" />
        <path
            d="m386.25 232.25a2.86 2.86 0 0 1 1.31 2.26c0 .84-.58 1.17-1.31.76a2.89 2.89 0 0 1 -1.25-2.27c0-.83.53-1.17 1.25-.75z" />
        <path
            d="m375.54 248.09a.7.7 0 0 1 0 1.33 2.52 2.52 0 0 1 -2.3 0 .7.7 0 0 1 0-1.33 2.58 2.58 0 0 1 2.3 0z" />
        <path
            d="m358.82 257.8a.7.7 0 0 1 0 1.32 2.52 2.52 0 0 1 -2.3 0 .7.7 0 0 1 0-1.32 2.52 2.52 0 0 1 2.3 0z" />
        <path
            d="m342.1 267.5a.7.7 0 0 1 0 1.33 2.58 2.58 0 0 1 -2.3 0 .7.7 0 0 1 0-1.33 2.58 2.58 0 0 1 2.3 0z" />
    </g>
    <path
        d="m209.05 260.36c-.73-12.29-2.4-28.54-4-42.6a129.43 129.43 0 0 0 -6.75-29.16c-7 12.05-19.18 25.77-19.18 25.77l-28.81-.65s10.45 34.87 16.44 54.79c-10.47 6.63-16.58 14.17-23.25 27.43-4.3 8.54-7.31 15.05-11.84 25-2.35 5.16-5.72 11.73-8.39 14.28l-.3.25c-2.19 1.78-5.61 2.54-8.69 5.37a6.66 6.66 0 0 0 -1.6 7.14c.12.34.24.68.35 1.07.48 1.75 2.23 5.06 2.53 8.47.28 3.13-1.3 6.87-2.54 11s-1 6.53 1.07 10.12c1.6 2.79 7.86 9.67 13.27 11.78 8.64 3.37 11.47.82 10.43-3.29s-2.92-7.47-3.66-10.46a24.93 24.93 0 0 1 -.59-10.77c.76-4.38 2-7.72 3.75-13.49 1-3.44 1.14-6.48 13.08-17 0 0 31.87-26 41-34.44 17.17-15.86 18.98-18.58 17.68-40.61z"
        fill="#ffbda7" />
    <path
        d="m155.09 229.7c3.54 11.78 8.3 27.64 11.65 38.81-9.47 6-15.38 12.76-21.36 23.81l7 16.75c-1.77 3.93-1.6 16.14.24 24.34 7.52-6.16 31-25.49 38.68-32.51l1.22-1.12c-.77-19.3-3.68-42.76-7.44-64.29 8.5-7.2 9.75-13.79 10.19-20l-16.18-1.11-28.81-.65v.09z"
        fill="#f0997a" />
    <path
        d="m164.19 261c8.92 3.14 35.81 4 45.15-7.37 0 0-.25-22.22-3.05-38a119.74 119.74 0 0 0 -8-27l-54.41-9.68 6.12 36.29z"
        fill="#37474f" />
    <path
        d="m185.1 235.49c8.5-7.2 9.75-13.79 10.19-20l-16.18-1.11-28.81-.65v.09l4.77 15.89 9.43 31.41c5 1.65 15 2.62 24.68 1.36-1.18-9.05-2.54-18.18-4.08-26.99z"
        fill="#263238" />
    <path
        d="m112.38 342.24a4.87 4.87 0 0 0 -2.77 2.85c-.6 2.27.39 6.16 1.76 9.83s1.85 5.17.93 8-2.26 6.34-1.78 11.5 2.84 11.83 10.52 17.41c6.28 4.57 11.72 4.29 13.78 3.89s2.49-3.28 2.49-3.28z"
        fill="#263238" />
    <path
        d="m123.37 335.07c-.67.66-1.19 2.23-1.41 4.31-.45 4.14 3.68 10.21 4.91 11.59a4.2 4.2 0 0 1 3.25-1.2c2.7 0 7.37.32 7.85 1.51s-3.43 9.7-4 16a27 27 0 0 0 2.77 14.61c1.64 3.22 4.45 7.59-.07 11.59-2.67.81-13.73-.5-20.33-9.77-5.86-8.23-3.37-16.81-2-21.21s-.64-8.08-2-13.46c-.59-2.35-1.2-4.11 0-6.81 2.88-3.69 7.32-5.85 9.38-7.22a1.69 1.69 0 0 1 1.65.06z"
        fill="#37474f" />
    <path
        d="m116.36 383.72c.82-2.51 4.78-6 9.89-7.12 6.28-1.33 8.49-.07 9.91 2 1.18 1.75 7.58 11.76.8 15-2.19 1.45-12.96 1.55-20.6-9.88z"
        fill="#fafafa" />
    <path
        d="m126.87 351a2.25 2.25 0 0 1 .79 1.37 4.86 4.86 0 0 1 -.19 1.58c-.27 1-.5 2-.73 3-.49 2-.94 4-1.31 6a58.9 58.9 0 0 0 -.79 6.05 27.81 27.81 0 0 0 .22 6.11 18.71 18.71 0 0 1 -1-6.13 34.8 34.8 0 0 1 .57-6.2 53.41 53.41 0 0 1 1.48-6c.3-1 .66-2 1-2.93a5.14 5.14 0 0 0 .4-1.42 2.32 2.32 0 0 0 -.44-1.43z"
        fill="#263238" />
    <path
        d="m123.6 373.49c2.47-1.06 9.21-1.45 10.62.65l.14.71a3.28 3.28 0 0 0 -.09-2.2c-.46-1.3-5.07-2.67-10.76-.73-.6.58-.66 1.82.09 1.57z"
        fill="#fafafa" />
    <path
        d="m123.8 368.21c2.4-1.2 8.58-1.73 10.11.28v.59a1.92 1.92 0 0 0 .11-2c-.54-1.28-4.82-2.71-10.39-.44-.58.62-.57 1.86.17 1.57z"
        fill="#fafafa" />
    <path
        d="m124.47 362.85c2.47-1 8.75-1.28 10.1.88l-.15.7a2.41 2.41 0 0 0 .48-1.9c-.32-1.39-4.8-3-10.49-1.26-.61.56-.69 1.8.06 1.58z"
        fill="#fafafa" />
    <path
        d="m125.28 358.29c2.47-1 9.15-1.35 10.5.81l-.17.71a2.81 2.81 0 0 0 .5-2c-.33-1.4-5.19-2.85-10.89-1.09-.6.55-.7 1.79.06 1.57z"
        fill="#fafafa" />
    <path
        d="m212.45 426.69a16.61 16.61 0 0 0 -3.37-2.43l-.5-.32c-2.14-1.35-4.12-2.9-6.26-4.25a33 33 0 0 1 -6-4.61c-3.24-3.26-4.36-6.95-6.13-11.19-.23-.56-2.47-2.62-2.67-10.21-.43-16.66 1.29-47.57 1.45-60.28.43-34.16-.63-38.56-2.81-60l-6-41s9.85-3.44 15.59-18c2.85-7.25 1.64-17.11 2.56-25.83 0 0-8.31 5.31-27.8 4.79-20.79-.55-25.09-11.78-25.09-11.78-1.93 5.21-4.47 9.79-10 24.36-1.79 4.71-6.08 19.85-3.65 30.46 2.33 10.12 3.93 15.21 8.87 29.92 5.65 16.84 14.76 42.27 14.76 42.27-2 11.57-1.32 17.81 3.9 42.12 2.27 10.61 5 22.77 6.24 29s2.08 11.6 1.95 13.36c-.55 7.36-4.7 16.93 2.14 22 1.36 1 2.91 1.68 4.34 2.57 4.63 2.87 7.7 7.67 11.87 11.17a28.68 28.68 0 0 0 10.68 5.56 17.24 17.24 0 0 0 4.9 1.12 42.39 42.39 0 0 0 6.46-.69 11.42 11.42 0 0 0 3.8-1.21 4.5 4.5 0 0 0 2.28-3.13 4.71 4.71 0 0 0 -1.51-3.77z"
        fill="#ffbda7" />
    <path
        d="m135.75 200c-4.73 9.38-5.74 17.39-6 26.94s3.35 20 6 28.62 8.13 21.84 8.13 21.84 9 3.07 23.53 0c14.24-3 17.94-9.38 17.94-9.38l-3.16-33.84s7.52-4.55 13.46-15.41 2.64-30.18 2.64-30.18l-54.41-9.68a144.26 144.26 0 0 1 -8.13 21.09z"
        fill="#455a64" />
    <path
        d="m164.07 410.78c-.44.66-.51 2.69.05 4.92.93 1.29 2.41 2.32 6 4.36s4.75 4 6.31 6.74a29.51 29.51 0 0 0 5.46 6.8c4 3.72 10 5.87 20.06 5.62 6.26-.16 11.45-2.53 12.85-4.26a4.56 4.56 0 0 0 1-3.64z"
        fill="#263238" />
    <path
        d="m166.19 394.29c0-.94.94-1.92 1.26-1.58.06 1-.16 3.72.52 4.74a16 16 0 0 0 9.22 6s-.31-1 2-1.84 8.29-2.82 9.48-2.19 2.3 6.8 6.13 12.28a33 33 0 0 0 13.23 10.62c3.52 1.49 7.48 4.49 7.32 9.11-3.8 5-13.65 5.29-19.61 4.66-10.58-1.12-15.17-7.75-18-11.72s-3.81-4.6-8.55-8c-2.07-1.5-4.24-2.59-5.14-5.56-.81-7.29 1.95-8.39 2.14-16.52z"
        fill="#37474f" />
    <path
        d="m190 434.79c-.46-3.83 1.5-8.66 7.63-11.58s8.72-2.17 10.79-1.35 9.2 4.54 7.2 9.78c-.8 2.62-13.62 7.83-25.62 3.15z"
        fill="#fafafa" />
    <path
        d="m177.19 403.46a2.44 2.44 0 0 1 1.56.57 5.47 5.47 0 0 1 .93 1.41l1.44 2.92c.95 1.94 1.95 3.86 3 5.73a58.07 58.07 0 0 0 3.47 5.43 29.31 29.31 0 0 0 4.32 4.8 19.53 19.53 0 0 1 -4.91-4.32 36.41 36.41 0 0 1 -3.75-5.4 56.22 56.22 0 0 1 -2.9-5.88c-.43-1-.83-2-1.17-3.06a5.74 5.74 0 0 0 -.64-1.42 2.51 2.51 0 0 0 -1.35-.78z"
        fill="#263238" />
    <path
        d="m189 423.46c1.94-1.9 10.41-5.41 13.19-4.47l.65.43a3.16 3.16 0 0 0 -1.51-1.57c-1.29-.77-8.61.47-13.4 4.47-.28.68.42 1.68 1.07 1.14z"
        fill="#fafafa" />
    <path
        d="m185.64 419.25c1.94-1.9 9.33-4.91 12.11-4l.54.52a2.62 2.62 0 0 0 -1.41-1.65c-1.29-.77-7.52 0-12.31 4-.27.7.43 1.65 1.07 1.13z"
        fill="#fafafa" />
    <path
        d="m183.37 414.85c2-1.85 8.5-4.49 11.25-3.47l.4.6a2.69 2.69 0 0 0 -1-1.6c-1.21-.91-6.77-.57-11.67 3.3-.3.7.36 1.67 1.02 1.17z"
        fill="#fafafa" />
    <path
        d="m181.17 411c2-1.84 8.5-4.48 11.25-3.46l.33.65a2.49 2.49 0 0 0 -.95-1.66c-1.21-.9-6.76-.56-11.66 3.31-.29.72.37 1.7 1.03 1.16z"
        fill="#fafafa" />
    <path
        d="m96.45 161.83c.65.3 7.37-1.27 13.68-3.72v-23.88s-8.21.82-10.82 10.19c-4.5 16.14-2.86 17.41-2.86 17.41z"
        fill="#263238" />
    <path
        d="m145.85 123.1c6-.1 12.9 2.85 15 7.47.35.79 2.84 6.87 2.84 6.87 3.35 16.13 9.38 57.68 5.14 62.83-6.36 7.71-37.63 22.82-51.34 22.39-11.31-.35-22.22-10.64-23.8-13.75-5.16-10.19 8.39-67 12-72.68 5.78-9.23 32.58-13 40.16-13.13z"
        fill="#4eb77c" />
    <path
        d="m168.82 200.27c-6.36 7.71-37.63 22.82-51.34 22.39a24.66 24.66 0 0 1 -8.91-2.14c3.2 1.51 7 0 8-4.18s2.77-37.43 2.77-65.92l44.35-13c3.31 16.15 9.37 57.7 5.13 62.85z"
        opacity=".18" />
    <path
        d="m104.24 139.27a15.24 15.24 0 0 1 1.41-3.56c5.82-9.24 32.62-13 40.2-13.13 6-.1 12.9 2.84 15 7.47.33.75 2.84 6.87 2.84 6.87-11.88 6.31-41.6 12.72-44.75 11.57-3.89-1.41-14.7-9.22-14.7-9.22z"
        opacity=".5" />
    <path
        d="m96.11 183.18c.28-.13 4.52-3.09 5-3.32.86-.4 12.84 8.3 13.92 9.75.76 1-1.31 21.66-1.83 22.72-.19.38-4.82 2.94-5 3.32-.51 1.06-13.17-7.8-13.9-9.87s.54-22.01 1.81-22.6z"
        fill="#4eb77c" />
    <path
        d="m96.11 183.18c.28-.13 4.52-3.09 5-3.32.86-.4 12.84 8.3 13.92 9.75.76 1-1.31 21.66-1.83 22.72-.19.38-4.82 2.94-5 3.32-.51 1.06-13.17-7.8-13.9-9.87s.54-22.01 1.81-22.6z"
        opacity=".18" />
    <path
        d="m110 192.93c.76 1-1.31 21.66-1.83 22.72s-13.17-7.8-13.9-9.87.55-22 1.82-22.6c.91-.4 12.85 8.3 13.91 9.75z"
        fill="#4eb77c" />
    <path
        d="m101.11 179.86c-.48.22-4.71 3.19-5 3.32.85-.4 12.83 8.3 13.91 9.74l5-3.31c-1.02-1.45-13.02-10.15-13.91-9.75z"
        opacity=".4" />
    <path
        d="m110 192.93c.76 1-1.31 21.66-1.83 22.72s-13.17-7.8-13.9-9.87.55-22 1.82-22.6c.91-.4 12.85 8.3 13.91 9.75z"
        opacity=".3" />
    <path
        d="m115 189.61c-.89-.63-3.67.73-4.88 1.7s-2.66 5.67-5.72 6.32-7.22-3.52-8-6.13-1.69-8.05-.15-9.93 4.15-2.84 6.26-1.61 12.34 7.27 12.49 9.65z"
        fill="#4eb77c" />
    <path
        d="m115 189.61c-.89-.63-3.67.73-4.88 1.7s-2.66 5.67-5.72 6.32-7.22-3.52-8-6.13-1.69-8.05-.15-9.93 4.15-2.84 6.26-1.61 12.34 7.27 12.49 9.65z"
        opacity=".1" />
    <path
        d="m101.69 192a2.25 2.25 0 0 1 1 2.13.92.92 0 0 1 -1.42.76 2.2 2.2 0 0 1 -1-2.14c.13-.83.73-1.17 1.42-.75z"
        fill="#37474f" />
    <path
        d="m119.33 149.9s-4.18-2.88-9.25-5.8-7.91-3.94-9.71 2a132.91 132.91 0 0 0 -3.92 15.78c-1-.47-.87-2.22-.19-9.73 1-10.93-.4-15.81 10.91-20.18 17.54-6.79 32.27-12.12 42.3-9.87s12.39 7.87 14.21 14.87c0-.05-12.19 11.03-44.35 12.93z"
        fill="#37474f" />
    <path
        d="m181.06 122.6c8.16-.16 13.38.91 19.63 8 6.4 7.27 17.46 19.32 27.12 30.48l23.38-11.42 10.39 13.44s-25.93 18.29-32.25 20.26-7.78.42-13-3.76c-5.85-4.64-26.06-23.2-26.06-23.2z"
        fill="#ffbda7" />
    <path
        d="m188.14 122.39c5.56 1.07 7.86 2.36 13.88 8.93s25.79 29.76 25.79 29.76-2.86-.92-7.48 6a17.58 17.58 0 0 0 -2.85 13.43s-2.26-.41-14.55-11.35-13.11-11.39-13.11-11.39z"
        fill="#4eb77c" />
    <path
        d="m188.14 122.39c5.56 1.07 7.86 2.36 13.88 8.93s25.79 29.76 25.79 29.76-2.86-.92-7.48 6a17.58 17.58 0 0 0 -2.85 13.43s-2.26-.41-14.55-11.35-13.11-11.39-13.11-11.39z"
        fill="#fff" opacity=".6" />
    <path
        d="m274.05 120.56-1.75-1.25a1.88 1.88 0 0 0 -1.69 0l-17.1 6.47a6.5 6.5 0 0 0 -3.6 4.07l-9.12 37.69a1.67 1.67 0 0 0 .41 1.84l1.81 1.28a1.85 1.85 0 0 0 1.71 0l17.1-6.47a6.46 6.46 0 0 0 3.59-4.07c1.8-7.41 7.34-30.28 9.13-37.69.24-.91.02-1.57-.49-1.87z"
        fill="#455a64" />
    <path
        d="m253.48 128.22a6.46 6.46 0 0 0 -1.78 2.88l-9.13 37.68a1.77 1.77 0 0 0 .35 1.81l-1.7-1.2a1.66 1.66 0 0 1 -.41-1.84l9.19-37.71a6.18 6.18 0 0 1 1.63-2.72z"
        fill="#263238" />
    <path
        d="m242.58 168.78 9.12-37.69a6.5 6.5 0 0 1 3.6-4.07l17.1-6.47c1.59-.6 2.55.25 2.15 1.9-1.79 7.41-7.33 30.28-9.13 37.69a6.46 6.46 0 0 1 -3.59 4.07l-17.1 6.47c-1.59.6-2.55-.25-2.15-1.9z"
        fill="#37474f" />
    <path
        d="m252.46 138.74 1.71-7.06a1.29 1.29 0 0 1 .67-.76l3.21-1.21c.29-.11.47 0 .4.36-.34 1.38-1.37 5.66-1.71 7.05a1.21 1.21 0 0 1 -.67.76l-3.2 1.21c-.3.12-.48-.04-.41-.35z"
        fill="#455a64" />
    <path
        d="m254.49 133.3a3 3 0 0 1 1.72-1.88c.77-.29 1.24.08 1.06.83a3.09 3.09 0 0 1 -1.72 1.89c-.77.29-1.24-.09-1.06-.84z"
        fill="#263238" />
    <path
        d="m253.67 136.86a3.09 3.09 0 0 1 1.72-1.89c.77-.29 1.24.09 1.06.84a3.07 3.07 0 0 1 -1.72 1.88c-.73.31-1.24-.08-1.06-.83z"
        fill="#263238" />
    <path
        d="m273.45 142.66c1.67-2.48 1.51-2.8.53-4a7.66 7.66 0 0 0 -6.32-3c-2.13.12-4.29.13-5.38.73s-.09 2.9 2.71 3.44c4.42.87 4.43 2.06 4.43 2.06a56.23 56.23 0 0 0 -5.7-.84c-1.62 0-4.57.81-6.41 1.15s-2.15 2.74 1 3.48l-3.38.63c-2.37.45-3.14 1.73-1.24 3.15a3.48 3.48 0 0 0 2.18.75s-2.53.07-2.56.91c-.09 2.42 1.49 3 6.64 4.35 4.92 1.29 6 3.88 5.07 5.72 0 0 1.93-1.2 3.65-2.45 1.26-.92 2.31-1.94 1.68-3.93 0 0 2.79 0 2.91-1.75a8.8 8.8 0 0 0 -.77-3.67 3 3 0 0 0 1.46-2.9 5 5 0 0 0 -1.1-3z"
        fill="#ffbda7" />
    <path
        d="m258.32 145.65a16.21 16.21 0 0 1 3.08-.42 10 10 0 0 1 3 .87 36 36 0 0 1 5.45 2.73 36 36 0 0 1 -5.79-1.9 16.08 16.08 0 0 0 -2.75-1c-.91-.13-1.98-.12-2.99-.28z"
        fill="#f0997a" />
    <path
        d="m255.89 150.18a6.81 6.81 0 0 1 3.33-.19 17.51 17.51 0 0 1 3.2.92 31.45 31.45 0 0 1 5.89 2.94 63.79 63.79 0 0 1 -6.21-2.1 17.45 17.45 0 0 0 -6.21-1.57z"
        fill="#f0997a" />
    <path
        d="m131 209.4c5.1-14.85 8.36-23.43 8.5-28.14 0 0-4.28-23.69-4.89-29.28-1.6-14.53 1-21.35 3.93-22.89 1.69-.9 8.62-2.94 10.84-3.57 10.06-2.86 24.47-3.22 33.84-3.08 3.51.19 4.59.3 4.59.3a86.74 86.74 0 0 1 12.63 11.52c7.45 8.64 9.78 14.45 8.59 23.33a21.33 21.33 0 0 1 -4.93 10.46c-.57 4.3-1.51 16.49-1.51 16.49.11 4.79-.22 4.68 2.2 16.21-7.6 22.72-58.37 21.3-73.79 8.65z"
        fill="#fafafa" />
    <path
        d="m153.76 63.14a12.68 12.68 0 0 0 -14 2.92c-3.48 3.75-4.29 9.19-4.85 14.28q-1.47 13.23-2.19 26.52c-.21 4-1 7.89-1.3 11.87-.4 4.48-.73 9-1 13.44a5 5 0 0 0 .61 3.32 4.41 4.41 0 0 0 2.74 1.38 20.31 20.31 0 0 0 14.55-2.53c6.81-4.16 10.61-12.2 11.13-20.15.33-5.16-.55-10.31-1.42-15.41a105.4 105.4 0 0 0 -2.33-11.14c-.66-2.32-1.47-4.59-2-6.94a29.9 29.9 0 0 1 .35-14.59"
        fill="#263238" />
    <path
        d="m148.62 63.06a14.75 14.75 0 0 0 -4.88 7.85 4.15 4.15 0 0 0 0 2.49 3.06 3.06 0 0 0 3.2 1.66 6.08 6.08 0 0 0 3.36-1.8 12.75 12.75 0 0 0 3.83-7.21c.2-1.27.07-3.29-1.15-4.08-1.41-.9-3.27.18-4.36 1.09z"
        fill="#4eb77c" />
    <path
        d="m196.16 82.26c3-6.25.51-14.73-2.67-18.77-4.6-5.85-12-8.53-23.16-8.18-8.52.27-18.83 3.76-20.68 12.44-8 3.75-5.54 14.78-3.57 19.44 4.12 9.81 10.16 17.56 10.12 22.7z"
        fill="#263238" />
    <path
        d="m193.55 105.91c-1.9 4.67-5.11 8.13-9.58 9a29.07 29.07 0 0 1 -4.55.22l-.24 8.49c1.61 2.79 4.5 10.75 4 16.7-15.13-3.37-27.68-19-27.68-19l.64-20.87s-2.85 3-7.29-.05c-3-2.13-5.63-7.73-2.7-12.18s7.75-2.43 9.09-1 1.94 4.09 3.1 3.74a4.19 4.19 0 0 0 2.87-2.75c.87-2 1.52-4.61 1.75-9.14a3.19 3.19 0 0 0 2.04-2.65c.71-3 1.61-2.9 1.76-5.23 9.79-2.74 23.18-2.66 27.12.58 2.2 4.16 1.73 12.52 2 18a39.09 39.09 0 0 1 -2.33 16.14z"
        fill="#ffbda7" />
    <path
        d="m179.42 115.09c-4.95-.43-14.87-3-17.44-5.9s-3.54-8.56-3.54-8.56.19 7.18 2.15 10.4 7.11 4.75 10.24 5.63a67.78 67.78 0 0 0 8.51 1.46z"
        fill="#f0997a" />
    <path d="m181.22 83.55 1.11 13.8 6.81-2.4z" fill="#f0997a" />
    <path d="m177.94 102a1.69 1.69 0 1 1 -1.53-1.82 1.68 1.68 0 0 1 1.53 1.82z" fill="#b16668" />
    <path d="m191.67 86.77c.34 1.1-.43 1.43-1.49 1.76s-2 .53-2.35-.56a2 2 0 1 1 3.84-1.2z"
        fill="#263238" />
    <path
        d="m188.12 85.75a5.22 5.22 0 0 1 1.52-.5 4.31 4.31 0 0 1 1.56 0 4.85 4.85 0 0 1 1.57.51s.07.14 0 .13c-.43-.06-.8-.14-1.42-.18a7.36 7.36 0 0 0 -1.75.16 7.23 7.23 0 0 0 -2 .68c-.21.09-.61.3-.65.33s-.11-.12-.07-.17a3.49 3.49 0 0 1 1.24-.96z"
        fill="#263238" />
    <path d="m188.76 80 4.46 2a2.57 2.57 0 0 0 -1.22-3.3 2.38 2.38 0 0 0 -3.24 1.3z"
        fill="#263238" />
    <path d="m172.17 87.2c-.3 1.11.48 1.42 1.55 1.71s2 .45 2.33-.66a2 2 0 1 0 -3.88-1z"
        fill="#263238" />
    <path
        d="m175.68 86a5.22 5.22 0 0 0 -1.54-.44 4.3 4.3 0 0 0 -1.56 0 5 5 0 0 0 -1.55.57s-.06.14 0 .13a13.16 13.16 0 0 1 1.4-.23 8.16 8.16 0 0 1 3.78.69c.21.09.62.28.66.31s.1-.12.07-.17a3.63 3.63 0 0 0 -1.26-.86z"
        fill="#263238" />
    <path d="m169.08 81.42 3.81-3.09a2.57 2.57 0 0 1 -.38 3.54 2.4 2.4 0 0 1 -3.43-.45z"
        fill="#263238" />
    <path
        d="m190.16 60.19-22.38 8.68c-16.78 6.61-13.1 19.52-9.58 22.13 10-4.21 9.33-14.16 8.59-19.84 5.06 4.74 13.49 8.24 17.45 8.65-1.84-2.21-3.37-7.67-3.37-7.67a20.21 20.21 0 0 0 7.85 8.51c6.15 3.54 10.34 1.17 10.34 1.17s2.09-14.97-8.9-21.63z"
        fill="#263238" />
    <path
        d="m157.64 120a52.3 52.3 0 0 0 2.27 9.36c2 6.48 2.75 11.66 3.14 25.54s-4.65 78.72-3.16 94.42c-10.31 0-26.76-6.85-34.44-15.16a177.54 177.54 0 0 1 5.55-31.41c3.69-14 7.53-15.14 6.74-22.65s-7.9-37.38-1.8-52.62a86.94 86.94 0 0 0 10.64-2.06c9.8-2.37 11.06-5.42 11.06-5.42z"
        fill="#4eb77c" />
    <path
        d="m157.64 120a52.3 52.3 0 0 0 2.27 9.36c2 6.48 2.75 11.66 3.14 25.54s-4.65 78.72-3.16 94.42c-10.31 0-26.76-6.85-34.44-15.16a177.54 177.54 0 0 1 5.55-31.41c3.69-14 7.53-15.14 6.74-22.65s-7.9-37.38-1.8-52.62a86.94 86.94 0 0 0 10.64-2.06c9.8-2.37 11.06-5.42 11.06-5.42z"
        fill="#fff" opacity=".4" />
    <path
        d="m179.82 117.94.61 5.16c0 4 7.75 7.81 13.48 17.19s6.64 18.53 6.25 30.51 2.73 56.92 4 62.78a16.27 16.27 0 0 0 6.81-9.77c-.95-7.11-2.66-19.47-3.69-23.79s-.95-11.39-.95-20.26a79.68 79.68 0 0 1 .71-11.49s5.67-7 2.35-20.12-21.2-25.76-21.2-25.76-.55-.21-3.5-.87c-2.25-.52-4.87-3.58-4.87-3.58z"
        fill="#4eb77c" />
    <path
        d="m179.82 117.94.61 5.16c0 4 7.75 7.81 13.48 17.19s6.64 18.53 6.25 30.51 2.73 56.92 4 62.78a16.27 16.27 0 0 0 6.81-9.77c-.95-7.11-2.66-19.47-3.69-23.79s-.95-11.39-.95-20.26a79.68 79.68 0 0 1 .71-11.49s5.67-7 2.35-20.12-21.2-25.76-21.2-25.76-.55-.21-3.5-.87c-2.25-.52-4.87-3.58-4.87-3.58z"
        fill="#fff" opacity=".4" />
    <path
        d="m155.7 115.08c-1.89 6.84-5.9 9.45-5.9 9.45s2.7 12.6 2.22 18.79-1.72 12.18 0 12.14a45.94 45.94 0 0 0 6.86-1.61s-4.12 6-3.72 7.92 6.79 23.14 6.79 23.14 2.67-24.58 2.26-31.79-1.72-20.44-4.28-28a82.72 82.72 0 0 0 -4.23-10.04z"
        fill="#4eb77c" />
    <path
        d="m200.36 181.48c.36-6.92 4-24.27 4.45-27.74s-4.45-6.61-4.45-6.61 3 .76 3.94 0-5-9.41-10.08-15.12-14.83-15.7-14.83-15.7l-.21 7.27c2.71 2.94 5.78 6.12 7.68 8.43 5.44 6.64 12.75 15.33 13.5 49.47z"
        fill="#4eb77c" />
    <path
        d="m145.45 125.58s10.56 9 12.23 26.43c4.21 44-28 53-28 53a85.86 85.86 0 0 1 2.64-11.08s19-17.35 16.85-39.83c-1.5-16-9.17-25.59-13.24-26.62a95.36 95.36 0 0 1 9.52-1.9z"
        fill="#37474f" />
    <path
        d="m124.11 205.67c4.2-1.47 7-3.24 11.27-7.17 7.94-7.28 8.38-8.36 15-14.79 2.24-2.17 4.24-4.34 5.19-5.32s3.38-2.8 5-5.48c1.07-1.81 2.49-4.1 2.68-6.26.21-2.38 1-4.83.4-7.24-.17-.69-.43-1.36-.56-2.07a16 16 0 0 1 -.14-2.94 14 14 0 0 0 -.86-5.07 9 9 0 0 0 -2.49-3.52 3.13 3.13 0 0 0 -3.12-.93c.31 1.27.53 2.34.81 3.83a10.67 10.67 0 0 1 -2.41 5.75c-2.43 3.52-4.56 5.38-4.92 4.71s.53-2.85 0-6.29c-.48-3.28-1.5-4.64-2.57-4.85-1.7-.35-1.6 1.47-2.18 4.26-.68 3.33-2 5.2-2 10.07.05 4.26.79 5.21-1.51 7.23-1.31 1.15-5.82 3.95-5.82 3.95s1.08-4.69 2.86-12.7c3.45-15.54 3.42-30.84-2.74-32.84-7.4 2.18-14.61 6.36-17.87 19-3.47 13.49-3.48 15.51-6.4 42.12-2.13 19.44 5.98 18.78 12.38 16.55z"
        fill="#ffbda7" />
    <path
        d="m135.89 173.54c-5.25 4.28-16.86 10.67-18.1 17.19 0 0 0-5.13 6.86-11.61a96.61 96.61 0 0 1 12.23-9.92z"
        fill="#f0997a" />
    <path
        d="m136 127.48c-5.18 1.21-11.69 4.67-14.74 10.35s-3.85 9.74-5.78 18-4.94 37.22-4.06 38.42c5.42-8.19 12.24-15.63 24.51-20.75 0 0 3.31-12 4.63-20.14s3.86-21.95-4.56-25.88z"
        fill="#4eb77c" />
    <path
        d="m136 127.48c-5.18 1.21-11.69 4.67-14.74 10.35s-3.85 9.74-5.78 18-4.94 37.22-4.06 38.42c5.42-8.19 12.24-15.63 24.51-20.75 0 0 3.31-12 4.63-20.14s3.86-21.95-4.56-25.88z"
        fill="#fff" opacity=".6" />
    <path
        d="m427.45 133.44v277.79c0 2.35-1 3.76-2.67 3.76a5 5 0 0 1 -2.48-.79l-113.22-65.36a13.88 13.88 0 0 1 -6.18-10.72v-188l-1 .3c-1.57.39-5.87.22-10.08-1.53a17.28 17.28 0 0 1 -9-8.06 15.18 15.18 0 0 0 13.64-1.57 16 16 0 0 0 5.42-5.36 7.63 7.63 0 0 0 1-3v-68.5c0-3.14 1.38-5 3.68-5a6.76 6.76 0 0 1 3.26 1l.65.38 31.16 18 .13.08a3.69 3.69 0 0 1 1.43 2.65 5.8 5.8 0 0 0 2.75 4.49l37.12 21.43a3.11 3.11 0 0 0 1.55.46 2.24 2.24 0 0 0 2.2-2.46.72.72 0 0 1 .1-.46.82.82 0 0 1 .44.15l2.07 1.19 31.85 18.39a10.16 10.16 0 0 1 1.24.85l.37.33.21.2a14 14 0 0 1 4.36 9.36z"
        fill="#fafafa" />
    <path
        d="m423.78 123.36c-.22-.2-.42-.39-.64-.57a10.59 10.59 0 0 0 -1.36-.93l-31.84-18.39-2.08-1.2a1.9 1.9 0 0 0 -.93-.28c-.68 0-1.14.54-1.14 1.48s-.48 1.44-1.18 1.44a2.09 2.09 0 0 1 -1-.33l-37.15-21.42a4.76 4.76 0 0 1 -2.22-3.67 4.72 4.72 0 0 0 -1.86-3.49l-.22-.13-31.16-17.97-.66-.39a7.64 7.64 0 0 0 -3.77-1.15c-2.78 0-4.7 2.22-4.7 6v68.47c-.12 2.35-2.58 5.5-5.94 7.59a14.1 14.1 0 0 1 -13.9 1l-1.18-.59.5 1.23a18 18 0 0 0 10.06 9.77 23.28 23.28 0 0 0 8.54 1.79 10.29 10.29 0 0 0 1.92-.16v186.66a14.82 14.82 0 0 0 6.69 11.6l113.21 65.37a6.14 6.14 0 0 0 3 .92c2.19 0 3.69-1.75 3.69-4.78v-277.79a14.94 14.94 0 0 0 -4.68-10.08zm3.67 287.87c0 2.35-1 3.76-2.67 3.76a5 5 0 0 1 -2.48-.79l-113.22-65.36a13.88 13.88 0 0 1 -6.18-10.72v-188l-1 .3c-1.57.39-5.87.22-10.08-1.53a17.28 17.28 0 0 1 -9-8.06 15.18 15.18 0 0 0 13.64-1.57 16 16 0 0 0 5.42-5.36 7.63 7.63 0 0 0 1-3v-68.5c0-3.14 1.38-5 3.68-5a6.76 6.76 0 0 1 3.26 1l.65.38 31.16 18 .13.08a3.69 3.69 0 0 1 1.43 2.65 5.8 5.8 0 0 0 2.75 4.49l37.12 21.43a3.11 3.11 0 0 0 1.55.46 2.24 2.24 0 0 0 2.2-2.46.72.72 0 0 1 .1-.46.82.82 0 0 1 .44.15l2.07 1.19 31.85 18.39a10.16 10.16 0 0 1 1.24.85l.37.33.21.2a14 14 0 0 1 4.36 9.32z"
        fill="#4eb77c" />
    <path
        d="m333.05 89.48c0 .59-.31.88-.69.67a1.83 1.83 0 0 1 -.68-1.46c0-.58.3-.88.68-.66a1.81 1.81 0 0 1 .69 1.45z"
        fill="#455a64" />
    <path
        d="m332.36 86.3a1 1 0 0 0 -1.6.55.71.71 0 0 0 .08.57c.13.23.32.28.4.1a.72.72 0 0 1 1.12-.39 2.89 2.89 0 0 1 1.13 1.69c.08.27.27.44.4.36a.46.46 0 0 0 .07-.48 4.07 4.07 0 0 0 -1.6-2.4z"
        fill="#455a64" />
    <path
        d="m332.36 84.6a1.63 1.63 0 0 0 -2.45.66.67.67 0 0 0 .06.59c.12.22.31.28.39.12a1.33 1.33 0 0 1 2-.55 5.24 5.24 0 0 1 2 2.86c.08.26.27.42.39.34.11-.07.14-.3.06-.53a6.42 6.42 0 0 0 -2.45-3.49z"
        fill="#455a64" />
    <path
        d="m335.58 88.15a.24.24 0 0 1 -.22-.14l-1.44-3.01a.24.24 0 0 1 .12-.33.25.25 0 0 1 .33.12l1.44 3.05a.25.25 0 0 1 -.12.34z"
        fill="#4eb77c" />
    <path
        d="m334.14 87.32a.27.27 0 0 1 -.18-.08.25.25 0 0 1 0-.35l1.44-1.39a.25.25 0 0 1 .35 0 .24.24 0 0 1 0 .35l-1.44 1.39a.29.29 0 0 1 -.17.08z"
        fill="#4eb77c" />
    <path
        d="m324 84.2a.19.19 0 0 1 .09.12.29.29 0 0 1 0 .16v.52a.16.16 0 0 1 0 .12s-.05 0-.09 0l-2.09-1.21a.26.26 0 0 1 -.09-.11.42.42 0 0 1 0-.16v-4.74a.21.21 0 0 1 0-.12.07.07 0 0 1 .09 0l2.02 1.22a.35.35 0 0 1 .09.11.5.5 0 0 1 0 .16v.53a.16.16 0 0 1 0 .11.06.06 0 0 1 -.09 0l-1.54-.91v1.17l1.43.83a.17.17 0 0 1 .09.11.29.29 0 0 1 0 .16v.52a.16.16 0 0 1 0 .12s-.05 0-.09 0l-1.43-.82v1.21z"
        fill="#455a64" />
    <path d="m308.58 76.66v-1.46l1.26.72v1.47z" fill="#455a64" />
    <path d="m310.48 77.75v-2.92l1.26.73v2.92z" fill="#e0e0e0" />
    <path d="m312.37 78.84v-4.37l1.27.73v4.37z" fill="#e0e0e0" />
    <path d="m314.27 79.94v-5.84l1.26.73v5.84z" fill="#e0e0e0" />
    <path
        d="m419.79 136.15a1.43 1.43 0 0 0 -.47-.7l-4.72-2.73c-.31-.18-.55.17-.55.8v2.65a3 3 0 0 0 .21 1.09 1.77 1.77 0 0 0 .19.39.91.91 0 0 0 .28.3l4.72 2.74c.3.17.54-.18.54-.81v-2.65a3.17 3.17 0 0 0 -.2-1.08zm-5.4.92a1.42 1.42 0 0 1 -.08-.48v-2.65c0-.47.19-.75.42-.62l4.72 2.74a.71.71 0 0 1 .15.15l.06.13a1.66 1.66 0 0 1 .07.47v2.66c0 .46-.19.74-.41.61l-4.72-2.74a.53.53 0 0 1 -.21-.27z"
        fill="#455a64" />
    <path d="m415.62 134.3v3.14l-.74-.43a.42.42 0 0 1 -.14-.25v-2.33c0-.34.14-.55.3-.46z"
        fill="#455a64" />
    <path d="m415.97 134.51.88.51v3.14l-.88-.52z" fill="#455a64" />
    <path d="m417.2 135.22.88.51v3.15l-.88-.52z" fill="#455a64" />
    <path d="m419.31 136.66v2.26c0 .41-.22.54-.59.33l-.29-.17v-3.14l.7.41a.47.47 0 0 1 .18.31z"
        fill="#455a64" />
    <path d="m420.17 137.35c.13.07.23.57.23 1.12v.53c0 .55-.1.94-.23.87l-.24-.11v-2.5z"
        fill="#455a64" />
    <path
        d="m357.31 100.47a.51.51 0 0 1 0-.2.17.17 0 0 1 .07-.13l1.27-.81h.1a.1.1 0 0 1 .1 0l.46.26a.27.27 0 0 1 .11.14.37.37 0 0 1 .05.2v5.84a.16.16 0 0 1 -.05.14s-.06 0-.11 0l-.47-.28a.24.24 0 0 1 -.11-.13.37.37 0 0 1 -.05-.2v-4.47l-.83.53a.11.11 0 0 1 -.12 0 .41.41 0 0 1 -.11-.16z"
        fill="#455a64" />
    <path
        d="m360 102a.38.38 0 0 1 0-.2.18.18 0 0 1 .06-.13l1.28-.81h.09a.14.14 0 0 1 .11 0l.46.27a.29.29 0 0 1 .11.13.53.53 0 0 1 .05.2v5.84a.21.21 0 0 1 -.05.15.09.09 0 0 1 -.11 0l-.48-.28a.33.33 0 0 1 -.11-.14.46.46 0 0 1 -.05-.2v-4.46l-.83.52a.09.09 0 0 1 -.11 0 .5.5 0 0 1 -.11-.16z"
        fill="#455a64" />
    <path
        d="m363.59 103.84a.33.33 0 0 1 .11.14.49.49 0 0 1 .05.2v.88a.21.21 0 0 1 -.05.15.09.09 0 0 1 -.11 0l-.55-.32a.29.29 0 0 1 -.11-.13.53.53 0 0 1 -.05-.2v-.89a.18.18 0 0 1 .05-.14.08.08 0 0 1 .11 0zm0 3.17a.29.29 0 0 1 .11.13.53.53 0 0 1 .05.2v.89a.2.2 0 0 1 -.05.14.08.08 0 0 1 -.11 0l-.55-.31a.4.4 0 0 1 -.11-.14.49.49 0 0 1 -.05-.2v-.89a.2.2 0 0 1 .05-.14.09.09 0 0 1 .11 0z"
        fill="#455a64" />
    <path
        d="m366.28 106.39a.52.52 0 0 0 .23-.31 1.74 1.74 0 0 0 .05-.39 1.78 1.78 0 0 0 -.15-.71 1.11 1.11 0 0 0 -.49-.54c-.21-.12-.37-.13-.47 0a1 1 0 0 0 -.21.5.2.2 0 0 1 -.07.14.11.11 0 0 1 -.11 0l-.46-.27a.34.34 0 0 1 -.12-.14.34.34 0 0 1 0-.2 2.35 2.35 0 0 1 .13-.69 1.18 1.18 0 0 1 .32-.45.73.73 0 0 1 .46-.16 1.05 1.05 0 0 1 .57.17 2.4 2.4 0 0 1 .64.55 3.29 3.29 0 0 1 .44.74 4 4 0 0 1 .27.8 4.28 4.28 0 0 1 .08.76v.42a1.35 1.35 0 0 1 -.08.36 1.08 1.08 0 0 1 -.19.32 1.35 1.35 0 0 1 -.33.28l-1.08.9 1.63.94a.33.33 0 0 1 .11.14.49.49 0 0 1 .05.2v.64a.18.18 0 0 1 -.05.14.07.07 0 0 1 -.11 0l-2.74-1.58a.27.27 0 0 1 -.11-.14.46.46 0 0 1 -.05-.2v-.61a.37.37 0 0 1 .06-.23s.07-.09.1-.1z"
        fill="#455a64" />
    <path
        d="m368.29 105a.16.16 0 0 1 0-.14.08.08 0 0 1 .11 0l2.21 1.27a.33.33 0 0 1 .11.14.48.48 0 0 1 0 .2v.64a.21.21 0 0 1 0 .15.08.08 0 0 1 -.11 0l-1.65-1-.07 1.12a.81.81 0 0 1 .31.06l.26.13a2.79 2.79 0 0 1 .61.49 3.17 3.17 0 0 1 .49.69 3.49 3.49 0 0 1 .32.84 3.71 3.71 0 0 1 .12 1 2.85 2.85 0 0 1 -.12.92 1 1 0 0 1 -.33.49.63.63 0 0 1 -.49.1 1.58 1.58 0 0 1 -.6-.22 3.21 3.21 0 0 1 -.7-.55 3.16 3.16 0 0 1 -.48-.67 3.43 3.43 0 0 1 -.28-.73 2.76 2.76 0 0 1 -.11-.74.17.17 0 0 1 0-.15.1.1 0 0 1 .12 0l.47.27a.43.43 0 0 1 .11.12.66.66 0 0 1 .06.2 1.92 1.92 0 0 0 .11.4 1.33 1.33 0 0 0 .18.31 1.7 1.7 0 0 0 .22.24l.26.17a.45.45 0 0 0 .54 0 .78.78 0 0 0 .21-.65 1.64 1.64 0 0 0 -.21-.79 1.58 1.58 0 0 0 -.54-.6l-.28-.12h-.17-.11s-.08 0-.14 0l-.54-.31a.27.27 0 0 1 -.11-.14.46.46 0 0 1 -.05-.2z"
        fill="#455a64" />
    <path
        d="m319 245.1 23.53 13.61a4.59 4.59 0 0 1 2.15 3.56c0 1.29-1 1.77-2.15 1.09l-23.53-13.61a4.59 4.59 0 0 1 -2.15-3.56c-.03-1.29.93-1.77 2.15-1.09z"
        opacity=".15" />
    <path
        d="m312.8 235a2.48 2.48 0 0 1 -.43-.74c-.13-.4-.05-.61.18-.47l104.76 60.51a2.14 2.14 0 0 1 .68 1c.13.4.05.61-.19.47l-104.75-60.52a1 1 0 0 1 -.25-.25z"
        fill="#e0e0e0" />
    <path
        d="m312.8 253.63a2.48 2.48 0 0 1 -.43-.74c-.13-.4-.05-.61.18-.47l104.76 60.48a2.08 2.08 0 0 1 .68 1c.13.4.05.61-.19.47l-104.75-60.52a1.19 1.19 0 0 1 -.25-.22z"
        fill="#e0e0e0" />
    <path
        d="m401.8 293.06a4 4 0 0 1 1.82 3.16c0 1.16-.82 1.62-1.83 1a4.06 4.06 0 0 1 -1.83-3.15c.04-1.13.83-1.59 1.84-1.01z"
        fill="#455a64" />
    <path
        d="m400.61 297.63a8.88 8.88 0 0 1 -.94-1.34 6.54 6.54 0 0 1 -1-3.18c0-1.89 1.39-2.62 3.13-1.62l6.2 3.51a7.27 7.27 0 0 1 2.51 2.66 6.59 6.59 0 0 1 1 3.16c0 1.92-1.38 2.62-3.14 1.6l-6.12-3.5a6.39 6.39 0 0 1 -1.64-1.29zm-1.25-3.73a4.63 4.63 0 0 0 .65 2.19 5.22 5.22 0 0 0 1.82 1.88l6.13 3.5c1.54.9 2.8.26 2.8-1.4a4.47 4.47 0 0 0 -.64-2.17 5.19 5.19 0 0 0 -1.82-1.9l-6.15-3.55c-1.55-.89-2.79-.26-2.79 1.42z"
        fill="#455a64" />
    <path
        d="m319 263.69 36 20.78a4.6 4.6 0 0 1 2.15 3.57c0 1.28-1 1.77-2.15 1.08l-36-20.78a4.59 4.59 0 0 1 -2.15-3.56c-.03-1.29.93-1.78 2.15-1.09z"
        opacity=".15" />
    <path
        d="m312.8 272.22a2.48 2.48 0 0 1 -.43-.74c-.13-.4-.05-.61.18-.47l104.76 60.48a2.14 2.14 0 0 1 .68 1c.13.4.05.61-.19.47l-104.75-60.52a1 1 0 0 1 -.25-.22z"
        fill="#e0e0e0" />
    <path
        d="m400.61 316.22a8.88 8.88 0 0 1 -.94-1.34 6.54 6.54 0 0 1 -1-3.18c0-1.89 1.39-2.62 3.13-1.61l6.15 3.54a7.22 7.22 0 0 1 2.51 2.67 6.56 6.56 0 0 1 1 3.15c0 1.92-1.38 2.62-3.14 1.61l-6.12-3.51a6.39 6.39 0 0 1 -1.59-1.33z"
        fill="#4eb77c" />
    <path
        d="m408.38 315.4a4 4 0 0 1 1.82 3.16c0 1.16-.82 1.62-1.83 1a4 4 0 0 1 -1.82-3.16c0-1.12.82-1.58 1.83-1z"
        fill="#fafafa" />
    <path
        d="m400.61 353.4a8.78 8.78 0 0 1 -.94-1.33 6.6 6.6 0 0 1 -1-3.18c0-1.9 1.39-2.63 3.13-1.62l6.15 3.54a7.3 7.3 0 0 1 2.51 2.67 6.56 6.56 0 0 1 1 3.16c0 1.91-1.38 2.61-3.14 1.6l-6.12-3.51a6.39 6.39 0 0 1 -1.59-1.33z"
        fill="#4eb77c" />
    <path
        d="m408.38 352.59a4 4 0 0 1 1.82 3.15c0 1.16-.82 1.62-1.83 1a4 4 0 0 1 -1.82-3.16c0-1.12.82-1.58 1.83-.99z"
        fill="#fafafa" />
    <path
        d="m400.61 372a8.78 8.78 0 0 1 -.94-1.33 6.6 6.6 0 0 1 -1-3.18c0-1.9 1.39-2.63 3.13-1.62l6.2 3.53a7.38 7.38 0 0 1 2.51 2.67 6.56 6.56 0 0 1 1 3.16c0 1.91-1.38 2.61-3.14 1.6l-6.12-3.51a6.18 6.18 0 0 1 -1.64-1.32z"
        fill="#4eb77c" />
    <path
        d="m408.38 371.18a4 4 0 0 1 1.82 3.15c0 1.17-.82 1.62-1.83 1a4 4 0 0 1 -1.82-3.16c0-1.11.82-1.57 1.83-.99z"
        fill="#fafafa" />
    <path
        d="m319 282.28 23.53 13.61a4.59 4.59 0 0 1 2.15 3.56c0 1.29-1 1.78-2.15 1.09l-23.53-13.6a4.62 4.62 0 0 1 -2.15-3.57c-.03-1.29.93-1.77 2.15-1.09z"
        opacity=".15" />
    <path
        d="m312.8 290.81a2.48 2.48 0 0 1 -.43-.74c-.13-.4-.05-.61.18-.47l104.76 60.48a2.14 2.14 0 0 1 .68 1c.13.4.05.61-.19.47l-104.75-60.55a1 1 0 0 1 -.25-.19z"
        fill="#e0e0e0" />
    <path
        d="m401.8 330.24a4.05 4.05 0 0 1 1.82 3.16c0 1.16-.82 1.62-1.83 1a4.06 4.06 0 0 1 -1.83-3.15c.04-1.13.83-1.59 1.84-1.01z"
        fill="#455a64" />
    <path
        d="m400.61 334.81a9.31 9.31 0 0 1 -.94-1.33 6.6 6.6 0 0 1 -1-3.18c0-1.9 1.39-2.63 3.13-1.62l6.15 3.54a7.22 7.22 0 0 1 2.51 2.67 6.56 6.56 0 0 1 1 3.16c0 1.91-1.38 2.61-3.14 1.6l-6.12-3.51a6.39 6.39 0 0 1 -1.59-1.33zm-1.25-3.73a4.63 4.63 0 0 0 .65 2.19 5.22 5.22 0 0 0 1.82 1.88l6.13 3.51c1.54.89 2.8.26 2.8-1.41a4.47 4.47 0 0 0 -.64-2.17 5.19 5.19 0 0 0 -1.82-1.87l-6.15-3.55c-1.55-.89-2.79-.25-2.79 1.42z"
        fill="#455a64" />
    <path
        d="m319 300.87 32 18.49a4.64 4.64 0 0 1 2.14 3.57c0 1.29-1 1.77-2.14 1.09l-32-18.49a4.6 4.6 0 0 1 -2.15-3.57c-.03-1.28.93-1.77 2.15-1.09z"
        opacity=".15" />
    <path
        d="m312.8 309.4a2.36 2.36 0 0 1 -.43-.74c-.13-.4-.05-.61.18-.47l104.76 60.48a2.14 2.14 0 0 1 .68 1c.13.4.05.61-.19.47l-104.75-60.52a1 1 0 0 1 -.25-.22z"
        fill="#e0e0e0" />
    <path
        d="m312.8 309.62a2.48 2.48 0 0 1 -.43-.74c-.13-.4-.05-.61.18-.47l104.76 60.48a2 2 0 0 1 .68 1c.13.4.05.61-.19.47l-104.75-60.52a1.19 1.19 0 0 1 -.25-.22z"
        fill="#e0e0e0" />
    <path
        d="m312.8 328.21a2.48 2.48 0 0 1 -.43-.74c-.13-.4-.05-.61.18-.47l104.76 60.48a2.08 2.08 0 0 1 .68 1c.13.4.05.61-.19.47l-104.75-60.52a1.19 1.19 0 0 1 -.25-.22z"
        fill="#e0e0e0" />
    <path
        d="m312.8 328.43a2.41 2.41 0 0 1 -.43-.75c-.13-.39-.05-.6.18-.47l104.76 60.48a2.12 2.12 0 0 1 .68 1c.13.39.05.6-.19.47l-104.75-60.52a1.11 1.11 0 0 1 -.25-.21z"
        fill="#e0e0e0" />
    <path
        d="m319 319.47 23.53 13.6a4.6 4.6 0 0 1 2.15 3.57c0 1.28-1 1.77-2.15 1.08l-23.53-13.6a4.6 4.6 0 0 1 -2.15-3.57c-.03-1.28.93-1.77 2.15-1.08z"
        opacity=".15" />
    <ellipse cx="362.39" cy="178.69" fill="#e0e0e0" rx="25.83" ry="45.65"
        transform="matrix(.92016353 -.39153427 .39153427 .92016353 -41.03 156.16)" />
    <path
        d="m368.25 197.66c0 5-2.62 7.51-5.86 5.64s-5.86-7.42-5.86-12.4 2.63-7.51 5.86-5.64 5.86 7.42 5.86 12.4z"
        fill="#455a64" />
    <path
        d="m362.39 170.49c-5.9-3.4-11-1.27-13.63 4.72a6.06 6.06 0 0 0 .62 4.83c1.11 2 2.76 2.43 3.41.88 1.82-4.26 5.44-5.76 9.59-3.36s7.78 8.09 9.59 14.44c.66 2.31 2.31 3.76 3.42 3 .87-.55 1.14-2.29.61-4.1-2.57-8.9-7.7-17-13.61-20.41z"
        fill="#455a64" />
    <path
        d="m362.39 156.05c-8.77-5.07-16.5-2.46-20.92 5.62-.65 1.19-.47 3.35.48 5.05 1.07 1.93 2.63 2.38 3.36 1 3.58-6.64 9.89-8.78 17.06-4.64s13.5 13.58 17.09 24.36c.73 2.2 2.28 3.54 3.35 2.86.95-.6 1.14-2.54.49-4.48-4.37-13.13-12.11-24.69-20.91-29.77z"
        fill="#455a64" />
    <ellipse cx="391.14" cy="167.39" fill="#4eb77c" rx="10.49" ry="18.54"
        transform="matrix(.92016353 -.39153427 .39153427 .92016353 -34.31 166.52)" />
    <path
        d="m386.58 172.8a.72.72 0 0 0 .84 0l9.12-6.89c.47-.35.47-1.35 0-2.24s-1.21-1.32-1.67-1l-9.13 6.9c-.46.35-.46 1.35 0 2.24a2.31 2.31 0 0 0 .84.99z"
        fill="#fafafa" />
    <path
        d="m395.7 178.07a.74.74 0 0 0 .84 0c.47-.35.47-1.35 0-2.24l-9.12-17.43c-.46-.88-1.21-1.31-1.68-1s-.46 1.35 0 2.23l9.13 17.43a2.39 2.39 0 0 0 .83 1.01z"
        fill="#fafafa" />
    <path
        d="m334 227.93a.64.64 0 0 1 -.24-.27l-.11-.25-2.52-7.23v5.71a.3.3 0 0 1 -.08.23.13.13 0 0 1 -.17 0l-.72-.42a.48.48 0 0 1 -.18-.21.87.87 0 0 1 -.07-.31v-8.95a.34.34 0 0 1 .07-.22.14.14 0 0 1 .18 0l.63.36a.65.65 0 0 1 .23.26c0 .12.09.2.12.26l2.52 7.22v-5.71a.29.29 0 0 1 .07-.22.13.13 0 0 1 .17 0l.73.42a.54.54 0 0 1 .17.21.66.66 0 0 1 .07.3v9a.29.29 0 0 1 -.07.22.14.14 0 0 1 -.17 0z"
        fill="#455a64" />
    <path
        d="m336 223a6 6 0 0 1 .19-1.35 2.13 2.13 0 0 1 .49-.91 1.19 1.19 0 0 1 .81-.33 2.25 2.25 0 0 1 1.16.37 4.51 4.51 0 0 1 1.14.95 5.72 5.72 0 0 1 .81 1.27 7.25 7.25 0 0 1 .49 1.47 8.44 8.44 0 0 1 .2 1.59v.59s0 .43 0 .66 0 .44 0 .65 0 .41 0 .58a5.85 5.85 0 0 1 -.19 1.35 2.13 2.13 0 0 1 -.49.91 1.14 1.14 0 0 1 -.82.32 2.26 2.26 0 0 1 -1.14-.37 4.28 4.28 0 0 1 -1.16-.95 6.22 6.22 0 0 1 -.81-1.27 7.05 7.05 0 0 1 -.49-1.47 9.34 9.34 0 0 1 -.19-1.58c0-.18 0-.37 0-.59v-1.31c0-.18 0-.37 0-.58zm4.08 2.43a4.49 4.49 0 0 0 -.42-1.79 2.67 2.67 0 0 0 -1-1.13c-.43-.25-.76-.26-1 0a1.83 1.83 0 0 0 -.42 1.3v1.16s0 .83 0 1.19a4.39 4.39 0 0 0 .42 1.77 2.57 2.57 0 0 0 1 1.13c.41.24.75.26 1 0a1.78 1.78 0 0 0 .42-1.29c0-.35 0-.73 0-1.16s.03-.8.02-1.15z"
        fill="#455a64" />
    <path
        d="m348.42 233.2a.28.28 0 0 1 .09-.22.17.17 0 0 1 .17 0l.73.42a.48.48 0 0 1 .18.21.52.52 0 0 1 .06.3 3.84 3.84 0 0 1 -.18 1 1.7 1.7 0 0 1 -.48.74 1.31 1.31 0 0 1 -.82.28 2.52 2.52 0 0 1 -1.2-.4 4.38 4.38 0 0 1 -1.1-.92 6.18 6.18 0 0 1 -.81-1.26 7.06 7.06 0 0 1 -.51-1.51 8.39 8.39 0 0 1 -.22-1.66c0-.36 0-.75 0-1.18s0-.81 0-1.15a5.21 5.21 0 0 1 .22-1.41 2.07 2.07 0 0 1 .51-.92 1.21 1.21 0 0 1 .81-.32 2.22 2.22 0 0 1 1.1.35 4.64 4.64 0 0 1 1.2 1 6.24 6.24 0 0 1 1.48 3.77.26.26 0 0 1 -.06.23.17.17 0 0 1 -.18 0l-.73-.43a.46.46 0 0 1 -.17-.19.8.8 0 0 1 -.1-.32 3 3 0 0 0 -.39-1.24 3 3 0 0 0 -.44-.59 2.48 2.48 0 0 0 -.61-.49 1.16 1.16 0 0 0 -.61-.18.66.66 0 0 0 -.44.19 1.28 1.28 0 0 0 -.27.51 3.29 3.29 0 0 0 -.11.75v1.15s0 .82 0 1.18a5.28 5.28 0 0 0 .11.89 4.81 4.81 0 0 0 .27.81 3.92 3.92 0 0 0 .44.7 2.34 2.34 0 0 0 .61.52 1.75 1.75 0 0 0 .61.22.76.76 0 0 0 .42-.03.68.68 0 0 0 .27-.31 1.42 1.42 0 0 0 .15-.49z"
        fill="#455a64" />
    <path
        d="m350.49 231.39a5.85 5.85 0 0 1 .19-1.35 2 2 0 0 1 .49-.91 1.19 1.19 0 0 1 .81-.34 2.25 2.25 0 0 1 1.16.37 4.34 4.34 0 0 1 1.14 1 6 6 0 0 1 .81 1.27 6.77 6.77 0 0 1 .49 1.48 8.43 8.43 0 0 1 .2 1.58v.59 1.32.57a5.85 5.85 0 0 1 -.19 1.35 2 2 0 0 1 -.49.91 1.19 1.19 0 0 1 -.82.33 2.36 2.36 0 0 1 -1.14-.37 4.5 4.5 0 0 1 -1.16-1 5.9 5.9 0 0 1 -.81-1.26 7.14 7.14 0 0 1 -.49-1.48 9.22 9.22 0 0 1 -.19-1.57c0-.18 0-.38 0-.59s0-.44 0-.66 0-.45 0-.66-.01-.41 0-.58zm4.08 2.42a4.53 4.53 0 0 0 -.42-1.79 2.61 2.61 0 0 0 -1-1.13.84.84 0 0 0 -1 0 1.77 1.77 0 0 0 -.41 1.3v1.16s0 .82 0 1.18a4.28 4.28 0 0 0 .41 1.78 2.69 2.69 0 0 0 1 1.13.84.84 0 0 0 1 0 1.81 1.81 0 0 0 .42-1.3c0-.34 0-.73 0-1.16s.01-.81 0-1.17z"
        fill="#455a64" />
    <path
        d="m361.06 243.57a.6.6 0 0 1 -.24-.26c-.05-.11-.09-.2-.11-.26l-2.52-7.22v5.71a.28.28 0 0 1 -.08.22c0 .05-.1.05-.17 0l-.73-.42a.54.54 0 0 1 -.17-.21.82.82 0 0 1 -.07-.3v-9a.37.37 0 0 1 .07-.23.15.15 0 0 1 .17 0l.63.37a.55.55 0 0 1 .24.26l.12.26 2.51 7.22v-5.71a.28.28 0 0 1 .08-.22c0-.05.1-.05.17 0l.73.42a.44.44 0 0 1 .17.2.73.73 0 0 1 .07.31v8.95a.28.28 0 0 1 -.07.22.12.12 0 0 1 -.17 0z"
        fill="#455a64" />
    <path
        d="m367.42 247.25a.56.56 0 0 1 -.23-.27 1.73 1.73 0 0 1 -.12-.26l-2.52-7.22v5.71a.32.32 0 0 1 -.07.22.12.12 0 0 1 -.17 0l-.73-.42a.41.41 0 0 1 -.17-.21.75.75 0 0 1 -.08-.31v-8.95a.28.28 0 0 1 .08-.22c0-.05.1-.05.17 0l.63.36a.58.58 0 0 1 .23.26l.12.26 2.52 7.22v-5.71a.29.29 0 0 1 .07-.22.12.12 0 0 1 .17 0l.73.42a.46.46 0 0 1 .17.21.66.66 0 0 1 .07.3v9a.29.29 0 0 1 -.07.22.13.13 0 0 1 -.17 0z"
        fill="#455a64" />
    <path
        d="m373.89 249.25a.46.46 0 0 1 .17.21.66.66 0 0 1 .07.3v1a.29.29 0 0 1 -.07.22.13.13 0 0 1 -.17 0l-3.95-2.28a.46.46 0 0 1 -.17-.21.66.66 0 0 1 -.07-.3v-9a.29.29 0 0 1 .07-.22.13.13 0 0 1 .17 0l3.88 2.24a.54.54 0 0 1 .17.21.66.66 0 0 1 .07.3v1a.29.29 0 0 1 -.07.22.12.12 0 0 1 -.17 0l-2.91-1.68v2.21l2.71 1.56a.46.46 0 0 1 .17.21.66.66 0 0 1 .07.3v1a.29.29 0 0 1 -.07.22.12.12 0 0 1 -.17 0l-2.71-1.56v2.3z"
        fill="#455a64" />
    <path
        d="m379.07 250.89a.26.26 0 0 1 .09-.21.17.17 0 0 1 .17 0l.73.42a.54.54 0 0 1 .17.21.67.67 0 0 1 .07.31 3.76 3.76 0 0 1 -.19 1 1.53 1.53 0 0 1 -.48.75 1.23 1.23 0 0 1 -.82.27 2.45 2.45 0 0 1 -1.19-.4 4 4 0 0 1 -1.1-.92 5.44 5.44 0 0 1 -.81-1.26 6.88 6.88 0 0 1 -.52-1.51 9.09 9.09 0 0 1 -.22-1.66c0-.36 0-.75 0-1.18s0-.81 0-1.15a5.64 5.64 0 0 1 .22-1.41 2 2 0 0 1 .52-.91 1.19 1.19 0 0 1 .81-.33 2.25 2.25 0 0 1 1.1.35 4.59 4.59 0 0 1 1.19 1 5.67 5.67 0 0 1 .82 1.22 5.45 5.45 0 0 1 .48 1.31 6.47 6.47 0 0 1 .19 1.23c0 .12 0 .19-.07.23a.14.14 0 0 1 -.17 0l-.73-.42a.53.53 0 0 1 -.17-.19.68.68 0 0 1 -.1-.33 2.9 2.9 0 0 0 -.13-.61 3.52 3.52 0 0 0 -.27-.63 3.27 3.27 0 0 0 -.43-.59 2.59 2.59 0 0 0 -.61-.48 1.12 1.12 0 0 0 -.62-.19.63.63 0 0 0 -.43.19 1.12 1.12 0 0 0 -.27.51 2.82 2.82 0 0 0 -.11.75v1.16s0 .81 0 1.17a4.42 4.42 0 0 0 .11.89 3.5 3.5 0 0 0 .27.81 3.28 3.28 0 0 0 .43.7 2.38 2.38 0 0 0 .62.52 1.46 1.46 0 0 0 .61.22.77.77 0 0 0 .44-.09.75.75 0 0 0 .27-.31 1.36 1.36 0 0 0 .13-.44z"
        fill="#455a64" />
    <path
        d="m385.55 248a.54.54 0 0 1 .17.21.82.82 0 0 1 .07.3v1a.34.34 0 0 1 -.07.22.12.12 0 0 1 -.17 0l-1.62-.93v7.59a.28.28 0 0 1 -.08.22c0 .05-.1.05-.17 0l-.73-.42a.47.47 0 0 1 -.17-.21.66.66 0 0 1 -.07-.3v-7.59l-1.62-.94a.46.46 0 0 1 -.17-.21.66.66 0 0 1 -.07-.3v-1a.29.29 0 0 1 .07-.22.12.12 0 0 1 .17 0z"
        fill="#455a64" />
    <path
        d="m386.93 258.51a.54.54 0 0 1 -.17-.21.66.66 0 0 1 -.07-.3v-9a.29.29 0 0 1 .07-.22.14.14 0 0 1 .17 0l.73.42a.46.46 0 0 1 .17.21.67.67 0 0 1 .07.31v8.95a.29.29 0 0 1 -.07.22.13.13 0 0 1 -.17 0z"
        fill="#455a64" />
    <path
        d="m389.09 253.67a5.48 5.48 0 0 1 .2-1.35 2 2 0 0 1 .49-.91 1.14 1.14 0 0 1 .8-.33 2.25 2.25 0 0 1 1.16.37 4.34 4.34 0 0 1 1.14 1 5.72 5.72 0 0 1 .81 1.27 7.37 7.37 0 0 1 .5 1.48 8.23 8.23 0 0 1 .19 1.58v.59 1.32.57a5.36 5.36 0 0 1 -.19 1.35 2 2 0 0 1 -.49.91 1.14 1.14 0 0 1 -.82.32 2.16 2.16 0 0 1 -1.14-.37 4.28 4.28 0 0 1 -1.16-.95 5.56 5.56 0 0 1 -.8-1.27 6.51 6.51 0 0 1 -.49-1.47 8.43 8.43 0 0 1 -.2-1.58c0-.17 0-.37 0-.59s0-.43 0-.66 0-.44 0-.65-.01-.45 0-.63zm4.08 2.43a4.49 4.49 0 0 0 -.42-1.79 2.55 2.55 0 0 0 -1-1.13c-.42-.24-.76-.26-1 0a1.78 1.78 0 0 0 -.41 1.3v1.17s0 .82 0 1.18a4.28 4.28 0 0 0 .41 1.78 2.66 2.66 0 0 0 1 1.12c.42.24.76.26 1 .05a1.83 1.83 0 0 0 .42-1.3c0-.35 0-.73 0-1.16s.01-.86 0-1.22z"
        fill="#455a64" />
    <path
        d="m399.66 265.86a.6.6 0 0 1 -.24-.26c-.05-.12-.09-.2-.11-.26l-2.52-7.22v5.71a.29.29 0 0 1 -.08.22.13.13 0 0 1 -.17 0l-.73-.42a.54.54 0 0 1 -.17-.21.82.82 0 0 1 -.07-.31v-9a.34.34 0 0 1 .07-.22.14.14 0 0 1 .17 0l.63.36a.6.6 0 0 1 .24.26c.05.12.09.2.11.26l2.53 7.22v-5.7a.3.3 0 0 1 .07-.23.13.13 0 0 1 .17 0l.73.42a.54.54 0 0 1 .17.21.67.67 0 0 1 .07.31v9a.29.29 0 0 1 -.07.22.14.14 0 0 1 -.17 0z"
        fill="#455a64" />
    <path
        d="m310.45 98.52 1.55 2.48.14.26a.73.73 0 0 1 .07.31v.87.13s-.06 0-.1 0v-.06l-2.33-3.76a1.34 1.34 0 0 1 -.14-.26.78.78 0 0 1 -.05-.28v-.43a.37.37 0 0 1 .05-.22.39.39 0 0 1 .14-.1l2.22-1.13a.24.24 0 0 1 .1.12.39.39 0 0 1 0 .18v.87a.28.28 0 0 1 -.07.22 1.1 1.1 0 0 1 -.14.11z"
        fill="#455a64" />
    <path
        d="m313.25 103.73a.35.35 0 0 1 -.12-.16.46.46 0 0 1 -.06-.22v-6.61a.21.21 0 0 1 .06-.17.09.09 0 0 1 .12 0l2 1.13a2.63 2.63 0 0 1 .71.61 3.82 3.82 0 0 1 .46.77 5.24 5.24 0 0 1 .25.8 3.86 3.86 0 0 1 .07.71 2.44 2.44 0 0 1 0 .51 1.62 1.62 0 0 1 -.13.34 1 1 0 0 1 -.15.19.41.41 0 0 1 -.13.08 3.8 3.8 0 0 1 .38.83 3.21 3.21 0 0 1 .17 1.1 2.73 2.73 0 0 1 -.09.72 1.26 1.26 0 0 1 -.27.53.67.67 0 0 1 -.45.24 1.06 1.06 0 0 1 -.62-.17zm2.56-3.62a1.34 1.34 0 0 0 -.16-.68 1.18 1.18 0 0 0 -.5-.49l-1.15-.68v1.57l1.18.68c.23.14.4.17.5.09s.13-.23.13-.49zm-1.81 2.75 1.23.71c.25.15.43.17.54.07a.67.67 0 0 0 .17-.53 1.62 1.62 0 0 0 -.18-.74 1.33 1.33 0 0 0 -.53-.55l-1.23-.71z"
        fill="#455a64" />
    <path
        d="m317.58 102.21a1.17 1.17 0 0 1 .12-.39.66.66 0 0 1 .27-.3.75.75 0 0 1 .43-.11 1.44 1.44 0 0 1 .6.21 2.58 2.58 0 0 1 .61.49 3 3 0 0 1 .47.68 3.47 3.47 0 0 1 .3.84 4.48 4.48 0 0 1 .11 1v3a.22.22 0 0 1 -.05.16.09.09 0 0 1 -.13 0l-.51-.29a.38.38 0 0 1 -.12-.15.49.49 0 0 1 -.06-.23v-.34a.59.59 0 0 1 -.4.28 1 1 0 0 1 -.67-.18 2.24 2.24 0 0 1 -.51-.41 2.57 2.57 0 0 1 -.38-.55 3 3 0 0 1 -.23-.65 2.59 2.59 0 0 1 -.09-.68c0-.48.11-.78.33-.92a1 1 0 0 1 .87 0l1.08.34a1.25 1.25 0 0 0 -.18-.7 1.13 1.13 0 0 0 -.44-.43.47.47 0 0 0 -.26-.08.38.38 0 0 0 -.18.09.21.21 0 0 1 -.11 0h-.11l-.62-.36a.29.29 0 0 1 -.11-.13.29.29 0 0 1 -.03-.19zm1.11 3.53a.78.78 0 0 0 .4.13.39.39 0 0 0 .3-.09.48.48 0 0 0 .17-.26.94.94 0 0 0 .06-.39v-.13l-.9-.28a.52.52 0 0 0 -.39 0c-.08 0-.12.15-.12.3a.65.65 0 0 0 .14.4 1.21 1.21 0 0 0 .34.32z"
        fill="#455a64" />
    <path
        d="m322.07 105.8v.35s0 .26 0 .37a3.29 3.29 0 0 0 .1.59 1.84 1.84 0 0 0 .18.47 1.54 1.54 0 0 0 .24.35 1.31 1.31 0 0 0 .27.22.85.85 0 0 0 .28.12.27.27 0 0 0 .2 0 .28.28 0 0 0 .13-.09.64.64 0 0 0 .11-.16l.09-.13a.09.09 0 0 1 .13 0l.51.29a.36.36 0 0 1 .13.16.64.64 0 0 1 .05.23 1.74 1.74 0 0 1 -.1.46 1.06 1.06 0 0 1 -.29.42.83.83 0 0 1 -.51.19 1.45 1.45 0 0 1 -.73-.23 2.32 2.32 0 0 1 -.65-.57 3.71 3.71 0 0 1 -.51-.81 4.21 4.21 0 0 1 -.34-.94 5.68 5.68 0 0 1 -.15-1c0-.13 0-.27 0-.42s0-.29 0-.41a2.86 2.86 0 0 1 .14-.82 1.48 1.48 0 0 1 .34-.55.75.75 0 0 1 .51-.22 1.12 1.12 0 0 1 .66.19 2.43 2.43 0 0 1 .73.62 3.61 3.61 0 0 1 .51.76 4.86 4.86 0 0 1 .29.76 3.35 3.35 0 0 1 .1.58.26.26 0 0 1 -.05.17.1.1 0 0 1 -.13 0l-.51-.29a.35.35 0 0 1 -.13-.17l-.09-.23a2 2 0 0 0 -.11-.29c0-.08-.08-.17-.13-.25a1.43 1.43 0 0 0 -.2-.23 1.06 1.06 0 0 0 -.28-.2.58.58 0 0 0 -.27-.09.34.34 0 0 0 -.24.06.52.52 0 0 0 -.18.26 1.82 1.82 0 0 0 -.1.48z"
        fill="#455a64" />
    <path
        d="m326.08 109.09v1.77a.21.21 0 0 1 -.06.16.09.09 0 0 1 -.12 0l-.51-.29a.36.36 0 0 1 -.13-.16.59.59 0 0 1 -.05-.22v-6.72a.22.22 0 0 1 .05-.16.09.09 0 0 1 .13 0l.51.29a.38.38 0 0 1 .12.15.49.49 0 0 1 .06.23v3.22l1.11-.74a.46.46 0 0 1 .1-.05.15.15 0 0 1 .15 0l.68.39a.24.24 0 0 1 .12.14.45.45 0 0 1 0 .2.28.28 0 0 1 0 .09s0 0-.06.07l-1.55 1 1.7 3.49.05.13a.34.34 0 0 1 0 .1.21.21 0 0 1 0 .15.09.09 0 0 1 -.12 0l-.64-.37a.44.44 0 0 1 -.17-.16.62.62 0 0 1 -.1-.17z"
        fill="#455a64" />
    <path
        d="m85.55 57.11 14.46 25c1.39 2.41.25 4.39-2.54 4.39h-30.06a2.93 2.93 0 0 1 -2.54-4.39l14.46-25c1.67-2.96 4.51-2.96 6.22 0z"
        fill="#4eb77c" />
    <path
        d="m81.43 77.26h2.22a.76.76 0 0 0 .78-.65l.9-12.88a.63.63 0 0 0 -.68-.65h-4.21a.62.62 0 0 0 -.69.61l.9 13a.74.74 0 0 0 .78.57z"
        fill="#fff" />
    <path d="m82.54 83.5a2.27 2.27 0 1 0 -2.27-2.27 2.25 2.25 0 0 0 2.27 2.27z" fill="#fff" />
    <path
        d="m53.9 73.3a28.69 28.69 0 1 1 57.37 0 28.43 28.43 0 0 1 -8.38 20.23 13.15 13.15 0 0 0 9.62 4.86.5.5 0 0 1 .47.33.48.48 0 0 1 -.16.55c-4.1 3.36-12.55 3.43-18.56.2a28.27 28.27 0 0 1 -11.68 2.53 28.72 28.72 0 0 1 -28.68-28.7zm40.63 25.18c5.09 2.84 12.37 3.11 16.52.79a14.33 14.33 0 0 1 -9.22-5.5.5.5 0 0 1 .06-.65 27.82 27.82 0 1 0 -7.81 5.34.48.48 0 0 1 .2 0 .54.54 0 0 1 .25.02z"
        fill="#455a64" />
</svg>