<svg enable-background="new 0 0 496 496" viewBox="0 0 496 496" xmlns="http://www.w3.org/2000/svg"><path d="m496 309.6c0 27.2-6.4 48.8-32.8 48.8h-430.4c-27.2 0-32.8-21.6-32.8-48.8v-123.2c0-27.2 21.6-48.8 48.8-48.8h398.4c27.2 0 48.8 21.6 48.8 48.8z" fill="#b3dce0"/><path d="m0 186.4c0-27.2 21.6-48.8 48.8-48.8h398.4c27.2 0 48.8 21.6 48.8 48.8" fill="#c1e3e5"/><path d="m464.8 308.8c0 5.6-4 9.6-9.6 9.6h-414.4c-5.6 0-9.6-4-9.6-9.6 0-5.6 4-9.6 9.6-9.6h414.4c5.6 0 9.6 4 9.6 9.6z" fill="#9ecacc"/><path d="m31.2 308.8c0-5.6 4-9.6 9.6-9.6h414.4c5.6 0 9.6 4 9.6 9.6" fill="#7eaaaa"/><path d="m464.8 336c0 5.6-4 9.6-9.6 9.6h-414.4c-5.6 0-9.6-4-9.6-9.6 0-5.6 4-9.6 9.6-9.6h414.4c5.6 0 9.6 4 9.6 9.6z" fill="#9ecacc"/><path d="m31.2 336c0-5.6 4-9.6 9.6-9.6h414.4c5.6 0 9.6 4 9.6 9.6" fill="#7eaaaa"/><path d="m145.6 267.2c0 2.4-2.4 4.8-4.8 4.8h-101.6c-2.4 0-4.8-2.4-4.8-4.8v-33.6c0-2.4 2.4-4.8 4.8-4.8h102.4c2.4 0 4.8 2.4 4.8 4.8v33.6z" fill="#46bc5c"/><path d="m140.8 229.6c2.4 0 4.8 2.4 4.8 4.8v33.6c0 2.4-2.4 4.8-4.8 4.8h-101.6c-2.4 0-4.8-2.4-4.8-4.8" fill="#2fa53f"/></svg>