<svg enable-background="new 0 0 360 360" viewBox="0 0 360 360" xmlns="http://www.w3.org/2000/svg">
    <path
        d="m30 235c0-22.094 17.908-40 40-40v-30c-38.659 0-70 31.338-70 70s31.341 70 70 70v-30c-22.092 0-40-17.908-40-40z"
        fill="#616064" />
    <g fill="#565659">
        <path
            d="m76.893 195.604 12.653-27.817c-6.206-1.803-12.759-2.787-19.546-2.787v30c2.352 0 4.652.215 6.893.604z" />
        <path
            d="m70 275v30c36.961 0 67.209-28.649 69.799-64.952l-30.124-.022c-2.474 19.716-19.287 34.974-39.675 34.974z" />
        <path
            d="m115.943 182.211-12.649 27.809 32.109.025c-4.133-10.826-10.876-20.356-19.46-27.834z" />
    </g>
    <path
        d="m30 235c0 22.092 17.908 40 40 40 20.388 0 37.201-15.258 39.675-34.975l-29.687-.023-13.643-21.211 10.547-23.188c-2.24-.388-4.54-.603-6.892-.603-22.092 0-40 17.906-40 40z"
        fill="#fff" />
    <path
        d="m250 235c0-13.078 6.277-24.688 15.981-31.986l-7.242-30.644c-22.963 11.484-38.739 35.207-38.739 62.63 0 38.662 31.341 70 70 70v-30c-22.091 0-40-17.908-40-40z"
        fill="#616064" />
    <path
        d="m290 165c-.661 0-1.315.031-1.973.05l1.973 8.275 5.25 22.028c19.607 2.573 34.75 19.335 34.75 39.647 0 22.092-17.909 40-40 40v30c38.659 0 70-31.338 70-70s-31.341-70-70-70z"
        fill="#565659" />
    <path
        d="m274.82 240.413-8.839-37.399c-9.704 7.299-15.981 18.908-15.981 31.986 0 22.092 17.909 40 40 40s40-17.908 40-40c0-20.313-15.143-37.074-34.75-39.646l10.738 45.06h-31.168z"
        fill="#fff" />
    <path
        d="m274.82 240.413h31.168l-10.738-45.059-5.25-22.029-1.973-8.275-19.077-80.05h31.05v-30h-69l16.563 70.079h-67.563v30h74.652l4.087 17.291 7.242 30.644z"
        fill="#bf3c1a" />
    <path
        d="m160 125.079h-51.028l-19.426 42.707-12.653 27.817-10.547 23.188 13.643 21.211 29.687.023 30.124.022 14.213.011c-2.547-4.408-4.012-9.521-4.012-14.979 0-5.474 1.474-10.602 4.035-15.02l-18.632-.015-32.109-.025 12.649-27.809 14.052-30.894 25.601 56.323c5.443-7.602 14.342-12.561 24.404-12.561.98 0 1.949.051 2.905.143l-18.247-40.143h15.341v-30h-20z"
        fill="#ff5023" />
    <path
        d="m155.596 207.641c-.558.779-1.078 1.586-1.561 2.419-2.562 4.418-4.035 9.546-4.035 15.02 0 5.458 1.465 10.571 4.012 14.979 5.186 8.977 14.878 15.021 25.988 15.021v-60c-10.062-.001-18.961 4.959-24.404 12.561z"
        fill="#dedde0" />
    <path
        d="m180 255.079c16.568 0 30-13.432 30-30 0-15.588-11.891-28.396-27.095-29.857-.956-.092-1.925-.143-2.905-.143z"
        fill="#cdcdd0" />
    <path d="m160 95.079h-80v30h28.972 51.028z" fill="#565659" />
</svg>