<svg enable-background="new 0 0 512.001 512.001" viewBox="0 0 512.001 512.001"
    xmlns="http://www.w3.org/2000/svg">
    <path
        d="m234.67 373.429-183.77 9.571c-5.95.31-12.115 5.015-10.834 10.833l21.332 96.667c1.285 5.818 4.879 10.833 10.834 10.833h313.668c5.942 0 7.655-5.814 10.832-10.833l74.671-118.001c3.178-5.019-4.883-11.143-10.834-10.833l-183.229 9.542z"
        fill="#7ba9d6" />
    <path
        d="m234.67 166.785v163.922 42.723l42.669-2.222v-42.723-296.485c0-11.734-9.601-21.332-21.332-21.332-11.736 0-21.337 9.599-21.337 21.332v55.916z"
        fill="#f9eacd" />
    <path d="m277.339 32v296.484l148.769-7.748c16.261-.846 24.058-17.886 14.547-32.771z"
        fill="#9fdee2" />
    <path
        d="m234.67 330.707v-163.922-78.87l-8.332 10.92c-19.656 25.52-120.656 144.985-155.754 199.638-12.613 19.64-5 41.037 12.147 40.145z"
        fill="#9fdee2" />
    <g fill="#000003">
        <path
            d="m480.741 362.365c-3.629-6.593-11.928-11.379-19.73-11.379-.335 0-.669.009-.996.026l-172.008 8.957v-21.36l138.655-7.221c11.072-.576 20.578-6.55 25.429-15.979 5.24-10.183 4.326-22.59-2.442-33.183l-161.824-253.626c-1.703-16.052-15.321-28.6-31.818-28.6-17.647 0-32.004 14.355-32.004 32v52.31l-6.114 8.016c-5.042 6.543-15.717 19.61-29.235 36.152-37.696 46.131-100.785 123.339-127.045 164.23-9.227 14.369-10.582 30.837-3.535 42.98 4.999 8.61 13.765 13.623 23.672 13.623.511 0 1.025-.013 1.541-.041l140.716-7.327v21.36l-173.658 9.044c-6.765.353-13.393 3.758-17.299 8.889-3.342 4.386-4.549 9.675-3.396 14.896l21.332 96.67c2.577 11.663 10.917 19.199 21.249 19.199h313.669c11.006 0 15.784-8.595 18.351-13.211.518-.936 1.01-1.82 1.496-2.585l74.671-118.001c3.027-4.787 3.147-10.707.323-15.839zm-47.62-56.715c-1.398 2.715-4.015 4.248-7.57 4.433l-137.545 7.163v-248.695l143.66 225.157c2.637 4.125 3.178 8.59 1.455 11.942zm-350.945 22.315c-2.592.133-4.392-.816-5.65-2.988-2.431-4.188-2.435-12.225 3.034-20.74 25.601-39.866 88.207-116.482 125.613-162.26 7.215-8.828 13.614-16.66 18.83-23.103v44.284c-5.876 7.641-22.395 29.096-36.171 46.78-3.622 4.648-2.787 11.35 1.858 14.97 1.948 1.518 4.256 2.253 6.549 2.253 3.178 0 6.319-1.412 8.423-4.112 6.3-8.089 13.172-16.96 19.341-24.946v122.477zm163.162-295.965c0-5.881 4.787-10.665 10.669-10.665s10.665 4.784 10.665 10.665v329.082l-21.335 1.112v-330.194zm142.381 452.794c-.809 1.278-1.502 2.528-2.116 3.63-.373.673-.868 1.563-1.288 2.241h-311.554c-.267-.402-.667-1.201-.946-2.464l-20.847-94.467c.158-.043.325-.074.487-.082l407.361-21.214z" />
        <path
            d="m184.713 231.406c-4.565-3.721-11.284-3.037-15.007 1.53-.367.448-.695.844-.977 1.182-3.775 4.524-3.167 11.251 1.356 15.025 1.996 1.665 4.419 2.477 6.829 2.477 3.052 0 6.086-1.306 8.197-3.834.325-.391.708-.85 1.132-1.371 3.721-4.568 3.037-11.287-1.53-15.009z" />
        <path
            d="m387.852 419.993c.164 0 .331-.003.498-.012l.927-.043c5.886-.263 10.442-5.249 10.178-11.134s-5.257-10.442-11.134-10.179l-.95.044c-5.884.27-10.436 5.26-10.165 11.145.262 5.72 4.979 10.179 10.646 10.179z" />
        <path
            d="m290.64 425.534c.289 0 .581-.012.875-.035 14.755-1.196 36.19-2.498 65.523-3.981 5.884-.298 10.411-5.308 10.115-11.192-.298-5.885-5.338-10.412-11.192-10.115-29.962 1.514-50.988 2.793-66.17 4.024-5.873.476-10.246 5.622-9.771 11.494.453 5.578 5.12 9.805 10.62 9.805z" />
    </g>
</svg>