<svg enable-background="new 0 0 512 512" viewBox="0 0 512 512" xmlns="http://www.w3.org/2000/svg">
    <path d="m461.976 47.58v67.816h-182.616l67.728-67.848" fill="#415e72" />
    <path
        d="m28.712 95.212h454.576c13.648 0 24.712 11.064 24.712 24.712v315.808c0 13.648-11.064 24.712-24.712 24.712h-454.576c-13.648 0-24.712-11.064-24.712-24.712v-315.808c0-13.656 11.064-24.712 24.712-24.712z"
        fill="#fff" />
    <path
        d="m483.288 99.22c11.432.016 20.696 9.272 20.712 20.704v315.816c-.016 11.432-9.28 20.696-20.712 20.712h-454.576c-11.432-.016-20.696-9.28-20.712-20.72v-315.808c.016-11.432 9.28-20.696 20.712-20.712zm0-8.008h-454.576c-15.84.048-28.664 12.872-28.712 28.712v315.816c.048 15.84 12.872 28.664 28.712 28.712h454.576c15.84-.048 28.664-12.872 28.712-28.712v-315.816c-.048-15.84-12.872-28.664-28.712-28.712z"
        fill="#aac1ce" />
    <circle cx="270.36" cy="277.828" fill="#dbdfe4" r="83.496" />
    <circle cx="270.36" cy="277.828" fill="#415e72" r="114.192" />
    <circle cx="270.36" cy="277.828" fill="#e04f5f" r="90.176" />
    <circle cx="270.36" cy="277.828" fill="#415e72" r="33.36" />
    <circle cx="218.648" cy="224.076" fill="#fff" r="15.68" />
    <path d="m44.248 132.884h69.2v35.904h-69.2z" fill="#415e72" />
    <path d="m96.32 132.884h20.144v35.904h-20.144z" fill="#e21b1b" />
</svg>