<svg enable-background="new 0 0 512 512" viewBox="0 0 512 512" xmlns="http://www.w3.org/2000/svg">
    <path
        d="m404 200h-32c-8.589 0-16.727 1.934-24 5.389l.002 50.592c.011-13.225 10.771-23.981 23.998-23.981h32c13.234 0 24 10.766 24 24v96c0 13.233-10.766 24-24 24h-32c-13.212 0-23.958-10.732-23.994-23.937l.002 50.552c7.273 3.453 15.406 5.385 23.992 5.385h32c30.928 0 56-25.072 56-56v-96c0-30.928-25.072-56-56-56z"
        fill="#8b8996" />
    <path
        d="m316 464c-4.422 0-8 3.578-8 8h-208c0-4.422-3.578-8-8-8s-8 3.578-8 8c0 22.055 17.945 40 40 40h160c22.055 0 40-17.945 40-40 0-4.422-3.578-8-8-8z"
        fill="#5c546a" />
    <path
        d="m340 144h-272c-8.82 0-16 7.18-16 16v280c0 22.055 17.945 40 40 40h224c22.055 0 40-17.945 40-40v-280c0-8.82-7.18-16-16-16z"
        fill="#b9bbc1" />
    <g fill="#d8dce1">
        <path
            d="m196 128c-4.422 0-8-3.578-8-8 0-12.289 5.508-18.711 9.93-23.867 3.656-4.258 6.07-7.078 6.07-13.445 0-6.375-2.414-9.195-6.078-13.469-4.422-5.157-9.922-11.578-9.922-23.875s5.5-18.719 9.922-23.875c3.664-4.274 6.078-7.094 6.078-13.469 0-4.422 3.578-8 8-8s8 3.578 8 8c0 12.297-5.5 18.719-9.922 23.875-3.664 4.273-6.078 7.094-6.078 13.469s2.414 9.195 6.078 13.469c4.422 5.156 9.922 11.578 9.922 23.874 0 12.289-5.508 18.711-9.93 23.867-3.656 4.258-6.07 7.078-6.07 13.445 0 4.423-3.578 8.001-8 8.001z" />
        <path
            d="m236 128c-4.422 0-8-3.578-8-8 0-12.289 5.508-18.711 9.93-23.867 3.656-4.258 6.07-7.078 6.07-13.445 0-6.375-2.414-9.195-6.078-13.469-4.422-5.157-9.922-11.578-9.922-23.875 0-4.422 3.578-8 8-8s8 3.578 8 8c0 6.375 2.414 9.195 6.078 13.469 4.422 5.156 9.922 11.578 9.922 23.874 0 12.289-5.508 18.711-9.93 23.867-3.656 4.258-6.07 7.078-6.07 13.445 0 4.423-3.578 8.001-8 8.001z" />
        <path
            d="m156 128c-4.422 0-8-3.578-8-8 0-12.289 5.508-18.711 9.93-23.867 3.656-4.258 6.07-7.078 6.07-13.445 0-6.375-2.414-9.195-6.078-13.469-4.422-5.157-9.922-11.578-9.922-23.875 0-4.422 3.578-8 8-8s8 3.578 8 8c0 6.375 2.414 9.195 6.078 13.469 4.422 5.156 9.922 11.578 9.922 23.874 0 12.289-5.508 18.711-9.93 23.867-3.656 4.258-6.07 7.078-6.07 13.445 0 4.423-3.578 8.001-8 8.001z" />
    </g>
    <path d="m204 144h-136c-8.82 0-16 7.18-16 16v280c0 22.055 17.945 40 40 40h112z"
        fill="#8b8996" />
</svg>