<svg enable-background="new 0 0 109.602 109.602" viewBox="0 0 109.602 109.602"
    xmlns="http://www.w3.org/2000/svg" height="256" width="256">
    <g fill="#54b4d3">
        <ellipse cx="99.549" cy="28.919" rx="1.51" ry=".752" />
        <path
            d="m106.585 17.166h-39.142c-1.657 0-3.013 1.356-3.013 3.01v10.894h6.027v-8.353h33.119v9.029h-28.413v8.278h28.412v1.507h-28.412v7.526h28.412v1.503h-28.412v34.189h-10.726v4.67c0 1.653 1.356 3.01 3.01 3.01h39.145c1.653 0 3.01-1.356 3.01-3.01v-69.247c-.007-1.65-1.363-3.006-3.017-3.006zm-19.576 55.361c-2.491 0-4.517-2.018-4.517-4.517 0-2.491 2.022-4.517 4.517-4.517 2.494 0 4.52 2.018 4.52 4.517s-2.026 4.517-4.52 4.517z" />
        <path d="m0 34.652h71.577v46.525h-71.577z"

        />
        <path d="m25.052 85.279-7.158 7.157h35.789l-7.158-7.157z" />
    </g>
</svg>