<svg enable-background="new 0 0 302.349 302.349" viewBox="0 0 302.349 302.349"
    xmlns="http://www.w3.org/2000/svg">
    <path
        d="m100.375 57.6c2.303-7.974 1.83-11.55 1.83-33.77 0-9.008 7.302-16.32 16.32-16.32 9.02 0 16.33 7.31 16.33 16.32 0-9.01 7.31-16.32 16.32-16.32s16.32 7.31 16.32 16.32c0-4.51 1.83-8.59 4.78-11.54 10.279-10.244 27.87-2.954 27.87 11.54 0 22.278-.467 25.816 1.83 33.77z"
        fill="#cbe5c0" />
    <path
        d="m257.335 218.82c0 58.63-47.53 76.03-106.16 76.03s-106.16-17.4-106.16-76.03c0-36.07 18-99.06 45.5-142.2.47.07.95.11 1.44.11h118.44c.49 0 .97-.04 1.44-.11 27.5 43.14 45.5 106.13 45.5 142.2z"
        fill="#cbe5c0" />
    <path
        d="m219.955 67.16c0 2.64-1.07 5.04-2.8 6.77-1.41 1.41-3.26 2.38-5.32 2.69-.47.07-.95.11-1.44.11h-118.44c-.49 0-.97-.04-1.44-.11-4.59-.69-8.12-4.66-8.12-9.46 0-2.64 1.07-5.03 2.8-6.76s4.12-2.8 6.76-2.8h118.44c5.28 0 9.56 4.28 9.56 9.56z"
        fill="#f59d00" />
    <circle cx="151.175" cy="186.936" fill="#ffda79" r="55.989" />
    <g fill="#13829b">
        <path
            d="m222.305 79.374c.05-.049.104-.092.154-.142 10.661-10.664 3.154-29.133-12.064-29.133h-2.368c-.499-3.561-.382-3.527-.382-26.27 0-20.839-25.003-31.586-40.157-17.343-9.187-8.646-23.462-8.632-32.634.009-15.042-14.164-40.149-3.66-40.149 17.334 0 22.705.117 22.706-.382 26.27h-2.368c-15.263 0-22.818 18.544-11.897 29.251-26.718 45.234-42.543 105.31-42.543 139.47 0 63.223 50.694 83.53 113.66 83.53 62.962 0 113.66-20.305 113.66-83.53 0-34.154-15.82-94.215-42.53-139.446zm-112.6-55.545c0-4.875 3.945-8.82 8.82-8.82 4.869 0 8.83 3.957 8.83 8.82 0 4.142 3.358 7.5 7.5 7.5s7.5-3.358 7.5-7.5c0-4.863 3.956-8.82 8.82-8.82 4.863 0 8.82 3.957 8.82 8.82 0 4.142 3.357 7.5 7.5 7.5s7.5-3.358 7.5-7.5c0-2.356.918-4.571 2.573-6.228 5.547-5.527 15.076-1.631 15.076 6.228 0 22.505-.087 22.683.274 26.27h-13.883l2.297-4.281c1.959-3.65.588-8.196-3.063-10.155-3.648-1.959-8.196-.586-10.154 3.063l-6.102 11.373h-21.678l-6.102-11.373c-1.958-3.65-6.506-5.02-10.155-3.063-3.65 1.958-5.021 6.505-3.063 10.155l2.297 4.281h-13.882c.36-3.564.275-3.566.275-26.27zm-17.75 41.27h118.44c2.689 0 2.759 4.13 0 4.13-.259 0-118.514.009-118.77-.028-2.446-.375-2.226-4.102.33-4.102zm59.22 222.25c-54.095 0-98.66-14.477-98.66-68.53 0-32.102 16.03-91.828 42.094-134.59h16.899l-8.565 17.554c-1.816 3.723-.271 8.213 3.451 10.029 3.725 1.817 8.214.269 10.029-3.451l11.775-24.132h15.477v13.367c0 4.142 3.358 7.5 7.5 7.5 4.143 0 7.5-3.358 7.5-7.5v-13.367h15.477l11.775 24.132c1.817 3.724 6.309 5.267 10.029 3.451 3.723-1.816 5.268-6.307 3.451-10.029l-8.566-17.554h16.9c26.063 42.763 42.094 102.488 42.094 134.59 0 54.069-44.592 68.53-98.66 68.53z" />
        <path
            d="m151.175 123.447c-35.008 0-63.489 28.481-63.489 63.489s28.481 63.489 63.489 63.489 63.489-28.481 63.489-63.489-28.481-63.489-63.489-63.489zm0 111.978c-26.737 0-48.489-21.752-48.489-48.489s21.752-48.489 48.489-48.489 48.489 21.752 48.489 48.489-21.752 48.489-48.489 48.489z" />
        <path
            d="m155.514 181.195v-13.887c2.459.579 4.918 1.664 7.449 3.182 4.717 2.829 8.975-4.029 4.051-6.798-3.327-2.098-6.943-3.472-11.211-3.978v-1.591c0-4.176-6.292-4.053-6.292 0v1.519c-9.041.723-15.189 6.075-15.189 13.814 0 8.173 4.918 12.15 15.478 14.899v14.249c-3.978-.723-7.305-2.387-10.704-4.846-2.402-1.868-6.365-.325-6.365 3.182 0 1.519.723 2.676 1.953 3.472 4.412 3.11 9.402 5.063 14.827 5.642v4.484c0 4.053 6.292 4.177 6.292 0v-4.339c9.186-.868 15.406-6.148 15.406-14.104 0-7.74-4.702-12.151-15.695-14.9zm-5.714-1.519c-5.569-1.808-6.943-3.688-6.943-6.726 0-3.183 2.314-5.642 6.943-6.076zm5.714 23.217v-13.163c5.569 1.736 7.16 3.689 7.16 6.871 0 3.472-2.531 5.786-7.16 6.292z" />
    </g>
</svg>