<svg enable-background="new 0 0 483.2 483.2" viewBox="0 0 483.2 483.2"
    xmlns="http://www.w3.org/2000/svg">
    <path
        d="m168.8 478.4c0 2.4-2.4 4.8-4.8 4.8h-18.4c-2.4 0-4.8-2.4-4.8-4.8v-6.4c0-2.4 2.4-4.8 4.8-4.8h18.4c2.4 0 4.8 2.4 4.8 4.8z"
        fill="#03263a" />
    <path
        d="m342.4 478.4c0 2.4-2.4 4.8-4.8 4.8h-18.4c-2.4 0-4.8-2.4-4.8-4.8v-6.4c0-2.4 2.4-4.8 4.8-4.8h18.4c2.4 0 4.8 2.4 4.8 4.8z"
        fill="#03263a" />
    <path
        d="m369.6 441.6c0 32.8-26.4 29.6-59.2 29.6h-137.6c-32.8 0-59.2 3.2-59.2-29.6v-382.4c0-32.8 26.4-59.2 59.2-59.2h137.6c32.8 0 59.2 26.4 59.2 59.2z"
        fill="#ff5b00" />
    <path d="m310.4 0h-82.4v471.2h82.4c32.8 0 59.2 3.2 59.2-29.6v-382.4c0-32.8-26.4-59.2-59.2-59.2z"
        fill="#ff3c00" />
    <path d="m248.8 174.4-108.8-108-.8 70.4 38.4 37.6z" fill="#ff3c00" />
    <path d="m369.6 441.6v-6.4l-229.6-229.6-.8 70.4 195.2 195.2c20.8-.8 35.2-5.6 35.2-29.6z"
        fill="#ff3c00" />
    <path
        d="m133.6 441.6v-382.4c0-32.8 26.4-59.2 59.2-59.2h-20c-32.8 0-59.2 26.4-59.2 59.2v382.4c0 32.8 26.4 29.6 59.2 29.6-22.4 0-39.2-4-39.2-29.6z"
        fill="#ff781d" />
    <path d="m310.4 471.2h20z" fill="#ff8b00" />
    <path d="m113.6 165.6h256v19.2h-256z" fill="#03263a" />
    <path d="m113.6 174.4h256v9.6h-256z" fill="#053c54" />
    <path
        d="m152 130.4c0 4.8-4 9.6-9.6 9.6-4.8 0-9.6-4-9.6-9.6v-52.8c0-4.8 4-9.6 9.6-9.6 4.8 0 9.6 4 9.6 9.6z"
        fill="#053c54" />
    <path
        d="m138.4 68.8c-3.2 1.6-5.6 4.8-5.6 8.8v52.8c0 4 2.4 7.2 5.6 8.8 3.2-1.6 5.6-4.8 5.6-8.8v-52.8c.8-4-1.6-7.2-5.6-8.8z"
        fill="#055875" />
    <path
        d="m152 267.2c0 4.8-4 9.6-9.6 9.6-4.8 0-9.6-4-9.6-9.6v-52.8c0-4.8 4-9.6 9.6-9.6 4.8 0 9.6 4 9.6 9.6z"
        fill="#053c54" />
    <path
        d="m138.4 205.6c-3.2 1.6-5.6 4.8-5.6 8.8v52.8c0 4 2.4 7.2 5.6 8.8 3.2-1.6 5.6-4.8 5.6-8.8v-52.8c.8-4-1.6-8-5.6-8.8z"
        fill="#055875" />
    <g fill="#ff781d">
        <path
            d="m337.6 132.8c-.8 0-1.6-.8-1.6-1.6 0-.8.8-1.6 1.6-1.6h12c.8 0 1.6.8 1.6 1.6 0 .8-.8 1.6-1.6 1.6z" />
        <path
            d="m337.6 143.2c-.8 0-1.6-.8-1.6-1.6 0-.8.8-1.6 1.6-1.6h12c.8 0 1.6.8 1.6 1.6 0 .8-.8 1.6-1.6 1.6z" />
        <path
            d="m337.6 152.8c-.8 0-1.6-.8-1.6-1.6 0-.8.8-1.6 1.6-1.6h12c.8 0 1.6.8 1.6 1.6 0 .8-.8 1.6-1.6 1.6z" />
        <path
            d="m337.6 434.4c-.8 0-1.6-.8-1.6-1.6 0-.8.8-1.6 1.6-1.6h12c.8 0 1.6.8 1.6 1.6 0 .8-.8 1.6-1.6 1.6z" />
        <path
            d="m337.6 444c-.8 0-1.6-.8-1.6-1.6 0-.8.8-1.6 1.6-1.6h12c.8 0 1.6.8 1.6 1.6 0 .8-.8 1.6-1.6 1.6z" />
        <path
            d="m337.6 454.4c-.8 0-1.6-.8-1.6-1.6 0-.8.8-1.6 1.6-1.6h12c.8 0 1.6.8 1.6 1.6 0 .8-.8 1.6-1.6 1.6z" />
    </g>
</svg>