<svg enable-background="new 0 0 512 512" viewBox="0 0 512 512" xmlns="http://www.w3.org/2000/svg">
    <path
        d="m426.667 380.322v25.003c0 11.782-9.552 21.333-21.333 21.333s-21.334-9.552-21.334-21.333v-25.003c7.947-2.819 15.175-7.159 21.333-12.679 6.159 5.52 13.386 9.86 21.334 12.679z"
        fill="#806749" />
    <path
        d="m106.667 367.643c6.158 5.52 13.386 9.86 21.333 12.679v25.003c0 11.782-9.552 21.333-21.333 21.333s-21.333-9.552-21.333-21.333v-25.003c7.947-2.819 15.174-7.159 21.333-12.679z"
        fill="#806749" />
    <path
        d="m366.362 85.342c33.253 0 60.305 24.131 60.305 53.791v63.639c-23.808 8.445-41.185 30.593-42.574 56.92-6.704-2.389-13.912-3.701-21.426-3.701h-106.667v-170.649z"
        fill="#ffb655" />
    <path
        d="m124.331 341.325c2.368-6.677 3.669-13.855 3.669-21.333v-56.889c0-1.143-.033-2.281-.092-3.41 6.704-2.389 13.912-3.701 21.426-3.701h106.666v85.333 42.667h-106.667c-7.479 0-14.656-1.301-21.333-3.669-7.947-2.819-15.175-7.159-21.333-12.679 7.909-7.089 14.044-16.113 17.664-26.319z"
        fill="#ff5023" />
    <path
        d="m426.667 202.772c6.677-2.368 13.854-3.669 21.333-3.669 35.291 0 64 28.71 64 64v56.889c0 35.29-28.709 64-64 64-7.479 0-14.656-1.301-21.333-3.669-7.947-2.819-15.175-7.159-21.333-12.679-7.908-7.088-14.044-16.112-17.664-26.318-2.368-6.677-3.669-13.855-3.669-21.333v-56.889c0-1.143.033-2.281.092-3.41 1.389-26.329 18.766-48.477 42.574-56.922z"
        fill="#ff5023" />
    <path
        d="m384.092 259.692c-.06 1.129-.092 2.267-.092 3.41v56.889c0 7.478 1.301 14.656 3.669 21.333 3.62 10.206 9.755 19.23 17.664 26.318-6.158 5.52-13.386 9.86-21.333 12.679-6.677 2.368-13.854 3.669-21.333 3.669h-106.667v-42.667-85.333h106.667c7.513.001 14.722 1.314 21.425 3.702z"
        fill="#ff6243" />
    <path
        d="m64 199.103c7.479 0 14.656 1.301 21.333 3.669v-63.639c0-29.66 27.055-53.791 60.308-53.791h110.359v170.65h-106.667c-7.514 0-14.723 1.311-21.426 3.701.06 1.129.092 2.267.092 3.41v56.889c0 7.478-1.301 14.656-3.669 21.333-3.62 10.206-9.755 19.23-17.664 26.318-6.158 5.52-13.386 9.86-21.333 12.679-6.677 2.368-13.854 3.669-21.333 3.669-35.29 0-64-28.71-64-64v-56.889c0-35.289 28.71-63.999 64-63.999z"
        fill="#ee8700" />
</svg>