<svg enable-background="new 0 0 485.187 485.187" viewBox="0 0 485.187 485.187" xmlns="http://www.w3.org/2000/svg"><path d="m358.938 463.309c0 4.167-3.403 7.554-7.554 7.554h-291.667c-4.167 0-7.538-3.387-7.538-7.554v-256.449c0-4.167 3.371-7.554 7.538-7.554h291.659c4.151 0 7.554 3.387 7.554 7.554v256.449z" fill="#ffb000"/><path d="m52.179 206.86c0-4.167 3.371-7.554 7.538-7.554h291.659c4.151 0 7.554 3.387 7.554 7.554v256.449c0 4.167-3.403 7.554-7.554 7.554" fill="#ff9100"/><path d="m374.794 465.656c0 2.875-2.324 5.199-5.183 5.199h-328.106c-2.875 0-5.183-2.324-5.183-5.199 0-2.859 2.308-5.183 5.183-5.183h328.105c2.86 0 5.184 2.324 5.184 5.183z" fill="#08a599"/><path d="m406.782 197.352-198.018-93.357c-2.048-.953-4.387-.953-6.428 0l-198.018 93.357c-3.182 1.489-4.907 5.018-4.135 8.46.756 3.45 3.828 5.892 7.357 5.892h396.028c3.521 0 6.585-2.45 7.357-5.892.78-3.442-.945-6.971-4.143-8.46z" fill="#ea186d"/><path d="m208.764 131.659c-2.048-.953-4.387-.953-6.428 0l-169.818 80.045h346.08z" fill="#d10d54"/><path d="m202.336 142.025-147.834 69.679h302.08l-147.818-69.679c-2.048-.953-4.387-.953-6.428 0z" fill="#bc0f45"/><path d="m242.209 309.307h-73.539c-4.167 0-7.554 3.371-7.554 7.538v154.017h88.631v-154.017c.001-4.175-3.371-7.538-7.538-7.538z" fill="#ea186d"/><path d="m242.209 309.307h-73.539c-.11 0-.197.063-.307.063l81.384 71.814v-64.339c.001-4.175-3.371-7.538-7.538-7.538z" fill="#d10d54"/><circle cx="321.837" cy="136.078" fill="#5cf7ff" opacity=".6" r="109.576"/><path d="m321.837 257.831c-67.135 0-121.754-54.619-121.754-121.754s54.611-121.753 121.754-121.753c67.127 0 121.746 54.619 121.746 121.754s-54.619 121.753-121.746 121.753zm0-219.159c-53.713 0-97.406 43.693-97.406 97.398s43.685 97.406 97.406 97.406c53.705 0 97.39-43.693 97.39-97.398s-43.685-97.406-97.39-97.406z" fill="#17dd9f"/><path d="m338.733 31.228c-67.127 0-121.746 54.619-121.746 121.754 0 29.279 10.39 56.155 27.672 77.186 21.023 17.258 47.9 27.664 77.178 27.664 67.127 0 121.746-54.619 121.746-121.754 0-29.279-10.382-56.155-27.664-77.186-21.031-17.266-47.907-27.664-77.186-27.664zm0 219.152c-31.153 0-58.864-14.753-76.705-37.597-22.827-17.833-37.597-45.552-37.597-76.705 0-53.705 43.693-97.398 97.406-97.398 31.153 0 58.872 14.753 76.705 37.597 22.835 17.849 37.597 45.552 37.597 76.705 0 53.704-43.693 97.398-97.406 97.398z" fill="#08c19d"/><path d="m472.995 299.429c-3.111 0-6.231-1.197-8.602-3.568l-71.018-71.034c-4.766-4.758-4.766-12.446 0-17.219 4.758-4.758 12.453-4.758 17.219 0l71.018 71.034c4.766 4.758 4.766 12.461 0 17.219-2.378 2.363-5.497 3.568-8.617 3.568z" fill="#17dd9f"/></svg>