<svg enable-background="new 0 0 504.8 504.8" viewBox="0 0 504.8 504.8"
    xmlns="http://www.w3.org/2000/svg">
    <path
        d="m464 231.2c0 10.4-8.8 12.8-19.2 12.8h-384.8c-10.4 0-19.2-1.6-19.2-12.8v-212c0-10.4 8.8-19.2 19.2-19.2h384c10.4 0 19.2 8.8 19.2 19.2v212z"
        fill="#e7eef2" />
    <path
        d="m464 492c0 10.4-8.8 12.8-19.2 12.8h-384.8c-10.4 0-19.2-1.6-19.2-12.8v-212c0-10.4 8.8-19.2 19.2-19.2h384c10.4 0 19.2 8.8 19.2 19.2v212z"
        fill="#c7d5dd" />
    <path
        d="m464 481.6c0 10.4-8.8 12.8-19.2 12.8h-384.8c-10.4 0-19.2-1.6-19.2-12.8v-212c0-10.4 8.8-19.2 19.2-19.2h384c10.4 0 19.2 8.8 19.2 19.2v212z"
        fill="#eff6f9" />
    <path
        d="m464 236.8c0 10.4-8.8 12.8-19.2 12.8h-384.8c-10.4 0-19.2-1.6-19.2-12.8v-212c0-10.4 8.8-19.2 19.2-19.2h384c10.4 0 19.2 8.8 19.2 19.2v212z"
        fill="#00233f" />
    <path d="m60 250.4h384c10.4 0 19.2 8.8 19.2 19.2v212c0 10.4-8.8 12.8-19.2 12.8h-384"
        fill="#e7eef2" />
    <path d="m60 250.4h384c10.4 0 19.2 8.8 19.2 19.2v212c0 10.4-8.8 12.8-19.2 12.8"
        fill="#d8e3ea" />
    <path
        d="m439.2 415.2c0 9.6-.8 11.2-10.4 11.2h-354.4c-9.6 0-10.4-1.6-10.4-11.2v-131.2c0-9.6.8-11.2 10.4-11.2h354.4c9.6 0 10.4 1.6 10.4 11.2z"
        fill="#b8cad1" />
    <path
        d="m439.2 416c0 8.8-.8 10.4-10.4 10.4h-354.4c-9.6 0-10.4-1.6-10.4-10.4v-127.2c0-8.8.8-10.4 10.4-10.4h354.4c9.6 0 10.4 1.6 10.4 10.4z"
        fill="#c7d5dd" />
    <g fill="#00233f">
        <path
            d="m100 293.6c0 .8-.8.8-.8.8h-19.2c-.8 0-.8-.8-.8-.8v-8.8c0-.8.8-.8.8-.8h19.2c.8 0 .8.8.8.8z" />
        <path
            d="m124.8 293.6c0 .8-.8.8-.8.8h-19.2c-.8 0-.8-.8-.8-.8v-8.8c0-.8.8-.8.8-.8h19.2c.8 0 .8.8.8.8z" />
        <path
            d="m149.6 293.6c0 .8 0 .8-.8.8h-19.2c-.8 0-.8-.8-.8-.8v-8.8c0-.8.8-.8.8-.8h19.2c.8 0 .8.8.8.8z" />
        <path
            d="m175.2 293.6c0 .8-.8.8-.8.8h-19.2c-.8 0-.8-.8-.8-.8v-8.8c0-.8.8-.8.8-.8h19.2c.8 0 .8.8.8.8z" />
        <path
            d="m200 293.6c0 .8-.8.8-.8.8h-19.2c-.8 0-.8-.8-.8-.8v-8.8c0-.8.8-.8.8-.8h19.2c.8 0 .8.8.8.8z" />
        <path
            d="m224.8 293.6c0 .8-.8.8-.8.8h-19.2c-.8 0-.8-.8-.8-.8v-8.8c0-.8.8-.8.8-.8h19.2c.8 0 .8.8.8.8z" />
        <path
            d="m250.4 293.6c0 .8-.8.8-.8.8h-19.2c-.8 0-.8-.8-.8-.8v-8.8c0-.8.8-.8.8-.8h19.2c.8 0 .8.8.8.8z" />
        <path
            d="m275.2 293.6c0 .8-.8.8-.8.8h-19.2c-.8 0-.8-.8-.8-.8v-8.8c0-.8.8-.8.8-.8h19.2c.8 0 .8.8.8.8z" />
        <path
            d="m300 293.6c0 .8-.8.8-.8.8h-19.2c-.8 0-.8-.8-.8-.8v-8.8c0-.8.8-.8.8-.8h19.2c.8 0 .8.8.8.8z" />
        <path
            d="m325.6 293.6c0 .8-.8.8-.8.8h-19.2c-.8 0-.8-.8-.8-.8v-8.8c0-.8.8-.8.8-.8h18.4c.8 0 .8.8.8.8v8.8z" />
        <path
            d="m350.4 293.6c0 .8-.8.8-.8.8h-19.2c-.8 0-.8-.8-.8-.8v-8.8c0-.8.8-.8.8-.8h19.2c.8 0 .8.8.8.8z" />
        <path
            d="m375.2 293.6c0 .8-.8.8-.8.8h-19.2c-.8 0-.8-.8-.8-.8v-8.8c0-.8.8-.8.8-.8h19.2c.8 0 .8.8.8.8z" />
        <path
            d="m400.8 293.6c0 .8-.8.8-.8.8h-20c-.8 0-.8-.8-.8-.8v-8.8c0-.8.8-.8.8-.8h19.2c.8 0 .8.8.8.8v8.8z" />
        <path
            d="m426.4 293.6c0 .8-.8.8-.8.8h-19.2c-.8 0-.8-.8-.8-.8v-8.8c0-.8.8-.8.8-.8h19.2c.8 0 .8.8.8.8z" />
        <path
            d="m97.6 316.8c0 .8-.8 2.4-2.4 2.4h-15.2c-.8 0-2.4-.8-2.4-2.4v-15.2c0-.8.8-2.4 2.4-2.4h15.2c.8 0 2.4.8 2.4 2.4z" />
        <path
            d="m121.6 316.8c0 .8-.8 2.4-2.4 2.4h-15.2c-.8 0-1.6-.8-1.6-2.4v-15.2c0-.8.8-2.4 1.6-2.4h15.2c.8 0 2.4.8 2.4 2.4z" />
        <path
            d="m145.6 316.8c0 .8-.8 2.4-2.4 2.4h-15.2c-.8 0-2.4-.8-2.4-2.4v-15.2c0-.8.8-2.4 2.4-2.4h15.2c.8 0 2.4.8 2.4 2.4z" />
        <path
            d="m170.4 316.8c0 .8-.8 2.4-2.4 2.4h-15.2c-.8 0-2.4-.8-2.4-2.4v-15.2c0-.8.8-2.4 2.4-2.4h15.2c.8 0 2.4.8 2.4 2.4z" />
        <path
            d="m194.4 316.8c0 .8-.8 2.4-1.6 2.4h-15.2c-.8 0-2.4-.8-2.4-2.4v-15.2c0-.8.8-2.4 2.4-2.4h15.2c.8 0 1.6.8 1.6 2.4z" />
        <path
            d="m219.2 316.8c0 .8-.8 2.4-2.4 2.4h-15.2c-.8 0-2.4-.8-2.4-2.4v-15.2c0-.8.8-2.4 2.4-2.4h15.2c.8 0 2.4.8 2.4 2.4z" />
        <path
            d="m243.2 316.8c0 .8-.8 2.4-2.4 2.4h-15.2c-.8 0-2.4-.8-2.4-2.4v-15.2c0-.8.8-2.4 2.4-2.4h15.2c.8 0 2.4.8 2.4 2.4z" />
        <path
            d="m268 316.8c0 .8-.8 2.4-2.4 2.4h-15.2c-.8 0-2.4-.8-2.4-2.4v-15.2c0-.8.8-2.4 2.4-2.4h15.2c.8 0 2.4.8 2.4 2.4z" />
        <path
            d="m292 316.8c0 .8-.8 2.4-2.4 2.4h-15.2c-.8 0-2.4-.8-2.4-2.4v-15.2c0-.8.8-2.4 2.4-2.4h15.2c.8 0 2.4.8 2.4 2.4z" />
        <path
            d="m316.8 316.8c0 .8-.8 2.4-1.6 2.4h-15.2c-.8 0-2.4-.8-2.4-2.4v-15.2c0-.8.8-2.4 2.4-2.4h15.2c.8 0 1.6.8 1.6 2.4z" />
        <path
            d="m340.8 316.8c0 .8-.8 2.4-2.4 2.4h-14.4c-.8 0-2.4-.8-2.4-2.4v-15.2c0-.8.8-2.4 2.4-2.4h15.2c.8 0 2.4.8 2.4 2.4v15.2z" />
        <path
            d="m365.6 316.8c0 .8-.8 2.4-1.6 2.4h-16c-.8 0-2.4-.8-2.4-2.4v-15.2c0-.8.8-2.4 2.4-2.4h15.2c.8 0 1.6.8 1.6 2.4v15.2z" />
        <path
            d="m389.6 316.8c0 .8-.8 2.4-2.4 2.4h-15.2c-.8 0-2.4-.8-2.4-2.4v-15.2c0-.8.8-2.4 2.4-2.4h16c.8 0 2.4.8 2.4 2.4v15.2z" />
        <path
            d="m423.2 300h-12-3.2-12c-.8 0-1.6.8-1.6 2.4v15.2c0 .8.8 2.4 1.6 2.4h12 3.2 12c.8 0 2.4-.8 2.4-2.4v-15.2c0-1.6-.8-2.4-2.4-2.4z" />
        <path
            d="m406.4 326.4c0-.8.8-2.4 2.4-2.4h15.2c.8 0 1.6.8 1.6 2.4v15.2c0 .8-.8 2.4-1.6 2.4h-15.2c-.8 0-2.4-.8-2.4-2.4z" />
        <path
            d="m382.4 326.4c0-.8.8-2.4 2.4-2.4h15.2c.8 0 2.4.8 2.4 2.4v15.2c0 .8-.8 2.4-2.4 2.4h-15.2c-.8 0-2.4-.8-2.4-2.4z" />
        <path
            d="m357.6 326.4c0-.8.8-2.4 1.6-2.4h15.2c.8 0 2.4.8 2.4 2.4v15.2c0 .8-.8 2.4-2.4 2.4h-15.2c-.8 0-1.6-.8-1.6-2.4z" />
        <path
            d="m333.6 326.4c0-.8.8-2.4 2.4-2.4h15.2c.8 0 1.6.8 1.6 2.4v15.2c0 .8-.8 2.4-1.6 2.4h-15.2c-.8 0-2.4-.8-2.4-2.4z" />
        <path
            d="m308.8 326.4c0-.8.8-2.4 2.4-2.4h15.2c.8 0 2.4.8 2.4 2.4v15.2c0 .8-.8 2.4-2.4 2.4h-15.2c-.8 0-2.4-.8-2.4-2.4z" />
        <path
            d="m284.8 326.4c0-.8.8-2.4 2.4-2.4h15.2c.8 0 1.6.8 1.6 2.4v15.2c0 .8-.8 2.4-1.6 2.4h-15.2c-.8 0-2.4-.8-2.4-2.4z" />
        <path
            d="m260 326.4c0-.8.8-2.4 1.6-2.4h15.2c.8 0 2.4.8 2.4 2.4v15.2c0 .8-.8 2.4-2.4 2.4h-15.2c-.8 0-1.6-.8-1.6-2.4z" />
        <path
            d="m236 326.4c0-.8.8-2.4 2.4-2.4h15.2c.8 0 2.4.8 2.4 2.4v15.2c0 .8-.8 2.4-2.4 2.4h-15.2c-.8 0-2.4-.8-2.4-2.4z" />
        <path
            d="m211.2 326.4c0-.8.8-2.4 2.4-2.4h15.2c.8 0 2.4.8 2.4 2.4v15.2c0 .8-.8 2.4-2.4 2.4h-15.2c-.8 0-2.4-.8-2.4-2.4z" />
        <path
            d="m187.2 326.4c0-.8.8-2.4 2.4-2.4h15.2c.8 0 2.4.8 2.4 2.4v15.2c0 .8-.8 2.4-2.4 2.4h-15.2c-.8 0-2.4-.8-2.4-2.4z" />
        <path
            d="m162.4 326.4c0-.8.8-2.4 2.4-2.4h15.2c.8 0 2.4.8 2.4 2.4v15.2c0 .8-.8 2.4-2.4 2.4h-15.2c-.8 0-2.4-.8-2.4-2.4z" />
        <path
            d="m138.4 326.4c0-.8.8-2.4 2.4-2.4h15.2c.8 0 2.4.8 2.4 2.4v15.2c0 .8-.8 2.4-2.4 2.4h-16c-.8 0-2.4-.8-2.4-2.4v-15.2z" />
        <path
            d="m113.6 326.4c0-.8.8-2.4 2.4-2.4h15.2c.8 0 1.6.8 1.6 2.4v15.2c0 .8-.8 2.4-1.6 2.4h-15.2c-.8 0-2.4-.8-2.4-2.4z" />
        <path
            d="m80 344h12 3.2 12c.8 0 2.4-.8 2.4-2.4v-15.2c0-.8-.8-2.4-2.4-2.4h-12-3.2-12c-.8 0-2.4.8-2.4 2.4v15.2c.8.8 1.6 2.4 2.4 2.4z" />
        <path
            d="m364.8 350.4c0-.8.8-1.6 1.6-1.6h15.2c.8 0 2.4.8 2.4 1.6v15.2c0 .8-.8 2.4-2.4 2.4h-15.2c-.8 0-1.6-.8-1.6-2.4z" />
        <path
            d="m340 350.4c0-.8.8-1.6 2.4-1.6h15.2c.8 0 2.4.8 2.4 1.6v15.2c0 .8-.8 2.4-2.4 2.4h-15.2c-.8 0-2.4-.8-2.4-2.4z" />
        <path
            d="m316 350.4c0-.8.8-1.6 2.4-1.6h15.2c.8 0 2.4.8 2.4 1.6v15.2c0 .8-.8 2.4-2.4 2.4h-15.2c-.8 0-2.4-.8-2.4-2.4z" />
        <path
            d="m291.2 350.4c0-.8.8-1.6 2.4-1.6h15.2c.8 0 2.4.8 2.4 1.6v15.2c0 .8-.8 2.4-2.4 2.4h-15.2c-.8 0-2.4-.8-2.4-2.4z" />
        <path
            d="m267.2 350.4c0-.8.8-1.6 2.4-1.6h14.4c.8 0 1.6.8 1.6 1.6v15.2c0 .8-.8 2.4-1.6 2.4h-15.2c-.8 0-2.4-.8-2.4-2.4v-15.2z" />
        <path
            d="m242.4 350.4c0-.8.8-1.6 1.6-1.6h16c.8 0 2.4.8 2.4 1.6v15.2c0 .8-.8 2.4-2.4 2.4h-15.2c-.8 0-1.6-.8-1.6-2.4v-15.2z" />
        <path
            d="m218.4 350.4c0-.8.8-1.6 2.4-1.6h15.2c.8 0 1.6.8 1.6 1.6v15.2c0 .8-.8 2.4-1.6 2.4h-16c-.8 0-2.4-.8-2.4-2.4v-15.2z" />
        <path
            d="m193.6 350.4c0-.8.8-1.6 1.6-1.6h15.2c.8 0 2.4.8 2.4 1.6v15.2c0 .8-.8 2.4-2.4 2.4h-14.4c-.8 0-1.6-.8-1.6-2.4v-15.2z" />
        <path
            d="m169.6 350.4c0-.8.8-1.6 2.4-1.6h15.2c.8 0 1.6.8 1.6 1.6v15.2c0 .8-.8 2.4-1.6 2.4h-15.2c-.8 0-2.4-.8-2.4-2.4z" />
        <path
            d="m144.8 350.4c0-.8.8-1.6 2.4-1.6h15.2c.8 0 2.4.8 2.4 1.6v15.2c0 .8-.8 2.4-2.4 2.4h-15.2c-.8 0-2.4-.8-2.4-2.4z" />
        <path
            d="m120.8 350.4c0-.8.8-1.6 2.4-1.6h15.2c.8 0 2.4.8 2.4 1.6v15.2c0 .8-.8 2.4-2.4 2.4h-15.2c-.8 0-2.4-.8-2.4-2.4z" />
        <path
            d="m390.4 368h14.4 4 14.4c1.6 0 2.4-.8 2.4-2.4v-15.2c0-.8-.8-1.6-2.4-1.6h-14.4-4-14.4c-1.6 0-2.4.8-2.4 1.6v15.2c0 1.6 1.6 2.4 2.4 2.4z" />
        <path
            d="m80.8 368h14.4 4 14.4c1.6 0 2.4-.8 2.4-2.4v-15.2c0-.8-.8-1.6-2.4-1.6h-14.4-4-14.4c-1.6 0-2.4.8-2.4 1.6v15.2c0 1.6.8 2.4 2.4 2.4z" />
        <path
            d="m352 375.2c0-.8.8-2.4 1.6-2.4h15.2c.8 0 2.4.8 2.4 2.4v15.2c0 .8-.8 2.4-2.4 2.4h-15.2c-.8 0-1.6-.8-1.6-2.4z" />
        <path
            d="m328 375.2c0-.8.8-2.4 2.4-2.4h15.2c.8 0 2.4.8 2.4 2.4v15.2c0 .8-.8 2.4-2.4 2.4h-15.2c-.8 0-2.4-.8-2.4-2.4z" />
        <path
            d="m303.2 375.2c0-.8.8-2.4 2.4-2.4h15.2c.8 0 2.4.8 2.4 2.4v15.2c0 .8-.8 2.4-2.4 2.4h-15.2c-.8 0-2.4-.8-2.4-2.4z" />
        <path
            d="m279.2 375.2c0-.8.8-2.4 2.4-2.4h15.2c.8 0 2.4.8 2.4 2.4v15.2c0 .8-.8 2.4-2.4 2.4h-15.2c-.8 0-2.4-.8-2.4-2.4z" />
        <path
            d="m254.4 375.2c0-.8.8-2.4 2.4-2.4h15.2c.8 0 2.4.8 2.4 2.4v15.2c0 .8-.8 2.4-2.4 2.4h-15.2c-.8 0-2.4-.8-2.4-2.4z" />
        <path
            d="m230.4 375.2c0-.8.8-2.4 2.4-2.4h15.2c.8 0 2.4.8 2.4 2.4v15.2c0 .8-.8 2.4-2.4 2.4h-15.2c-.8 0-2.4-.8-2.4-2.4z" />
        <path
            d="m205.6 375.2c0-.8.8-2.4 2.4-2.4h15.2c.8 0 2.4.8 2.4 2.4v15.2c0 .8-.8 2.4-2.4 2.4h-15.2c-.8 0-2.4-.8-2.4-2.4z" />
        <path
            d="m181.6 375.2c0-.8.8-2.4 2.4-2.4h15.2c.8 0 2.4.8 2.4 2.4v15.2c0 .8-.8 2.4-2.4 2.4h-15.2c-.8 0-2.4-.8-2.4-2.4z" />
        <path
            d="m156.8 375.2c0-.8.8-2.4 2.4-2.4h15.2c.8 0 2.4.8 2.4 2.4v15.2c0 .8-.8 2.4-2.4 2.4h-15.2c-.8 0-2.4-.8-2.4-2.4z" />
        <path
            d="m132.8 375.2c0-.8.8-2.4 2.4-2.4h15.2c.8 0 2.4.8 2.4 2.4v15.2c0 .8-.8 2.4-2.4 2.4h-15.2c-.8 0-2.4-.8-2.4-2.4z" />
        <path
            d="m80.8 392.8h13.6 4 28c1.6 0 2.4-.8 2.4-2.4v-15.2c0-.8-.8-2.4-2.4-2.4h-28-4-13.6c-1.6 0-2.4.8-2.4 2.4v15.2c0 1.6.8 2.4 2.4 2.4z" />
        <path
            d="m377.6 392.8h18.4 4 23.2c1.6 0 2.4-.8 2.4-2.4v-15.2c0-.8-.8-2.4-2.4-2.4h-23.2-4-18.4c-1.6 0-2.4.8-2.4 2.4v15.2c0 1.6 1.6 2.4 2.4 2.4z" />
        <path
            d="m304 400c0-.8.8-2.4 2.4-2.4h19.2c.8 0 2.4.8 2.4 2.4v15.2c0 .8-.8 2.4-2.4 2.4h-19.2c-.8 0-2.4-.8-2.4-2.4z" />
        <path
            d="m151.2 400c0-.8.8-2.4 2.4-2.4h19.2c.8 0 1.6.8 1.6 2.4v15.2c0 .8-.8 2.4-1.6 2.4h-19.2c-.8 0-2.4-.8-2.4-2.4z" />
        <path
            d="m126.4 400c0-.8.8-2.4 2.4-2.4h15.2c.8 0 2.4.8 2.4 2.4v15.2c0 .8-.8 2.4-2.4 2.4h-15.2c-.8 0-2.4-.8-2.4-2.4z" />
        <path
            d="m332.8 400c0-.8.8-2.4 2.4-2.4h15.2c.8 0 2.4.8 2.4 2.4v15.2c0 .8-.8 2.4-2.4 2.4h-15.2c-.8 0-2.4-.8-2.4-2.4z" />
        <path
            d="m101.6 400c0-.8.8-2.4 1.6-2.4h15.2c.8 0 1.6.8 1.6 2.4v15.2c0 .8-.8 2.4-1.6 2.4h-15.2c-.8 0-1.6-.8-1.6-2.4z" />
        <path
            d="m77.6 400c0-.8.8-2.4 1.6-2.4h15.2c.8 0 2.4.8 2.4 2.4v15.2c0 .8-.8 2.4-2.4 2.4h-15.2c-.8 0-1.6-.8-1.6-2.4z" />
        <path
            d="m296.8 397.6h-6.4-9.6-8.8-15.2-8.8-15.2-8.8-15.2-24c-.8 0-2.4.8-2.4 2.4v15.2c0 .8.8 2.4 2.4 2.4h24 15.2 8.8 15.2 8.8 15.2 8.8 9.6 6.4c.8 0 1.6-.8 1.6-2.4v-15.2c0-1.6-.8-2.4-1.6-2.4z" />
        <path
            d="m377.6 416c0 .8-.8.8-.8.8h-19.2c-.8 0-.8-.8-.8-.8v-6.4c0-.8.8-.8.8-.8h19.2c.8 0 .8.8.8.8z" />
        <path
            d="m402.4 416c0 .8 0 .8-.8.8h-19.2c-.8 0-.8-.8-.8-.8v-6.4c0-.8.8-.8.8-.8h19.2c.8 0 .8.8.8.8z" />
        <path
            d="m402.4 404.8c0 .8 0 .8-.8.8h-19.2c-.8 0-.8-.8-.8-.8v-6.4c0-.8.8-.8.8-.8h19.2c.8 0 .8.8.8.8z" />
        <path
            d="m426.4 416c0 .8 0 .8-.8.8h-19.2c-.8 0-.8-.8-.8-.8v-6.4c0-.8.8-.8.8-.8h19.2c.8 0 .8.8.8.8z" />
    </g>
    <path
        d="m301.6 483.2c0 1.6-1.6 3.2-3.2 3.2h-92.8c-1.6 0-3.2-1.6-3.2-3.2v-48c0-1.6 1.6-3.2 3.2-3.2h92c1.6 0 3.2 1.6 3.2 3.2v48z"
        fill="#c7d5dd" />
    <path
        d="m301.6 483.2c0 1.6-1.6 3.2-3.2 3.2h-92.8c-1.6 0-3.2-1.6-3.2-3.2v-44c0-1.6 1.6-3.2 3.2-3.2h92c1.6 0 3.2 1.6 3.2 3.2v44z"
        fill="#d8e3ea" />
    <circle cx="448" cy="266.4" fill="#e7eef2" r="6.4" />
    <path d="m446.4 225.6v-187.2c0-9.6 0-17.6-9.6-17.6h-369.6c-9.6-.8-9.6 7.2-9.6 17.6v188h388.8z"
        fill="#1feadb" />
    <path d="m446.4 225.6v-187.2c0-9.6 0-17.6-9.6-17.6h-369.6c-9.6-.8-9.6 7.2-9.6 17.6"
        fill="#15cccc" />
    <path
        d="m436.8 20h-369.6c-9.6 0-9.6 8-9.6 18.4v16.8c0-9.6 0-17.6 9.6-17.6h368.8c9.6 0 9.6 8 9.6 17.6v-16.8c.8-10.4.8-18.4-8.8-18.4z"
        fill="#1ab5b5" />
    <path
        d="m410.4 262.4c0 1.6-1.6 2.4-4 2.4h-308.8c-2.4 0-4-.8-4-2.4v-12.8c0-1.6 1.6-2.4 4-2.4h308.8c2.4 0 4 .8 4 2.4z"
        fill="#08446d" />
    <path d="m93.6 248.8c0-1.6 1.6-2.4 4-2.4h308.8c2.4 0 4 .8 4 2.4v12.8c0 1.6-1.6 2.4-4 2.4"
        fill="#00233f" />
    <path d="m252 240.8 4.8 4.8 3.2-3.2-8-8-8 8 3.2 3.2z" fill="#d8e3ea" />
    <circle cx="252" cy="13.6" fill="#27d68a" r="3.2" />
    <path d="m252 10.4c1.6 0 3.2 1.6 3.2 3.2s-1.6 3.2-3.2 3.2" fill="#15af83" />
    <ellipse cx="250.373" cy="12.782" fill="#cfffef" rx=".8" ry=".8" />
</svg>