<svg enable-background="new 0 0 383.37 383.37" viewBox="0 0 383.37 383.37"
    xmlns="http://www.w3.org/2000/svg">
    <path d="m136.683 63.143h111.465v37.297h-111.465z" fill="none" />
    <path
        d="m136.683 63.143h111.465v37.297h33.512v-54.053c0-9.253-7.502-16.756-16.756-16.756h-144.977c-9.254 0-16.756 7.503-16.756 16.756v54.053h33.513v-37.297z"
        fill="#1b2327" />
    <path
        d="m337.728 100.44h-56.068-33.512-111.465-33.513-57.528c-25.208 0-45.642 20.433-45.642 45.641v162.016c0 25.208 20.434 45.642 45.642 45.642h292.086c25.208 0 45.642-20.434 45.642-45.642v-162.015c0-25.208-20.434-45.642-45.642-45.642zm-144.374 205.121c-40.219 0-72.826-32.605-72.826-72.825s32.606-72.825 72.826-72.825c40.221 0 72.825 32.605 72.825 72.825s-32.604 72.825-72.825 72.825z"
        fill="#f7f1e6" />
    <path
        d="m193.354 159.911c-40.219 0-72.826 32.605-72.826 72.825s32.606 72.825 72.826 72.825c40.221 0 72.825-32.605 72.825-72.825s-32.604-72.825-72.825-72.825zm42.295 76.43c0 5.956-4.827 10.784-10.784 10.784h-17.121v17.121c0 5.957-4.828 10.785-10.785 10.785h-7.212c-5.956 0-10.785-4.828-10.785-10.785v-17.121h-17.122c-5.954 0-10.784-4.828-10.784-10.784v-7.211c0-5.956 4.831-10.785 10.784-10.785h17.122v-17.121c0-5.957 4.829-10.784 10.785-10.784h7.212c5.957 0 10.785 4.828 10.785 10.784v17.121h17.121c5.957 0 10.784 4.829 10.784 10.785z"
        fill="#e74424" />
    <path
        d="m224.865 218.345h-17.121v-17.121c0-5.957-4.828-10.784-10.785-10.784h-7.212c-5.956 0-10.785 4.828-10.785 10.784v17.121h-17.122c-5.954 0-10.784 4.829-10.784 10.785v7.211c0 5.956 4.831 10.784 10.784 10.784h17.122v17.121c0 5.957 4.829 10.785 10.785 10.785h7.212c5.957 0 10.785-4.828 10.785-10.785v-17.121h17.121c5.957 0 10.784-4.828 10.784-10.784v-7.211c0-5.956-4.827-10.785-10.784-10.785z"
        fill="#f7f1e6" />
</svg>