<svg enable-background="new 0 0 485 485" viewBox="0 0 485 485" xmlns="http://www.w3.org/2000/svg"><path d="m97.5 87.5h290v310h-290z" fill="#31c0d8"/><path d="m387.5 397.5v60c0 11-9 20-20 20h-250c-11 0-20-9-20-20v-60z" fill="#afb6bb"/><path d="m387.5 27.5v60h-290v-60c0-11 9-20 20-20h250c11 0 20 9 20 20z" fill="#afb6bb"/><g fill="#231f20"><path d="m367.5 0h-250c-15.164 0-27.5 12.336-27.5 27.5v430c0 15.164 12.336 27.5 27.5 27.5h250c15.164 0 27.5-12.336 27.5-27.5v-430c0-15.164-12.336-27.5-27.5-27.5zm-250 15h250c6.893 0 12.5 5.607 12.5 12.5v52.5h-275v-52.5c0-6.893 5.607-12.5 12.5-12.5zm262.5 80v295h-275v-295zm-12.5 375h-250c-6.893 0-12.5-5.607-12.5-12.5v-52.5h275v52.5c0 6.893-5.607 12.5-12.5 12.5z"/><path d="m197 40.75h90v15h-90z"/><path d="m222.5 430h40v15h-40z"/></g></svg>