<svg enable-background="new 0 0 512 512" viewBox="0 0 512 512" xmlns="http://www.w3.org/2000/svg">
    <path
        d="m494.345 467.862h-476.69c-9.751 0-17.655-7.904-17.655-17.655v-388.414c0-9.751 7.904-17.655 17.655-17.655h476.69c9.751 0 17.655 7.904 17.655 17.655v388.414c0 9.751-7.904 17.655-17.655 17.655z"
        fill="#afb9d2" />
    <path d="m88.276 44.138h335.448v88.276h-335.448z" fill="#959cb3" />
    <path
        d="m476.69 432.552h-441.38c-9.751 0-17.655-7.904-17.655-17.655v-264.828c0-9.751 7.904-17.655 17.655-17.655h441.38c9.751 0 17.655 7.904 17.655 17.655v264.828c0 9.751-7.904 17.655-17.655 17.655z"
        fill="#707487" />
    <circle cx="150.069" cy="88.276" fill="#707487" r="26.483" />
    <path
        d="m450.207 397.241h-388.414c-4.875 0-8.828-3.953-8.828-8.828v-176.551c0-4.875 3.953-8.828 8.828-8.828h388.414c4.875 0 8.828 3.953 8.828 8.828v176.552c-.001 4.875-3.953 8.827-8.828 8.827z"
        fill="#ffd764" />
    <path
        d="m450.207 185.379h-388.414c-4.875 0-8.828-3.953-8.828-8.828s3.953-8.828 8.828-8.828h388.414c4.875 0 8.828 3.953 8.828 8.828s-3.953 8.828-8.828 8.828z"
        fill="#e4eaf6" />
    <path
        d="m308.966 105.931h-105.932c-4.875 0-8.828-3.953-8.828-8.828v-17.655c0-4.875 3.953-8.828 8.828-8.828h105.931c4.875 0 8.828 3.953 8.828 8.828v17.655c0 4.875-3.952 8.828-8.827 8.828z"
        fill="#ffd764" />
    <path
        d="m246.06 336.561c-2.259 0-4.518-.862-6.241-2.586l-86.966-87c-3.448-3.448-3.448-9.038 0-12.483 3.448-3.448 9.035-3.448 12.483 0l86.966 87c3.448 3.448 3.448 9.038 0 12.483-1.724 1.724-3.983 2.586-6.242 2.586z"
        fill="#ffe678" />
    <path
        d="m344.276 383.996c-2.259 0-4.517-.862-6.241-2.586l-48.518-48.53c-3.448-3.448-3.448-9.038 0-12.483 3.448-3.448 9.035-3.448 12.483 0l48.517 48.53c3.448 3.448 3.448 9.038 0 12.483-1.724 1.724-3.982 2.586-6.241 2.586z"
        fill="#ffe678" />
    <path
        d="m269.284 308.983c-2.259 0-4.522-.862-6.241-2.586l-19.887-19.897c-3.448-3.448-3.448-9.038 0-12.483 3.448-3.448 9.043-3.448 12.483 0l19.887 19.896c3.448 3.448 3.448 9.038 0 12.483-1.724 1.724-3.983 2.587-6.242 2.587z"
        fill="#fff08c" />
    <path
        d="m450.207 203.034h-388.414c-4.875 0-8.828 3.953-8.828 8.828v17.655c0-4.875 3.953-8.828 8.828-8.828h388.414c4.875 0 8.828 3.953 8.828 8.828v-17.655c-.001-4.875-3.953-8.828-8.828-8.828z"
        fill="#ffbe5a" />
    <path
        d="m167.724 114.759c-2.259 0-4.518-.862-6.241-2.586l-35.31-35.31c-3.448-3.448-3.448-9.035 0-12.483s9.035-3.448 12.483 0l35.31 35.31c3.448 3.448 3.448 9.035 0 12.483-1.724 1.724-3.983 2.586-6.242 2.586z"
        fill="#afb9d2" />
    <circle cx="361.931" cy="88.276" fill="#707487" r="26.483" />
    <path
        d="m379.586 114.759c-2.259 0-4.518-.862-6.241-2.586l-35.31-35.31c-3.448-3.448-3.448-9.035 0-12.483s9.035-3.448 12.483 0l35.31 35.31c3.448 3.448 3.448 9.035 0 12.483-1.724 1.724-3.983 2.586-6.242 2.586z"
        fill="#afb9d2" />
</svg>