<svg enable-background="new 0 0 512 512" viewBox="0 0 512 512" xmlns="http://www.w3.org/2000/svg">
    <circle cx="256" cy="256" fill="#c2d5d8" r="256" />
    <path
        d="m448 376c0 8.8-7.2 16-16 16h-352c-8.8 0-16-7.2-16-16v-192c0-8.8 7.2-16 16-16h352c8.8 0 16 7.2 16 16z"
        fill="#263740" />
    <path
        d="m432 168h-16c8.8 0 16 7.2 16 16v192c0 8.8-7.2 16-16 16h16c8.8 0 16-7.2 16-16v-192c0-8.8-7.2-16-16-16z"
        fill="#1e2c33" />
    <path d="m432 392c0 8.8-7.2 16-16 16h-320c-8.8 0-16-7.2-16-16z" fill="#1e2c33" />
    <circle cx="411.48" cy="209.48" fill="#cc584c" r="8" />
    <path d="m156 168v-92c0-4.4 3.6-8 8-8h192c4.4 0 8 3.6 8 8v92z" fill="#f5f5f5" />
    <path d="m384 392v-104c0-8.8-7.2-16-16-16h-224c-8.8 0-16 7.2-16 16v104z" fill="#1e2c33" />
    <path d="m140 320h228v36h-228z" fill="#344d59" />
    <path d="m152 340v92c0 4.4 3.6 8 8 8h192c4.4 0 8-3.6 8-8v-92z" fill="#f5f5f5" />
    <g fill="#ccc">
        <path d="m180 404h60v8h-60z" />
        <path d="m180 388h160v8h-160z" />
        <path d="m180 372h160v8h-160z" />
        <path d="m180 356h160v8h-160z" />
    </g>
</svg>