<svg enable-background="new 0 0 122.88 95.16" viewBox="0 0 122.88 95.16"
    xmlns="http://www.w3.org/2000/svg">
    <path
        d="m104.43 21.23h.27c.78 0 1.47.36 1.93.91 11.41 11.74 17.4 37.23 16.07 54.29-.37 4.73-1.3 8.89-2.83 12.03-1.74 3.58-4.25 5.93-7.61 6.55-4.28.79-9.63-1.47-16.06-8.02-.83-.84-1.69-1.69-2.57-2.56-3-2.95-6.16-6.06-8.83-9.81h-46.72c-2.68 3.78-5.84 6.89-8.85 9.84-.87.86-1.73 1.7-2.55 2.53-6.43 6.55-11.78 8.81-16.06 8.02-3.36-.62-5.88-2.97-7.61-6.55-1.53-3.15-2.46-7.3-2.83-12.03-1.33-17.14 4.72-42.78 16.22-54.45.49-.5 1.13-.75 1.78-.75v-.01h.28c1.41-1.94 3.16-3.5 5.13-4.68 2.99-1.79 6.47-2.68 9.93-2.68 3.47 0 6.95.89 9.93 2.68 1.96 1.17 3.71 2.73 5.1 4.67h7.91c-.61-14.92 3.54-18.68 9.67-19.1 2.22-.15 4.57.24 7.03.65 4.65.77 9.79 1.62 13.44-2.03.98-.98 2.56-.98 3.54 0s.98 2.56 0 3.54c-5.46 5.47-11.93 4.4-17.78 3.43-2.17-.36-4.23-.7-5.9-.6-3.31.22-5.51 2.98-4.99 14.12h12.87c1.4-1.94 3.16-3.51 5.12-4.68 2.99-1.79 6.47-2.68 9.92-2.68s6.93.9 9.92 2.68c1.97 1.18 3.73 2.74 5.13 4.69z"
        fill="#262626" />
    <path
        d="m93.4 29.07c1.62 1.62 2.43 3.73 2.43 5.85 0 2.11-.81 4.22-2.43 5.84l-.01.01c-1.62 1.62-3.73 2.43-5.84 2.43s-4.22-.81-5.84-2.43l-.01-.01c-1.62-1.62-2.43-3.73-2.43-5.84 0-2.12.81-4.23 2.43-5.85 1.61-1.61 3.73-2.42 5.85-2.42 2.11 0 4.22.81 5.84 2.42z" />
    <path
        d="m91.27 31.2c2.06 2.06 2.06 5.38 0 7.44s-5.38 2.06-7.44 0-2.06-5.38 0-7.44c2.05-2.04 5.38-2.04 7.44 0z"
        fill="#ffd54f" />
    <path
        d="m80.77 40.04c.07.07.13.14.19.21 1.49 1.59 2.24 3.62 2.24 5.64 0 2.11-.81 4.22-2.43 5.84l-.01.01.01.01c-1.62 1.62-3.73 2.43-5.85 2.43s-4.23-.81-5.85-2.43-2.43-3.73-2.43-5.85.81-4.23 2.43-5.85l.01-.01c.07-.07.14-.13.21-.2 1.59-1.48 3.61-2.22 5.63-2.22 2.11 0 4.22.81 5.84 2.42z" />
    <path
        d="m78.64 42.17c2.06 2.06 2.06 5.38 0 7.44s-5.38 2.06-7.44 0-2.06-5.38 0-7.44c2.06-2.05 5.39-2.05 7.44 0z"
        fill="#2196f3" />
    <path
        d="m106.02 40.04c1.62 1.62 2.43 3.73 2.43 5.85s-.81 4.23-2.43 5.85-3.73 2.43-5.85 2.43c-2.11 0-4.22-.81-5.84-2.43l-.01-.01-.01.01c-1.62-1.62-2.43-3.73-2.43-5.85s.81-4.23 2.43-5.85 3.73-2.43 5.85-2.43 4.24.82 5.86 2.43z" />
    <path
        d="m103.89 42.17c2.06 2.06 2.06 5.38 0 7.44s-5.38 2.06-7.44 0-2.06-5.38 0-7.44c2.06-2.05 5.38-2.05 7.44 0z"
        fill="#f44336" />
    <path
        d="m93.4 52.01c1.62 1.62 2.43 3.73 2.43 5.85 0 2.11-.81 4.22-2.43 5.84l-.01.01.01.01c-1.62 1.62-3.73 2.43-5.85 2.43s-4.23-.81-5.85-2.43c-.07-.07-.13-.14-.19-.21-1.49-1.59-2.24-3.62-2.24-5.64 0-2.12.81-4.23 2.43-5.85.07-.07.13-.13.21-.19 1.59-1.49 3.61-2.23 5.64-2.23 2.11 0 4.22.81 5.84 2.42h.01z" />
    <path
        d="m91.27 54.14c2.06 2.06 2.06 5.38 0 7.44s-5.38 2.06-7.44 0-2.06-5.38 0-7.44c2.05-2.04 5.38-2.04 7.44 0z"
        fill="#4caf50" />
    <g clip-rule="evenodd" fill-rule="evenodd">
        <path
            d="m33.49 31.31c3.14 0 5.7 2.57 5.7 5.7v6.66h6.66c3.14 0 5.7 2.57 5.7 5.7 0 3.14-2.57 5.7-5.7 5.7h-6.66v6.66c0 3.14-2.57 5.7-5.7 5.7-3.14 0-5.7-2.57-5.7-5.7v-6.66h-6.66c-3.14 0-5.7-2.57-5.7-5.7 0-3.14 2.57-5.7 5.7-5.7h6.66v-6.66c0-3.13 2.56-5.7 5.7-5.7z"
            fill="#fff" />
        <path
            d="m48.96 49.58-3.63 3.63v-7.26zm-15.29-15.29 3.63 3.63h-7.26zm-15.28 15.29 3.63 3.63v-7.26zm15.28 15.28 3.63-3.63h-7.26z"
            fill="#262626" />
    </g>
</svg>